#N canvas 172 80 735 568 10;
#X obj 161 131 cnv 15 210 80 empty empty empty 20 12 0 14 -1625 -66577
0;
#X obj 229 351 inlet~;
#X obj 161 212 cnv 15 210 20 empty empty empty 20 12 0 14 -1 -66577
0;
#X obj 164 217 cnv 10 35 12 empty empty Output\ (0-5v) 0 5 0 10 -1
-261234 0;
#X obj 161 89 cnv 15 210 20 empty empty empty 20 12 0 14 -1 -66577
0;
#X obj 164 96 cnv 10 35 12 empty empty Gate 0 5 0 10 -1 -261234 0;
#X obj 171 140 cnv 10 12 12 empty empty Attack 0 5 0 10 -1625 -4032
0;
#X obj 85 159 i;
#X obj 161 110 cnv 15 210 20 empty empty ADSR 5 10 0 14 -2209 -4032
0;
#X obj 402 73 * 100;
#X obj 402 95 i;
#X msg 402 117 label \$1%;
#X obj 267 139 cnv 10 12 12 empty empty Sustain 0 5 0 10 -1625 -4032
0;
#X obj 31 587 vline~;
#X msg 160 523 0 \$2;
#X obj 14 455 pack f f f f, f 23;
#X obj 30 637 outlet~;
#X obj 160 500 pack f f;
#X obj 160 455 sel 0;
#X msg 31 515 1 \$2 \, \$4 \$3 \$2;
#X msg 85 181 label \$1ms;
#X obj 221 140 cnv 10 12 12 empty empty Decay 0 5 0 10 -1625 -4032
0;
#X obj 80 93 i;
#X msg 80 115 label \$1ms;
#X obj 321 140 cnv 10 12 12 empty empty Release 0 5 0 10 -1625 -4032
0;
#X obj 402 150 i;
#X msg 402 172 label \$1ms;
#X obj 229 393 edge~;
#X msg 229 414 1, f 1;
#X msg 256 414 0, f 1;
#X obj 31 612 *~ 5;
#X msg 160 477 0, f 1;
#X obj 229 371 expr~ $v1 > 2.5;
#X msg 353 411 color 2;
#X msg 297 410 color 1;
#X obj 300 438 s \$0-gateLed;
#X obj 196 95 cnv 8 8 8 empty \$0-gateLed empty 20 12 0 14 -66577 -262144
0;
#X obj 158 237 s \$0-attack;
#X obj 58 413 r \$0-attack;
#X obj 105 434 r \$0-decay;
#X obj 212 256 s \$0-decay;
#X obj 256 235 s \$0-sustain;
#X obj 142 414 r \$0-sustain;
#X obj 337 234 s \$0-release;
#X obj 209 464 r \$0-release;
#X obj 438 715 outlet;
#X obj 441 672 r \$0-toSlave;
#X obj 163 -10 r \$0-fromMaster;
#X obj 163 15 route attack decay sustain release, f 36;
#X obj 445 382 s \$0-toSlave;
#X obj 375 319 r \$0-attack;
#X obj 451 319 r \$0-decay;
#X obj 540 318 r \$0-sustain;
#X obj 622 318 r \$0-release;
#X msg 375 341 attack \$1;
#X msg 452 341 decay \$1;
#X msg 540 341 sustain \$1;
#X msg 622 341 release \$1;
#X obj 449 436 inlet;
#X obj 458 528 s \$0-fromMaster;
#X obj 449 549 s \$0-toSlave;
#X obj 449 474 prepent set;
#X obj 524 462 bng 8 250 50 0 empty empty empty 17 7 0 10 -262144 -1
-1;
#X msg 449 508;
#X obj 524 474 delay 10;
#X obj 176 158 moonlib/mknob 25 100 1 2000 0 1 empty empty 1ms 1 32
0 8 -1625 -4032 -4032 0 1;
#X obj 226 158 moonlib/mknob 25 100 1 2000 0 1 empty empty 1ms 1 32
0 8 -1625 -4032 -4032 0 1;
#X obj 276 158 moonlib/mknob 25 100 0 1 0 1 empty empty 100% 7 32 0
8 -1625 -4032 -4032 9900 1;
#X obj 326 158 moonlib/mknob 25 100 1 2000 0 1 empty empty 1ms 1 32
0 8 -1625 -4032 -4032 0 1;
#X obj 327 44 preset_node b4p;
#X obj 278 64 preset_node b4p;
#X obj 179 63 preset_node b4p;
#X obj 169 34 preset_node b4p;
#X obj 353 94 cnv 10 10 12 empty empty ● 0 5 0 10 -1 -261234 0;
#X obj 353 216 cnv 10 10 12 empty empty ● 0 5 0 10 -1 -261234 0;
#X connect 1 0 32 0;
#X connect 7 0 20 0;
#X connect 9 0 10 0;
#X connect 10 0 11 0;
#X connect 11 0 67 0;
#X connect 13 0 30 0;
#X connect 14 0 13 0;
#X connect 15 0 19 0;
#X connect 17 0 14 0;
#X connect 18 0 31 0;
#X connect 18 1 15 0;
#X connect 19 0 13 0;
#X connect 20 0 65 0;
#X connect 22 0 23 0;
#X connect 23 0 66 0;
#X connect 25 0 26 0;
#X connect 26 0 68 0;
#X connect 27 0 28 0;
#X connect 27 0 34 0;
#X connect 27 1 29 0;
#X connect 27 1 33 0;
#X connect 28 0 18 0;
#X connect 29 0 18 0;
#X connect 30 0 16 0;
#X connect 31 0 17 0;
#X connect 32 0 27 0;
#X connect 33 0 35 0;
#X connect 34 0 35 0;
#X connect 38 0 15 1;
#X connect 39 0 15 2;
#X connect 42 0 15 3;
#X connect 44 0 17 1;
#X connect 46 0 45 0;
#X connect 47 0 48 0;
#X connect 48 0 65 0;
#X connect 48 1 66 0;
#X connect 48 2 67 0;
#X connect 48 3 68 0;
#X connect 50 0 54 0;
#X connect 51 0 55 0;
#X connect 52 0 56 0;
#X connect 53 0 57 0;
#X connect 54 0 49 0;
#X connect 55 0 49 0;
#X connect 56 0 49 0;
#X connect 57 0 49 0;
#X connect 58 0 61 0;
#X connect 58 0 62 0;
#X connect 61 0 63 0;
#X connect 62 0 64 0;
#X connect 63 0 59 0;
#X connect 63 0 60 0;
#X connect 64 0 63 0;
#X connect 65 0 7 0;
#X connect 65 0 37 0;
#X connect 65 0 72 0;
#X connect 66 0 22 0;
#X connect 66 0 40 0;
#X connect 66 0 71 0;
#X connect 67 0 9 0;
#X connect 67 0 41 0;
#X connect 67 0 70 0;
#X connect 68 0 25 0;
#X connect 68 0 43 0;
#X connect 68 0 69 0;
#X connect 69 0 68 0;
#X connect 70 0 67 0;
#X connect 71 0 66 0;
#X connect 72 0 65 0;
#X coords 0 -1 1 1 210 143 2 161 89;
