#N canvas 638 44 647 568 10;
#X obj 161 131 cnv 15 250 80 empty empty empty 20 12 0 14 -1625 -66577
0;
#X obj 134 463 inlet~;
#X obj 212 462 inlet~;
#X obj 294 461 inlet~;
#X obj 25 753 outlet~;
#X obj 161 212 cnv 15 250 20 empty empty empty 20 12 0 14 -1 -66577
0;
#X obj 164 217 cnv 10 35 12 empty empty Output 0 5 0 10 -1 -261234
0;
#X obj 161 89 cnv 15 250 20 empty empty empty 20 12 0 14 -1 -66577
0;
#X obj 164 96 cnv 10 35 12 empty empty Signal 0 5 0 10 -1 -261234 0
;
#X obj 277 96 cnv 10 35 12 empty empty CV2 0 5 0 10 -1 -261234 0;
#X obj 338 96 cnv 10 35 12 empty empty CV3 0 5 0 10 -1 -261234 0;
#X obj 181 140 cnv 10 12 12 empty empty Freq 0 5 0 10 -1625 -4032 0
;
#X obj 15 100 i;
#X obj 161 110 cnv 15 250 20 empty empty VCF 5 10 0 14 -2209 -4032
0;
#X obj 15 119 moses 1000;
#X msg 15 138 label \$1Hz;
#X msg 32 220 label \$1KHz;
#X obj 72 163 / 100;
#X obj 72 182 i, f 5;
#X obj 72 201 / 10, f 5;
#X obj 55 463 inlet~;
#X obj 216 96 cnv 10 35 12 empty empty CV1 0 5 0 10 -1 -261234 0;
#X obj 253 140 cnv 10 12 12 empty empty CV1 0 5 0 10 -1625 -4032 0
;
#X obj 86 48 * 100;
#X obj 86 70 i;
#X msg 86 92 label \$1%;
#X obj 516 85 * 100;
#X obj 516 107 i;
#X msg 516 129 label \$1%;
#X obj 293 140 cnv 10 12 12 empty empty CV2 0 5 0 10 -1625 -4032 0
;
#X obj 333 140 cnv 10 12 12 empty empty CV3 0 5 0 10 -1625 -4032 0
;
#X obj 521 9 * 100;
#X obj 521 31 i;
#X msg 521 53 label \$1%;
#N canvas 297 90 450 300 mute 0;
#X obj 100 100 tgl 15 1 empty empty empty 17 7 0 10 -262144 -1 -1 0
1;
#X obj 100 100 cnv 15 65 15 empty empty empty 20 12 0 14 -2209 -66577
0;
#X obj 100 100 cnv 15 15 15 empty \$0-bypassCnv Bypass 20 7 0 12 -1625
-166441 0;
#X obj 80 159 tgl 15 0 empty empty empty 17 7 0 10 -262144 -1 -1 0
1;
#X obj 153 135 sel 0;
#X obj 180 154 bng 8 250 50 0 empty empty empty 17 7 0 10 -262144 -1
-1;
#X msg 153 181 color -26209 1;
#X msg 180 206 color 47 47;
#X obj 153 243 s \$0-bypassCnv;
#X obj 48 179 outlet;
#X connect 0 0 4 0;
#X connect 0 0 3 0;
#X connect 0 0 9 0;
#X connect 4 0 6 0;
#X connect 4 1 5 0;
#X connect 5 0 7 0;
#X connect 6 0 8 0;
#X connect 7 0 8 0;
#X coords 0 -1 1 1 65 15 2 100 100;
#X restore 343 112 pd mute;
#X obj 129 232 s \$0-freq;
#X obj 190 232 s \$0-cv1;
#X obj 248 232 s \$0-cv2;
#X obj 305 232 s \$0-cv3;
#X obj 338 251 s \$0-bypass;
#X obj 543 455 inlet;
#X obj 552 547 s \$0-fromMaster;
#X obj 543 568 s \$0-toSlave;
#X obj 543 493 prepent set;
#X obj 618 481 bng 8 250 50 0 empty empty empty 17 7 0 10 -262144 -1
-1;
#X msg 543 527;
#X obj 618 493 delay 10;
#X obj 542 715 outlet;
#X obj 542 692 r \$0-toSlave;
#X obj 243 -48 r \$0-fromMaster;
#X obj 143 377 s \$0-toSlave;
#X obj 62 308 r \$0-freq;
#X msg 62 330 freq \$1;
#X obj 147 308 r \$0-cv1;
#X obj 212 308 r \$0-cv2;
#X obj 276 309 r \$0-cv3;
#X msg 212 333 cv2 \$1;
#X msg 147 331 cv1 \$1;
#X msg 276 331 cv3 \$1;
#X obj 179 158 moonlib/mknob 25 300 1 20000 1 1 empty empty 20KHz 4
32 0 8 -1625 -4032 -4032 29900 1;
#X obj 249 158 moonlib/mknob 25 100 0 1 0 1 empty empty 0% 7 32 0 8
-1625 -4032 -4032 0 1;
#X obj 289 158 moonlib/mknob 25 100 0 1 0 1 empty empty 0% 7 32 0 8
-1625 -4032 -4032 0 1;
#X obj 329 158 moonlib/mknob 25 100 0 1 0 1 empty empty 0% 7 32 0 8
-1625 -4032 -4032 0 1;
#X obj 168 42 preset_node b4p;
#X obj 187 65 preset_node b4p;
#X obj 326 42 preset_node b4p;
#X obj 349 59 preset_node b4p;
#X obj 393 94 cnv 10 10 12 empty empty ● 0 5 0 10 -1 -261234 0;
#X obj 393 216 cnv 10 10 12 empty empty ● 0 5 0 10 -1 -261234 0;
#X obj 162 16 preset_node b4p;
#X obj 128 251 s \$0-filterType;
#X obj 516 85 * 100;
#X obj 516 107 i;
#X msg 516 129 label \$1%;
#X obj 373 140 cnv 10 12 12 empty empty Res 0 5 0 10 -1625 -4032 0
;
#X obj 516 161 * 100;
#X obj 516 183 i;
#X msg 516 205 label \$1%;
#X obj 369 158 moonlib/mknob 25 100 0 1 0 1 empty empty 0% 7 32 0 8
-1625 -4032 -4032 0 1;
#X obj 361 232 s \$0-resonance;
#X obj 336 309 r \$0-resonance;
#X msg 336 331 resonance \$1;
#X obj 243 -23 route freq cv1 cv2 cv3 resonance filterType;
#X obj 355 75 preset_node b4p;
#N canvas 220 140 693 501 typeSelector 0;
#X obj 100 100 vradio 18 1 1 4 empty empty empty 0 -8 0 10 -262144
-1 -1 0;
#X obj 100 100 cnv 15 19 72 empty empty empty 20 12 0 14 -1625 -66577
0;
#X obj 103 103 cnv 10 12 12 empty \$0-lpLbl LP 0 5 0 10 -1625 -44926
0;
#X obj 100 157 cnv 10 12 12 empty \$0-ntchLbl NCH 0 5 0 10 -1625 -2209
0;
#X obj 103 121 cnv 10 12 12 empty \$0-hpLbl HP 0 5 0 10 -1625 -2209
0;
#X obj 103 139 cnv 10 12 12 empty \$0-bpLbl BP 0 5 0 10 -1625 -2209
0;
#X obj 107 200 outlet;
#X msg 216 198 color -26209 47;
#X msg 243 217 color -26209 -34945;
#X obj 215 168 sel 0;
#X obj 242 187 bng 8 250 50 0 empty empty empty 17 7 0 10 -262144 -1
-1;
#X msg 531 200 color -26209 47;
#X msg 558 219 color -26209 -34945;
#X obj 557 189 bng 8 250 50 0 empty empty empty 17 7 0 10 -262144 -1
-1;
#X msg 375 202 color -26209 47;
#X msg 402 221 color -26209 -34945;
#X obj 401 191 bng 8 250 50 0 empty empty empty 17 7 0 10 -262144 -1
-1;
#X msg 682 200 color -26209 47;
#X msg 709 219 color -26209 -34945;
#X obj 708 189 bng 8 250 50 0 empty empty empty 17 7 0 10 -262144 -1
-1;
#X obj 681 170 sel 3;
#X obj 374 172 sel 1;
#X obj 530 170 sel 2;
#X obj 105 73 inlet;
#X obj 216 239 s \$0-lpLbl;
#X obj 375 243 s \$0-hpLbl;
#X obj 531 241 s \$0-bpLbl;
#X obj 682 241 s \$0-ntchLbl;
#X connect 0 0 6 0;
#X connect 0 0 9 0;
#X connect 0 0 21 0;
#X connect 0 0 22 0;
#X connect 0 0 20 0;
#X connect 7 0 24 0;
#X connect 8 0 24 0;
#X connect 9 0 7 0;
#X connect 9 1 10 0;
#X connect 10 0 8 0;
#X connect 11 0 26 0;
#X connect 12 0 26 0;
#X connect 13 0 12 0;
#X connect 14 0 25 0;
#X connect 15 0 25 0;
#X connect 16 0 15 0;
#X connect 17 0 27 0;
#X connect 18 0 27 0;
#X connect 19 0 18 0;
#X connect 20 0 17 0;
#X connect 20 1 19 0;
#X connect 21 0 14 0;
#X connect 21 1 16 0;
#X connect 22 0 11 0;
#X connect 22 1 13 0;
#X connect 23 0 0 0;
#X coords 0 -1 1 1 19 72 2 100 100;
#X restore 218 135 pd typeSelector;
#X obj 436 309 r \$0-filterType;
#X msg 436 331 filterType \$1;
#N canvas 133 116 570 549 filter 0;
#X obj 447 -69 inlet~;
#X obj 525 -70 inlet~;
#X obj 607 -71 inlet~;
#X obj 363 427 outlet~;
#X obj 447 8 +~;
#X obj 447 33 +~;
#X obj 525 -18 *~ 0, f 5;
#X obj 607 -20 *~ 0, f 5;
#X obj 368 -69 inlet~;
#X obj 369 173 clip~ -5 5;
#X obj 369 195 /~ 5;
#X obj 391 314 *~ 5;
#X obj 475 66 ftom;
#X obj 475 86 / 12;
#X obj 448 188 mtof~;
#X obj 448 168 *~ 12;
#X obj 447 -16 *~ 0;
#X obj 475 46 r \$0-freq;
#X obj 468 -41 r \$0-cv1;
#X obj 552 -42 r \$0-cv2;
#X obj 634 -43 r \$0-cv3;
#N canvas 237 230 450 300 filter 0;
#N canvas 342 224 450 300 switch 0;
#X obj 115 76 inlet~, f 7;
#X obj 36 76 inlet;
#X obj 36 171 sel 0;
#X obj 115 108 spigot~;
#X obj 175 76 inlet~, f 7;
#X obj 175 108 spigot~;
#X obj 235 76 inlet~, f 7;
#X obj 235 108 spigot~;
#X obj 295 76 inlet~, f 7;
#X obj 295 108 spigot~;
#X msg 36 190 0, f 1;
#X msg 63 190 1, f 1;
#X msg 96 190 0, f 1;
#X msg 123 190 1, f 1;
#X msg 156 190 0, f 1;
#X msg 183 190 1, f 1;
#X msg 216 190 0, f 1;
#X msg 243 190 1, f 1;
#X obj 96 171 sel 1;
#X obj 156 171 sel 2;
#X obj 216 171 sel 3;
#X obj 184 146 outlet~;
#X connect 0 0 3 0;
#X connect 1 0 2 0;
#X connect 1 0 18 0;
#X connect 1 0 20 0;
#X connect 1 0 19 0;
#X connect 2 0 10 0;
#X connect 2 1 11 0;
#X connect 3 0 21 0;
#X connect 4 0 5 0;
#X connect 5 0 21 0;
#X connect 6 0 7 0;
#X connect 7 0 21 0;
#X connect 8 0 9 0;
#X connect 9 0 21 0;
#X connect 10 0 3 1;
#X connect 11 0 3 1;
#X connect 12 0 5 1;
#X connect 13 0 5 1;
#X connect 14 0 7 1;
#X connect 15 0 7 1;
#X connect 16 0 9 1;
#X connect 17 0 9 1;
#X connect 18 0 12 0;
#X connect 18 1 13 0;
#X connect 19 0 14 0;
#X connect 19 1 15 0;
#X connect 20 0 16 0;
#X connect 20 1 17 0;
#X restore 69 241 pd switch, f 40;
#X obj 69 273 outlet~;
#X obj 126 8 inlet~ Audio;
#X obj 215 8 inlet~ Cutoff;
#X obj 128 160 cyclone/svf~, f 30;
#X obj 305 8 inlet~ Resonance;
#X obj 57 7 inlet Type;
#X connect 0 0 1 0;
#X connect 2 0 4 0;
#X connect 3 0 4 1;
#X connect 4 0 0 1;
#X connect 4 1 0 2;
#X connect 4 2 0 3;
#X connect 4 3 0 4;
#X connect 5 0 4 2;
#X connect 6 0 0 0;
#X restore 391 267 pd filter, f 15;
#X obj 261 195 r \$0-filterType;
#X obj 557 210 r \$0-resonance;
#X obj 475 126 line~;
#X obj 448 147 +~;
#X obj 557 232 sig~;
#X msg 475 106 \$1 50;
#X obj 765 13 switch~;
#X obj 780 -31 loadbang;
#X msg 780 -9 1, f 1;
#X obj 765 -75 r \$0-bypass;
#X obj 765 -53 expr 1 - $f1;
#X text 709 34 Turn off DSP when bypassed;
#X connect 0 0 16 0;
#X connect 1 0 6 0;
#X connect 2 0 7 0;
#X connect 4 0 5 0;
#X connect 5 0 25 0;
#X connect 6 0 4 1;
#X connect 7 0 5 1;
#X connect 8 0 9 0;
#X connect 9 0 10 0;
#X connect 10 0 21 1;
#X connect 11 0 3 0;
#X connect 12 0 13 0;
#X connect 13 0 27 0;
#X connect 14 0 21 2;
#X connect 15 0 14 0;
#X connect 16 0 4 0;
#X connect 17 0 12 0;
#X connect 18 0 16 1;
#X connect 19 0 6 1;
#X connect 20 0 7 1;
#X connect 21 0 11 0;
#X connect 22 0 21 0;
#X connect 23 0 26 0;
#X connect 24 0 25 1;
#X connect 25 0 15 0;
#X connect 26 0 21 3;
#X connect 27 0 24 0;
#X connect 29 0 30 0;
#X connect 30 0 28 0;
#X connect 31 0 32 0;
#X connect 32 0 28 0;
#X restore 54 550 pd filter, f 41;
#N canvas 227 304 450 300 switch 0;
#X obj 115 76 inlet~, f 7;
#X obj 36 76 inlet;
#X obj 36 171 sel 0;
#X obj 115 108 spigot~;
#X obj 175 76 inlet~, f 7;
#X obj 175 108 spigot~;
#X msg 36 190 0, f 1;
#X msg 63 190 1, f 1;
#X msg 96 190 0, f 1;
#X msg 123 190 1, f 1;
#X obj 96 171 sel 1;
#X obj 184 146 outlet~;
#X connect 0 0 3 0;
#X connect 1 0 2 0;
#X connect 1 0 10 0;
#X connect 2 0 6 0;
#X connect 2 1 7 0;
#X connect 3 0 11 0;
#X connect 4 0 5 0;
#X connect 5 0 11 0;
#X connect 6 0 3 1;
#X connect 7 0 3 1;
#X connect 8 0 5 1;
#X connect 9 0 5 1;
#X connect 10 0 8 0;
#X connect 10 1 9 0;
#X restore 26 643 pd switch, f 10;
#X obj -30 585 r \$0-bypass;
#X connect 1 0 87 1;
#X connect 2 0 87 2;
#X connect 3 0 87 3;
#X connect 12 0 14 0;
#X connect 14 0 15 0;
#X connect 14 1 17 0;
#X connect 15 0 59 0;
#X connect 16 0 59 0;
#X connect 17 0 18 0;
#X connect 18 0 19 0;
#X connect 19 0 16 0;
#X connect 20 0 87 0;
#X connect 20 0 88 2;
#X connect 23 0 24 0;
#X connect 24 0 25 0;
#X connect 25 0 60 0;
#X connect 26 0 27 0;
#X connect 27 0 28 0;
#X connect 28 0 62 0;
#X connect 31 0 32 0;
#X connect 32 0 33 0;
#X connect 33 0 61 0;
#X connect 34 0 39 0;
#X connect 40 0 43 0;
#X connect 40 0 44 0;
#X connect 43 0 45 0;
#X connect 44 0 46 0;
#X connect 45 0 41 0;
#X connect 45 0 42 0;
#X connect 46 0 45 0;
#X connect 48 0 47 0;
#X connect 49 0 82 0;
#X connect 51 0 52 0;
#X connect 52 0 50 0;
#X connect 53 0 57 0;
#X connect 54 0 56 0;
#X connect 55 0 58 0;
#X connect 56 0 50 0;
#X connect 57 0 50 0;
#X connect 58 0 50 0;
#X connect 59 0 12 0;
#X connect 59 0 35 0;
#X connect 60 0 23 0;
#X connect 60 0 36 0;
#X connect 61 0 31 0;
#X connect 61 0 37 0;
#X connect 62 0 26 0;
#X connect 62 0 38 0;
#X connect 63 0 59 0;
#X connect 64 0 60 0;
#X connect 65 0 61 0;
#X connect 66 0 62 0;
#X connect 69 0 84 0;
#X connect 71 0 72 0;
#X connect 72 0 73 0;
#X connect 75 0 76 0;
#X connect 76 0 77 0;
#X connect 77 0 78 0;
#X connect 78 0 75 0;
#X connect 78 0 79 0;
#X connect 80 0 81 0;
#X connect 81 0 50 0;
#X connect 82 0 59 0;
#X connect 82 1 60 0;
#X connect 82 2 61 0;
#X connect 82 3 62 0;
#X connect 82 4 78 0;
#X connect 82 5 84 0;
#X connect 83 0 78 0;
#X connect 84 0 70 0;
#X connect 85 0 86 0;
#X connect 86 0 50 0;
#X connect 87 0 88 1;
#X connect 88 0 4 0;
#X connect 89 0 88 0;
#X coords 0 -1 1 1 250 143 2 161 89;
