#N canvas 356 62 679 664 10;
#X obj 100 223 cnv 15 90 20 empty \$0-dsp DSP 60 11 0 14 -1 -66577
0;
#X obj 104 227 tgl 12 0 empty \$0-dspTgl empty 17 7 0 10 -66577 -66577
-66577 0 1;
#X obj 100 142 cnv 15 90 80 empty empty empty 20 12 0 14 -1625 -66577
0;
#X obj 100 100 cnv 15 90 20 empty empty empty 20 12 0 14 -1 -66577
0;
#X obj 103 107 cnv 10 35 12 empty empty Left 0 5 0 10 -1 -261234 0
;
#X obj 158 107 cnv 10 15 12 empty empty Right 0 5 0 10 -1 -261234 0
;
#X obj 108 153 cnv 10 12 12 empty empty Volume 0 5 0 10 -1625 -4032
0;
#X obj 24 148 * 100;
#X obj 24 170 i;
#X msg 24 192 label \$1%;
#X obj 229 435 dac~;
#X obj 100 121 cnv 15 90 20 empty empty OUTPUT 5 10 0 14 -2209 -4032
0;
#X obj 121 329 inlet~;
#X obj 121 351 /~ 5;
#X obj 61 329 inlet~;
#X obj 61 351 /~ 5;
#X obj 61 415 env~;
#X obj 61 373 *~ 1;
#X obj 121 373 *~ 1;
#X obj 121 415 env~;
#X obj 61 437 - 100;
#X obj 121 437 - 100;
#N canvas 705 389 450 300 vu 0;
#X obj 99 99 cnv 15 26 62 empty empty empty 20 12 0 14 -2209 -66577
0;
#X obj 100 100 cnv 10 11 60 empty empty empty 20 12 0 14 -4032 -66577
0;
#X obj 100 100 cnv 10 11 60 empty \$0-vu1 empty 20 12 0 14 -1625 -66577
0;
#X obj 113 100 cnv 10 11 60 empty empty empty 20 12 0 14 -4032 -66577
0;
#X obj 113 100 cnv 10 11 60 empty \$0-vu2 empty 20 12 0 14 -1625 -66577
0;
#X obj 196 20 inlet;
#X obj 196 45 expr ( -$f1 + 12 ) * 60 / 112;
#X obj 196 137 s \$0-vu1;
#X obj 312 91 inlet;
#X obj 312 116 expr ( -$f1 + 12 ) * 60 / 112;
#X obj 312 208 s \$0-vu2;
#X msg 196 116 vis_size 11 \$1;
#X msg 312 187 vis_size 11 \$1;
#X connect 5 0 6 0;
#X connect 6 0 11 0;
#X connect 8 0 9 0;
#X connect 9 0 12 0;
#X connect 11 0 7 0;
#X connect 12 0 10 0;
#X coords 0 -1 1 1 25 62 2 99 99;
#X restore 151 150 pd vu;
#X obj 114 301 line;
#X msg 113 280 \$1 50;
#X obj 255 354 s \$0-dsp;
#X msg 257 336 color 22 2;
#X msg 247 315 color 22 0;
#X obj 331 356 s \$0-dspTgl;
#X msg 345 335 color 0 0 0;
#X obj 258 271 sel 0;
#X obj 285 290 bng 8 250 50 0 empty empty empty 17 7 0 10 -262144 -1
-1;
#X obj 258 145 r pd;
#X obj 258 169 route dsp;
#X msg 208 187 set \$1;
#X msg -2 274 \; pd dsp \$1;
#X obj 104 227 cnv 12 12 12 empty \$0-dspTgl empty 20 12 0 14 -66577
-66577 0;
#X msg 347 313 color 2 2 2;
#X msg 319 77 -100;
#X obj 102 255 t f f f;
#X obj 315 28 sel 0;
#X obj 319 121 line, f 9;
#X msg 319 99 \$1 500;
#X obj 317 50 delay 10;
#X msg 121 459 \$1;
#X obj 389 121 line, f 9;
#X msg 61 459 \$1;
#X obj 123 227 cnv 15 1 1 empty \$0-dspLbl 2% 5 7 0 14 -1 -66577 0
;
#X obj 485 525 cputime;
#X obj 485 420 loadbang;
#X obj 485 483 metro 1000;
#X msg 485 441 1;
#X floatatom 485 462 0 0 0 0 - - -;
#X obj 485 504 t b b;
#X obj 485 567 * 0.1;
#X obj 485 546 int;
#X obj 485 640 s \$0-dspLbl;
#X obj 370 523 sel 0;
#X obj 397 542 bng 8 250 50 0 empty empty empty 17 7 0 10 -262144 -1
-1;
#X msg 485 588 label \$1%;
#X text 369 484 DSP percentage;
#X msg 397 575 color 22 0;
#X msg 370 552 color 22 2;
#X obj 114 171 moonlib/mknob 25 500 0 1 0 1 empty empty 50% 7 32 0
8 -1625 -4032 -4032 25000 1;
#X obj 105 75 preset_node b4p;
#X connect 1 0 39 0;
#X connect 7 0 8 0;
#X connect 8 0 9 0;
#X connect 9 0 63 0;
#X connect 12 0 13 0;
#X connect 13 0 18 0;
#X connect 14 0 15 0;
#X connect 15 0 17 0;
#X connect 16 0 20 0;
#X connect 17 0 16 0;
#X connect 17 0 10 0;
#X connect 18 0 19 0;
#X connect 18 0 10 1;
#X connect 19 0 21 0;
#X connect 20 0 46 0;
#X connect 21 0 44 0;
#X connect 23 0 18 1;
#X connect 23 0 17 1;
#X connect 24 0 23 0;
#X connect 26 0 25 0;
#X connect 27 0 25 0;
#X connect 29 0 28 0;
#X connect 30 0 26 0;
#X connect 30 0 37 0;
#X connect 30 1 31 0;
#X connect 31 0 29 0;
#X connect 31 0 27 0;
#X connect 32 0 33 0;
#X connect 33 0 34 0;
#X connect 33 0 30 0;
#X connect 33 0 40 0;
#X connect 33 0 57 0;
#X connect 34 0 1 0;
#X connect 37 0 28 0;
#X connect 38 0 42 0;
#X connect 39 0 30 0;
#X connect 39 2 35 0;
#X connect 39 2 57 0;
#X connect 40 0 43 0;
#X connect 41 0 22 0;
#X connect 42 0 41 0;
#X connect 42 0 45 0;
#X connect 43 0 38 0;
#X connect 44 0 45 0;
#X connect 45 0 22 1;
#X connect 46 0 41 0;
#X connect 48 0 55 0;
#X connect 49 0 51 0;
#X connect 50 0 53 0;
#X connect 51 0 52 0;
#X connect 52 0 50 0;
#X connect 53 0 48 0;
#X connect 53 1 48 1;
#X connect 54 0 59 0;
#X connect 55 0 54 0;
#X connect 57 0 62 0;
#X connect 57 1 58 0;
#X connect 58 0 61 0;
#X connect 59 0 56 0;
#X connect 61 0 56 0;
#X connect 62 0 56 0;
#X connect 63 0 7 0;
#X connect 63 0 24 0;
#X connect 64 0 63 0;
#X coords 0 -1 1 1 90 143 2 100 100;
