#N canvas 451 50 957 664 10;
#X obj 161 131 cnv 15 320 80 empty empty empty 20 12 0 14 -1625 -66577
0;
#X obj 32 577 +~;
#X obj 32 602 +~;
#X obj 32 624 *~ 12;
#X obj 101 552 *~ 0, f 5;
#X obj 215 551 *~ 0, f 5;
#X obj 161 212 cnv 15 320 20 empty empty empty 20 12 0 14 -1 -66577
0;
#X obj 164 217 cnv 10 35 12 empty empty Output 0 5 0 10 -1 -261234
0;
#X obj 161 89 cnv 15 320 20 empty empty empty 20 12 0 14 -1 -66577
0;
#X obj 164 96 cnv 10 35 12 empty empty CV1 0 5 0 10 -1 -261234 0;
#X obj 218 96 cnv 10 35 12 empty empty CV2 0 5 0 10 -1 -261234 0;
#X obj 281 96 cnv 10 35 12 empty empty CV3 0 5 0 10 -1 -261234 0;
#X obj 343 96 cnv 10 10 12 empty empty Lin 0 5 0 10 -1 -261234 0;
#X obj 225 145 cnv 15 12 12 empty empty CV2 0 5 0 10 -1625 -4032 0
;
#X obj 225 166 cnv 15 12 12 empty empty CV3 0 5 0 10 -1625 -4032 0
;
#X obj 225 187 cnv 15 12 12 empty empty Lin 0 5 0 10 -1625 -4032 0
;
#X obj 175 140 cnv 10 12 12 empty empty Offset 0 5 0 10 -1625 -4032
0;
#X obj 90 132 * 100;
#X obj 90 154 i;
#X msg 90 176 label \$1%;
#X obj 161 110 cnv 15 320 20 empty empty GRAIN 5 10 0 14 -2209 -4032
0;
#X obj 32 676 +~;
#X obj 141 616 - 0.5;
#X obj 141 638 * 24;
#X obj 32 964 lop~ 10000;
#X obj 32 698 mtof~;
#X obj 32 748 *~;
#X obj 344 558 clip~ 0 100;
#X obj 345 662 expr~ 1 + $v1 * $f2 + ( 1 - $f2 ), f 17;
#N canvas 161 139 450 300 mute 0;
#X obj 100 100 tgl 15 1 empty empty empty 17 7 0 10 -262144 -1 -1 0
1;
#X obj 100 100 cnv 15 50 15 empty empty empty 20 12 0 14 -2209 -66577
0;
#X obj 100 100 cnv 15 15 15 empty \$0-muteCnv Mute 20 7 0 12 -1625
-166441 0;
#X obj 153 243 s \$0-muteCnv;
#X obj 80 159 tgl 15 0 empty empty empty 17 7 0 10 -262144 -1 -1 0
1;
#X obj 153 135 sel 0;
#X obj 180 154 bng 8 250 50 0 empty empty empty 17 7 0 10 -262144 -1
-1;
#X obj 62 247 outlet;
#X msg 153 181 color -26209 1;
#X msg 180 206 color 47 47;
#X obj 48 177 expr 1 - $f1;
#X connect 0 0 5 0;
#X connect 0 0 4 0;
#X connect 0 0 10 0;
#X connect 5 0 8 0;
#X connect 5 1 6 0;
#X connect 6 0 9 0;
#X connect 8 0 3 0;
#X connect 9 0 3 0;
#X connect 10 0 7 0;
#X coords 0 -1 1 1 50 15 2 100 100;
#X restore 424 112 pd mute;
#X obj 132 989 line;
#X msg 132 969 \$1 10;
#X obj 132 1009 sig~;
#X obj 32 1037 *~;
#X obj 132 949 * 5;
#N canvas 194 269 450 300 miniSlider 0;
#X obj 100 100 hsl 30 16 0 1 0 0 empty empty 0% 8 7 0 8 -33289 -4032
-4032 0 1;
#X obj 100 100 cnv 15 35 16 empty empty empty 20 12 0 14 -33289 -66577
0;
#X obj 100 100 cnv 1 1 16 empty \$0-sliderCV1 0% 10 7 0 10 -4032 -66577
0;
#X msg 177 141 label \$1%;
#X obj 176 99 * 100;
#X obj 176 121 i;
#X obj 99 146 outlet;
#X obj 97 36 inlet;
#X floatatom 273 122 5 0 0 0 - - -, f 5;
#X obj 257 88 * 35;
#X msg 270 154 vis_size \$1 16;
#X obj 271 189 s \$0-sliderCV1;
#X connect 0 0 4 0;
#X connect 0 0 6 0;
#X connect 0 0 9 0;
#X connect 3 0 11 0;
#X connect 4 0 5 0;
#X connect 5 0 3 0;
#X connect 7 0 0 0;
#X connect 8 0 10 0;
#X connect 9 0 10 0;
#X connect 10 0 11 0;
#X coords 0 -1 1 1 35 15 2 100 100;
#X restore 245 142 pd miniSlider;
#N canvas 194 269 450 300 miniSlider 0;
#X obj 100 100 hsl 30 16 0 1 0 0 empty empty 0% 8 7 0 8 -33289 -4032
-4032 0 1;
#X obj 100 100 cnv 15 35 16 empty empty empty 20 12 0 14 -33289 -66577
0;
#X obj 100 100 cnv 1 1 16 empty \$0-sliderCV2 0% 10 7 0 10 -4032 -66577
0;
#X msg 177 141 label \$1%;
#X obj 176 99 * 100;
#X obj 176 121 i;
#X obj 99 146 outlet;
#X obj 97 36 inlet;
#X floatatom 273 122 5 0 0 0 - - -, f 5;
#X obj 257 88 * 35;
#X msg 270 154 vis_size \$1 16;
#X obj 271 189 s \$0-sliderCV2;
#X connect 0 0 4 0;
#X connect 0 0 6 0;
#X connect 0 0 9 0;
#X connect 3 0 11 0;
#X connect 4 0 5 0;
#X connect 5 0 3 0;
#X connect 7 0 0 0;
#X connect 8 0 10 0;
#X connect 9 0 10 0;
#X connect 10 0 11 0;
#X coords 0 -1 1 1 35 15 2 100 100;
#X restore 245 163 pd miniSlider;
#N canvas 194 269 450 300 miniSlider 0;
#X obj 100 100 hsl 30 16 0 1 0 0 empty empty 0% 8 7 0 8 -33289 -4032
-4032 0 1;
#X obj 100 100 cnv 15 35 16 empty empty empty 20 12 0 14 -33289 -66577
0;
#X obj 100 100 cnv 1 1 16 empty \$0-sliderLin 0% 10 7 0 10 -4032 -66577
0;
#X msg 177 141 label \$1%;
#X obj 176 99 * 100;
#X obj 176 121 i;
#X obj 99 146 outlet;
#X obj 97 36 inlet;
#X floatatom 273 122 5 0 0 0 - - -, f 5;
#X obj 257 88 * 35;
#X msg 270 154 vis_size \$1 16;
#X obj 271 189 s \$0-sliderLin;
#X connect 0 0 4 0;
#X connect 0 0 6 0;
#X connect 0 0 9 0;
#X connect 3 0 11 0;
#X connect 4 0 5 0;
#X connect 5 0 3 0;
#X connect 7 0 0 0;
#X connect 8 0 10 0;
#X connect 9 0 10 0;
#X connect 10 0 11 0;
#X coords 0 -1 1 1 35 15 2 100 100;
#X restore 245 184 pd miniSlider;
#X obj 82 240 s \$0-offset;
#X obj 141 595 r \$0-offset;
#X obj 167 238 s \$0-cv2Atten;
#X obj 128 531 r \$0-cv2Atten;
#X obj 194 258 s \$0-cv3Atten;
#X obj 242 531 r \$0-cv3Atten;
#X obj 252 238 s \$0-linAtten;
#X obj 444 640 r \$0-linAtten;
#X obj 132 928 r \$0-mute;
#X obj 104 277 s \$0-octCounter;
#X obj 232 595 r \$0-octCounter;
#X obj 232 660 pow, f 5;
#X obj 232 618 t b f;
#X msg 232 640 2, f 1;
#X obj 32 720 *~;
#X obj 180 158 moonlib/mknob 25 500 0 1 0 1 empty empty 50% 7 32 0
8 -1625 -4032 -4032 24950 1;
#X obj 624 966 outlet;
#X obj 258 446 s \$0-toSlave;
#X obj 624 923 r \$0-toSlave;
#X obj 623 509 inlet;
#X obj 703 613 s \$0-fromMaster;
#X obj 623 613 s \$0-toSlave;
#X obj 623 561 prepent set;
#X obj 697 551 bng 8 250 50 0 empty empty empty 17 7 0 10 -262144 -1
-1;
#X msg 129 356 cv2Atten \$1;
#X obj 182 -56 r \$0-fromMaster;
#X msg 215 357 cv3Atten \$1;
#X msg 302 357 linAtten \$1;
#X obj 128 334 r \$0-cv2Atten;
#X obj 215 334 r \$0-cv3Atten;
#X obj 302 334 r \$0-linAtten;
#X msg 49 356 offset \$1;
#X obj 49 334 r \$0-offset;
#X obj 390 334 r \$0-octCounter;
#X msg 390 355 octave \$1;
#X obj 137 32 preset_node b4p;
#X obj 168 54 preset_node b4p;
#X obj 194 73 preset_node b4p;
#X obj 238 31 preset_node b4p;
#N canvas 745 157 450 300 octaveController 0;
#N canvas 333 253 450 300 counter 0;
#X obj 136 155 i;
#X obj 164 155 + 1;
#X msg 179 133 1;
#X msg 201 106 -1;
#X obj 165 84 t b b b;
#X obj 141 107 t b b b;
#X obj 199 35 inlet;
#X obj 133 47 inlet;
#X obj 135 200 outlet;
#X obj 22 121 loadbang;
#X msg 22 143 0;
#X obj 91 71 route set;
#X msg 91 93 \$1;
#X connect 0 0 1 0;
#X connect 0 0 8 0;
#X connect 1 0 0 1;
#X connect 2 0 1 1;
#X connect 3 0 1 1;
#X connect 4 0 0 0;
#X connect 4 1 1 0;
#X connect 4 2 3 0;
#X connect 5 0 0 0;
#X connect 5 1 1 0;
#X connect 5 2 2 0;
#X connect 6 0 4 0;
#X connect 7 0 11 0;
#X connect 9 0 10 0;
#X connect 10 0 0 0;
#X connect 11 0 12 0;
#X connect 11 1 5 0;
#X connect 12 0 0 0;
#X restore 110 183 pd counter;
#X obj 104 338 s \$0-octLbl;
#X obj 104 214 < 0;
#X obj 104 236 sel 1;
#X msg 131 315 label +\$1oct;
#X msg 104 288 label \$1oct;
#X obj 104 263 i;
#X obj 131 266 i;
#X obj 131 255 bng 8 250 50 0 empty empty empty 17 7 0 10 -262144 -1
-1;
#N canvas 623 335 450 300 mute 0;
#X obj 100 100 bng 19 250 50 0 empty empty empty 17 7 0 10 -262144
-1 -1;
#X obj 100 100 cnv 19 19 19 empty \$0-plusCnv + 5 8 0 16 -1625 -44926
0;
#X obj 61 152 outlet;
#X obj 100 124 bng 15 250 50 0 empty empty empty 17 7 0 10 -262144
-1 -1;
#X obj 185 134 sel 0;
#X obj 212 153 bng 8 250 50 0 empty empty empty 17 7 0 10 -262144 -1
-1;
#X obj 185 242 s \$0-plusCnv;
#X obj 105 168 delay 100;
#X msg 185 180 color -26209 47;
#X msg 212 205 color 47 0;
#X connect 0 0 3 0;
#X connect 0 0 2 0;
#X connect 3 0 9 0;
#X connect 3 0 7 0;
#X connect 4 0 8 0;
#X connect 4 1 5 0;
#X connect 5 0 9 0;
#X connect 7 0 8 0;
#X connect 8 0 6 0;
#X connect 9 0 6 0;
#X coords 0 -1 1 1 19 19 2 100 100;
#X restore 100 100 pd mute;
#N canvas 627 110 450 300 mute 0;
#X obj 100 100 bng 19 250 50 0 empty empty empty 17 7 0 10 -262144
-1 -1;
#X obj 100 100 cnv 19 19 19 empty \$0-minusCnv - 5 8 0 17 -1625 -44926
0;
#X obj 61 152 outlet;
#X obj 100 124 bng 15 250 50 0 empty empty empty 17 7 0 10 -262144
-1 -1;
#X obj 208 126 sel 0;
#X obj 235 145 bng 8 250 50 0 empty empty empty 17 7 0 10 -262144 -1
-1;
#X obj 128 160 delay 100;
#X obj 208 234 s \$0-minusCnv;
#X msg 208 171 color -26209 47;
#X msg 235 197 color 47 0;
#X connect 0 0 3 0;
#X connect 0 0 2 0;
#X connect 3 0 6 0;
#X connect 3 0 9 0;
#X connect 4 0 8 0;
#X connect 4 1 5 0;
#X connect 5 0 9 0;
#X connect 6 0 8 0;
#X connect 8 0 7 0;
#X connect 9 0 7 0;
#X coords 0 -1 1 1 19 19 2 100 100;
#X restore 151 100 pd mute;
#X obj 120 100 cnv 19 30 19 empty \$0-octLbl +0oct 0 8 0 10 -1625 -4032
0;
#X obj 23 80 inlet;
#X obj 18 338 outlet;
#X msg 23 102 set \$1;
#X connect 0 0 6 1;
#X connect 0 0 7 1;
#X connect 0 0 2 0;
#X connect 0 0 13 0;
#X connect 2 0 3 0;
#X connect 3 0 6 0;
#X connect 3 1 8 0;
#X connect 4 0 1 0;
#X connect 5 0 1 0;
#X connect 6 0 5 0;
#X connect 7 0 4 0;
#X connect 8 0 7 0;
#X connect 9 0 0 0;
#X connect 10 0 0 1;
#X connect 12 0 14 0;
#X connect 14 0 0 0;
#X coords 0 -1 1 1 70 19 2 100 100;
#X restore 223 116 pd octaveController;
#X obj 293 72 preset_node b4p;
#X obj 463 216 cnv 10 10 12 empty \$0-slaveMessage ● 0 5 0 10 -1
-262144 0;
#X obj 31 508 inlet~ CV1;
#X obj 101 508 inlet~ CV2;
#X obj 215 508 inlet~ CV3;
#X obj 344 508 inlet~ Lin;
#X obj 32 1062 outlet~ Output;
#X obj 271 52 preset_node b4p;
#N canvas 834 353 450 300 open 0;
#X obj 100 100 bng 16 250 50 0 empty empty empty 17 7 0 10 -262144
-1 -1;
#X obj 116 100 bng 16 250 50 0 empty empty empty 17 7 0 10 -262144
-1 -1;
#X obj 129 100 bng 16 250 50 0 empty empty empty 17 7 0 10 -262144
-1 -1;
#X obj 100 100 cnv 15 45 17 empty \$0-openCnv OPEN 8 7 0 12 -1625 -44926
0;
#X obj 180 160 s \$0-openCnv;
#X msg 181 116 color 47 0;
#X msg 254 138 color -26209 47;
#X obj 253 116 delay 100;
#X obj 95 221 openpanel;
#X obj 94 264 soundfiler;
#X msg 94 242 read -resize \$1 \$0-grain;
#X obj 261 286 outlet fileName;
#X obj 94 286 outlet sampleSize;
#X obj 78 51 inlet bang;
#X obj 181 22 inlet fileName;
#X obj 181 44 symbol;
#X connect 0 0 5 0;
#X connect 0 0 7 0;
#X connect 0 0 8 0;
#X connect 1 0 5 0;
#X connect 1 0 7 0;
#X connect 1 0 8 0;
#X connect 2 0 5 0;
#X connect 2 0 7 0;
#X connect 2 0 8 0;
#X connect 5 0 4 0;
#X connect 6 0 4 0;
#X connect 7 0 6 0;
#X connect 8 0 10 0;
#X connect 8 0 11 0;
#X connect 9 0 12 0;
#X connect 10 0 9 0;
#X connect 13 0 8 0;
#X connect 14 0 15 0;
#X connect 15 0 10 0;
#X coords 0 -1 1 1 45 17 2 100 100;
#X restore 301 116 pd open;
#X obj 303 267 s \$0-initPoint;
#X obj 137 830 r \$0-initPoint;
#N canvas 910 192 369 356 grainOscillator 0;
#X obj 211 237 expr~ $v1 + $v2 + $v3 + $v4 + $v5, f 48;
#X obj 239 -51 inlet~ frequency;
#X obj 453 -51 inlet initPoint;
#X obj 211 259 outlet~;
#X obj 240 -6 /~ 12;
#X obj 239 -29 ftom~;
#N canvas 767 47 540 633 grain~ 0;
#X obj 514 -46 inlet play;
#X obj 72 340 outlet~;
#X obj 72 60 phasor~;
#X obj 175 131 *~ 1024;
#X obj 72 303 *~;
#X msg 111 37 0;
#X obj 482 276 >~ 0.2;
#X obj 482 298 edge~;
#X obj 482 334 outlet playNext;
#X obj 515 47 random 100;
#X obj 515 91 + 0.1;
#X obj 515 69 / 500;
#X obj 254 -46 inlet initPoint;
#X obj 72 184 +~;
#X obj 72 -46 inlet~ speed;
#X obj 72 255 tabread4~ \$0-grain;
#X obj 175 205 tabread4~ \$0-window;
#X obj 154 -46 inlet grainSize;
#X obj 72 29 *~;
#X obj 87 6 expr 44100 / $f1;
#X obj 73 112 *~;
#X msg 154 38 \$1 5;
#X obj 154 60 vline~;
#X obj 354 -46 inlet reverse;
#X obj 72 -21 *~;
#X obj 311 80 expr~ 1 - $v1;
#X obj 311 162 spigot~;
#X obj 357 112 sel -1 1;
#X msg 357 134 0, f 1;
#X msg 379 134 1, f 1;
#X obj 371 162 spigot~;
#X obj 311 194 +~, f 17;
#X connect 0 0 5 0;
#X connect 0 0 9 0;
#X connect 2 0 3 0;
#X connect 2 0 20 0;
#X connect 2 0 25 0;
#X connect 2 0 30 0;
#X connect 3 0 16 0;
#X connect 4 0 1 0;
#X connect 5 0 2 1;
#X connect 6 0 7 0;
#X connect 7 0 8 0;
#X connect 9 0 11 0;
#X connect 10 0 6 1;
#X connect 11 0 10 0;
#X connect 12 0 13 1;
#X connect 13 0 15 0;
#X connect 14 0 24 0;
#X connect 15 0 4 0;
#X connect 16 0 4 1;
#X connect 17 0 19 0;
#X connect 17 0 21 0;
#X connect 18 0 2 0;
#X connect 19 0 18 1;
#X connect 20 0 13 0;
#X connect 21 0 22 0;
#X connect 22 0 20 1;
#X connect 23 0 24 1;
#X connect 23 0 27 0;
#X connect 24 0 18 0;
#X connect 25 0 26 0;
#X connect 26 0 31 0;
#X connect 27 0 28 0;
#X connect 27 1 29 0;
#X connect 28 0 26 1;
#X connect 28 0 30 1;
#X connect 29 0 26 1;
#X connect 29 0 30 1;
#X connect 30 1 31 1;
#X connect 31 0 6 0;
#X restore 210 139 pd grain~;
#X obj 240 16 -~ 5;
#X obj 210 57 loadbang;
#X msg 210 79 2, f 1;
#X obj 210 101 pow~, f 5;
#X obj 349 -51 inlet grainSize;
#X obj 556 -51 inlet reverse;
#N canvas 767 47 540 633 grain~ 0;
#X obj 514 -46 inlet play;
#X obj 72 340 outlet~;
#X obj 72 60 phasor~;
#X obj 175 131 *~ 1024;
#X obj 72 303 *~;
#X msg 111 37 0;
#X obj 482 276 >~ 0.2;
#X obj 482 298 edge~;
#X obj 482 334 outlet playNext;
#X obj 515 47 random 100;
#X obj 515 91 + 0.1;
#X obj 515 69 / 500;
#X obj 254 -46 inlet initPoint;
#X obj 72 184 +~;
#X obj 72 -46 inlet~ speed;
#X obj 72 255 tabread4~ \$0-grain;
#X obj 175 205 tabread4~ \$0-window;
#X obj 154 -46 inlet grainSize;
#X obj 72 29 *~;
#X obj 87 6 expr 44100 / $f1;
#X obj 73 112 *~;
#X msg 154 38 \$1 5;
#X obj 154 60 vline~;
#X obj 354 -46 inlet reverse;
#X obj 72 -21 *~;
#X obj 311 80 expr~ 1 - $v1;
#X obj 311 162 spigot~;
#X obj 357 112 sel -1 1;
#X msg 357 134 0, f 1;
#X msg 379 134 1, f 1;
#X obj 371 162 spigot~;
#X obj 311 194 +~, f 17;
#X connect 0 0 5 0;
#X connect 0 0 9 0;
#X connect 2 0 3 0;
#X connect 2 0 20 0;
#X connect 2 0 25 0;
#X connect 2 0 30 0;
#X connect 3 0 16 0;
#X connect 4 0 1 0;
#X connect 5 0 2 1;
#X connect 6 0 7 0;
#X connect 7 0 8 0;
#X connect 9 0 11 0;
#X connect 10 0 6 1;
#X connect 11 0 10 0;
#X connect 12 0 13 1;
#X connect 13 0 15 0;
#X connect 14 0 24 0;
#X connect 15 0 4 0;
#X connect 16 0 4 1;
#X connect 17 0 19 0;
#X connect 17 0 21 0;
#X connect 18 0 2 0;
#X connect 19 0 18 1;
#X connect 20 0 13 0;
#X connect 21 0 22 0;
#X connect 22 0 20 1;
#X connect 23 0 24 1;
#X connect 23 0 27 0;
#X connect 24 0 18 0;
#X connect 25 0 26 0;
#X connect 26 0 31 0;
#X connect 27 0 28 0;
#X connect 27 1 29 0;
#X connect 28 0 26 1;
#X connect 28 0 30 1;
#X connect 29 0 26 1;
#X connect 29 0 30 1;
#X connect 30 1 31 1;
#X connect 31 0 6 0;
#X restore 280 139 pd grain~;
#N canvas 767 47 540 633 grain~ 0;
#X obj 514 -46 inlet play;
#X obj 72 340 outlet~;
#X obj 72 60 phasor~;
#X obj 175 131 *~ 1024;
#X obj 72 303 *~;
#X msg 111 37 0;
#X obj 482 276 >~ 0.2;
#X obj 482 298 edge~;
#X obj 482 334 outlet playNext;
#X obj 515 47 random 100;
#X obj 515 91 + 0.1;
#X obj 515 69 / 500;
#X obj 254 -46 inlet initPoint;
#X obj 72 184 +~;
#X obj 72 -46 inlet~ speed;
#X obj 72 255 tabread4~ \$0-grain;
#X obj 175 205 tabread4~ \$0-window;
#X obj 154 -46 inlet grainSize;
#X obj 72 29 *~;
#X obj 87 6 expr 44100 / $f1;
#X obj 73 112 *~;
#X msg 154 38 \$1 5;
#X obj 154 60 vline~;
#X obj 354 -46 inlet reverse;
#X obj 72 -21 *~;
#X obj 311 80 expr~ 1 - $v1;
#X obj 311 162 spigot~;
#X obj 357 112 sel -1 1;
#X msg 357 134 0, f 1;
#X msg 379 134 1, f 1;
#X obj 371 162 spigot~;
#X obj 311 194 +~, f 17;
#X connect 0 0 5 0;
#X connect 0 0 9 0;
#X connect 2 0 3 0;
#X connect 2 0 20 0;
#X connect 2 0 25 0;
#X connect 2 0 30 0;
#X connect 3 0 16 0;
#X connect 4 0 1 0;
#X connect 5 0 2 1;
#X connect 6 0 7 0;
#X connect 7 0 8 0;
#X connect 9 0 11 0;
#X connect 10 0 6 1;
#X connect 11 0 10 0;
#X connect 12 0 13 1;
#X connect 13 0 15 0;
#X connect 14 0 24 0;
#X connect 15 0 4 0;
#X connect 16 0 4 1;
#X connect 17 0 19 0;
#X connect 17 0 21 0;
#X connect 18 0 2 0;
#X connect 19 0 18 1;
#X connect 20 0 13 0;
#X connect 21 0 22 0;
#X connect 22 0 20 1;
#X connect 23 0 24 1;
#X connect 23 0 27 0;
#X connect 24 0 18 0;
#X connect 25 0 26 0;
#X connect 26 0 31 0;
#X connect 27 0 28 0;
#X connect 27 1 29 0;
#X connect 28 0 26 1;
#X connect 28 0 30 1;
#X connect 29 0 26 1;
#X connect 29 0 30 1;
#X connect 30 1 31 1;
#X connect 31 0 6 0;
#X restore 350 139 pd grain~;
#N canvas 767 47 540 633 grain~ 0;
#X obj 514 -46 inlet play;
#X obj 72 340 outlet~;
#X obj 72 60 phasor~;
#X obj 175 131 *~ 1024;
#X obj 72 303 *~;
#X msg 111 37 0;
#X obj 482 276 >~ 0.2;
#X obj 482 298 edge~;
#X obj 482 334 outlet playNext;
#X obj 515 47 random 100;
#X obj 515 91 + 0.1;
#X obj 515 69 / 500;
#X obj 254 -46 inlet initPoint;
#X obj 72 184 +~;
#X obj 72 -46 inlet~ speed;
#X obj 72 255 tabread4~ \$0-grain;
#X obj 175 205 tabread4~ \$0-window;
#X obj 154 -46 inlet grainSize;
#X obj 72 29 *~;
#X obj 87 6 expr 44100 / $f1;
#X obj 73 112 *~;
#X msg 154 38 \$1 5;
#X obj 154 60 vline~;
#X obj 354 -46 inlet reverse;
#X obj 72 -21 *~;
#X obj 311 80 expr~ 1 - $v1;
#X obj 311 162 spigot~;
#X obj 357 112 sel -1 1;
#X msg 357 134 0, f 1;
#X msg 379 134 1, f 1;
#X obj 371 162 spigot~;
#X obj 311 194 +~, f 17;
#X connect 0 0 5 0;
#X connect 0 0 9 0;
#X connect 2 0 3 0;
#X connect 2 0 20 0;
#X connect 2 0 25 0;
#X connect 2 0 30 0;
#X connect 3 0 16 0;
#X connect 4 0 1 0;
#X connect 5 0 2 1;
#X connect 6 0 7 0;
#X connect 7 0 8 0;
#X connect 9 0 11 0;
#X connect 10 0 6 1;
#X connect 11 0 10 0;
#X connect 12 0 13 1;
#X connect 13 0 15 0;
#X connect 14 0 24 0;
#X connect 15 0 4 0;
#X connect 16 0 4 1;
#X connect 17 0 19 0;
#X connect 17 0 21 0;
#X connect 18 0 2 0;
#X connect 19 0 18 1;
#X connect 20 0 13 0;
#X connect 21 0 22 0;
#X connect 22 0 20 1;
#X connect 23 0 24 1;
#X connect 23 0 27 0;
#X connect 24 0 18 0;
#X connect 25 0 26 0;
#X connect 26 0 31 0;
#X connect 27 0 28 0;
#X connect 27 1 29 0;
#X connect 28 0 26 1;
#X connect 28 0 30 1;
#X connect 29 0 26 1;
#X connect 29 0 30 1;
#X connect 30 1 31 1;
#X connect 31 0 6 0;
#X restore 420 139 pd grain~;
#N canvas 767 47 540 633 grain~ 0;
#X obj 514 -46 inlet play;
#X obj 72 340 outlet~;
#X obj 72 60 phasor~;
#X obj 175 131 *~ 1024;
#X obj 72 303 *~;
#X msg 111 37 0;
#X obj 482 276 >~ 0.2;
#X obj 482 298 edge~;
#X obj 482 334 outlet playNext;
#X obj 515 47 random 100;
#X obj 515 91 + 0.1;
#X obj 515 69 / 500;
#X obj 254 -46 inlet initPoint;
#X obj 72 184 +~;
#X obj 72 -46 inlet~ speed;
#X obj 72 255 tabread4~ \$0-grain;
#X obj 175 205 tabread4~ \$0-window;
#X obj 154 -46 inlet grainSize;
#X obj 72 29 *~;
#X obj 87 6 expr 44100 / $f1;
#X obj 73 112 *~;
#X msg 154 38 \$1 5;
#X obj 154 60 vline~;
#X obj 354 -46 inlet reverse;
#X obj 72 -21 *~;
#X obj 311 80 expr~ 1 - $v1;
#X obj 311 162 spigot~;
#X obj 357 112 sel -1 1;
#X msg 357 134 0, f 1;
#X msg 379 134 1, f 1;
#X obj 371 162 spigot~;
#X obj 311 194 +~, f 17;
#X connect 0 0 5 0;
#X connect 0 0 9 0;
#X connect 2 0 3 0;
#X connect 2 0 20 0;
#X connect 2 0 25 0;
#X connect 2 0 30 0;
#X connect 3 0 16 0;
#X connect 4 0 1 0;
#X connect 5 0 2 1;
#X connect 6 0 7 0;
#X connect 7 0 8 0;
#X connect 9 0 11 0;
#X connect 10 0 6 1;
#X connect 11 0 10 0;
#X connect 12 0 13 1;
#X connect 13 0 15 0;
#X connect 14 0 24 0;
#X connect 15 0 4 0;
#X connect 16 0 4 1;
#X connect 17 0 19 0;
#X connect 17 0 21 0;
#X connect 18 0 2 0;
#X connect 19 0 18 1;
#X connect 20 0 13 0;
#X connect 21 0 22 0;
#X connect 22 0 20 1;
#X connect 23 0 24 1;
#X connect 23 0 27 0;
#X connect 24 0 18 0;
#X connect 25 0 26 0;
#X connect 26 0 31 0;
#X connect 27 0 28 0;
#X connect 27 1 29 0;
#X connect 28 0 26 1;
#X connect 28 0 30 1;
#X connect 29 0 26 1;
#X connect 29 0 30 1;
#X connect 30 1 31 1;
#X connect 31 0 6 0;
#X restore 490 139 pd grain~;
#X connect 0 0 3 0;
#X connect 1 0 5 0;
#X connect 2 0 6 2;
#X connect 2 0 13 2;
#X connect 2 0 16 2;
#X connect 2 0 15 2;
#X connect 2 0 14 2;
#X connect 4 0 7 0;
#X connect 5 0 4 0;
#X connect 6 0 0 0;
#X connect 6 1 13 4;
#X connect 7 0 10 1;
#X connect 8 0 9 0;
#X connect 9 0 10 0;
#X connect 10 0 6 0;
#X connect 10 0 13 0;
#X connect 10 0 16 0;
#X connect 10 0 15 0;
#X connect 10 0 14 0;
#X connect 11 0 6 1;
#X connect 11 0 13 1;
#X connect 11 0 16 1;
#X connect 11 0 15 1;
#X connect 11 0 14 1;
#X connect 12 0 6 3;
#X connect 12 0 13 3;
#X connect 12 0 16 3;
#X connect 12 0 15 3;
#X connect 12 0 14 3;
#X connect 13 0 0 1;
#X connect 13 1 14 4;
#X connect 14 0 0 2;
#X connect 14 1 15 4;
#X connect 15 0 0 3;
#X connect 15 1 16 4;
#X connect 16 0 0 4;
#X restore 31 877 pd grainOscillator, f 27;
#N canvas 136 158 450 300 grainViewer 0;
#N canvas 433 184 450 300 (subpatch) 0;
#X array \$0-grain 1.99475e+06 float 2 black #00d3ff;
#X coords 0 1 1.99475e+06 -1 120 58 1;
#X restore 100 100 graph;
#X obj 100 100 hsl 115 58 0 1 0 0 empty empty empty -2 -8 0 10 -1625
-2209 -1 0 0;
#X obj 97 56 /, f 2;
#X msg 97 78 set \$1;
#X obj 102 222 *;
#X obj 88 -46 inlet initPoint;
#X obj 236 -50 inlet sampleSize;
#X obj 104 245 outlet initPoint;
#X obj 295 45 table \$0-window;
#N canvas 49 149 450 300 initWindow 0;
#X obj 253 145 s \$0-window;
#X obj 183 63 loadbang;
#X msg 183 117 1, f 1;
#X obj 181 224 i;
#X obj 218 225 +;
#X msg 211 191 1, f 1;
#X obj 183 160 t b b;
#X msg 203 117 0, f 1;
#X obj 262 264 sel 1;
#X msg 141 194 0;
#X obj 173 258 moses 512;
#X obj 183 139 metro 1;
#X obj 262 242 >= 1023;
#X obj 135 332 tabwrite \$0-window;
#X obj 129 247 t f f;
#X obj 173 280 / 511;
#X obj 210 283 expr ( 1023 - $f1 ) / 511;
#X msg 252 123 resize 1024;
#X obj 183 85 t b b;
#X connect 1 0 18 0;
#X connect 2 0 11 0;
#X connect 3 0 4 0;
#X connect 3 0 12 0;
#X connect 3 0 14 0;
#X connect 4 0 3 1;
#X connect 5 0 4 1;
#X connect 6 0 3 0;
#X connect 6 1 5 0;
#X connect 7 0 11 0;
#X connect 8 0 7 0;
#X connect 9 0 3 0;
#X connect 10 0 15 0;
#X connect 10 1 16 0;
#X connect 11 0 6 0;
#X connect 12 0 8 0;
#X connect 14 0 10 0;
#X connect 14 1 13 1;
#X connect 15 0 13 0;
#X connect 16 0 13 0;
#X connect 17 0 0 0;
#X connect 18 0 2 0;
#X connect 18 1 17 0;
#X restore 296 27 pd initWindow;
#X connect 1 0 4 0;
#X connect 2 0 3 0;
#X connect 3 0 1 0;
#X connect 4 0 7 0;
#X connect 5 0 2 0;
#X connect 6 0 2 1;
#X connect 6 0 4 1;
#X coords 0 -1 1 1 120 58 2 100 100;
#X restore 301 142 pd grainViewer;
#X obj 463 94 cnv 10 10 12 empty \$0-slaveMessage ● 0 5 0 10 -1 -262144
0;
#X obj 438 140 cnv 10 12 12 empty empty Size 0 5 0 10 -1625 -4032 0
;
#X obj 438 158 moonlib/mknob 25 500 0 1 0 1 empty empty empty 7 32
0 8 -1625 -4032 -4032 8300 1;
#X obj 501 225 s \$0-grainSize;
#X obj 273 286 s \$0-sampleSize;
#X obj 164 763 r \$0-sampleSize;
#X obj 83 809 expr $f1 * $f2;
#X obj 83 786 bondo 2, f 14;
#X obj 83 743 r \$0-grainSize;
#X obj 501 183 / 10;
#X obj 438 72 preset_node b4p;
#X obj 501 205 + 0.0005;
#X msg 490 334 grainSize \$1;
#X obj 496 127 s \$0-mute;
#X obj 494 508 inlet~ InitPoint;
#X obj 385 96 cnv 10 10 12 empty empty Init\ Point 0 5 0 10 -1 -261234
0;
#X obj 494 530 Snapshot~ 10;
#X obj 494 575 / 5;
#X obj 494 597 s \$0-initPointCV;
#X obj 562 25 r \$0-initPointCV;
#X obj 562 77 *;
#X obj 577 51 r \$0-sampleSize;
#X obj 588 125 s \$0-initPoint;
#X obj 342 238 s \$0-fileName;
#X obj 575 334 r \$0-fileName;
#X msg 575 356 fileName \$1;
#X obj 691 284 r \$0-sampleSize;
#X obj 676 340 /;
#X msg 676 362 initPoint \$1;
#X msg 623 585;
#X obj 494 552 change;
#X msg 739 334 1;
#X obj 739 312 loadbang;
#X text 767 334 Avoiding zero div.;
#X obj 697 561 delay 1;
#N canvas 713 169 645 499 directionSelector 0;
#X obj 100 -28 inlet;
#X msg 100 16 1, f 1;
#X msg 120 16 1, f 1;
#X obj 100 204 sel 1;
#X msg 100 226 0, f 1;
#X obj 140 204 sel 1;
#X msg 140 226 0, f 1;
#X obj 98 273 outlet;
#X msg 159 226 1, f 1;
#X obj 100 100 bng 17 250 50 0 empty empty empty 17 7 0 10 -262144
-1 -1;
#X obj 98 165 tgl 19 0 empty empty empty 17 7 0 10 -262144 -1 -1 0
1;
#X obj 21 282 sel 0;
#X obj 48 301 bng 8 250 50 0 empty empty empty 17 7 0 10 -262144 -1
-1;
#X msg 21 328 color -26209 47;
#X msg 48 353 color 47 0;
#X obj 21 390 s \$0-backwardCnv;
#X msg 97 136 1, f 1;
#X obj 117 100 bng 17 250 50 0 empty empty empty 17 7 0 10 -262144
-1 -1;
#X obj 194 278 sel 0;
#X obj 221 297 bng 8 250 50 0 empty empty empty 17 7 0 10 -262144 -1
-1;
#X msg 194 324 color -26209 47;
#X msg 221 349 color 47 0;
#X obj 127 166 tgl 19 1 empty empty empty 17 7 0 10 -262144 -1 -1 1
1;
#X obj 194 386 s \$0-forwardCnv;
#X msg 136 144 1, f 1;
#X obj 100 100 cnv 15 34 17 empty empty empty 20 12 0 14 -2209 -66577
0;
#X obj 101 101 cnv 15 15 15 empty \$0-backwardCnv < 4 6 0 13 -1625
-44926 0;
#X obj 118 101 cnv 15 15 15 empty \$0-forwardCnv > 4 6 0 13 -44926
-262144 0;
#X msg 119 226 -1, f 2;
#X obj 100 -6 sel -1 1;
#X connect 0 0 29 0;
#X connect 1 0 10 0;
#X connect 2 0 22 0;
#X connect 3 0 4 0;
#X connect 3 0 28 0;
#X connect 4 0 22 0;
#X connect 5 0 6 0;
#X connect 5 0 8 0;
#X connect 6 0 10 0;
#X connect 8 0 7 0;
#X connect 9 0 16 0;
#X connect 10 0 11 0;
#X connect 10 0 3 0;
#X connect 11 0 13 0;
#X connect 11 1 12 0;
#X connect 12 0 14 0;
#X connect 13 0 15 0;
#X connect 14 0 15 0;
#X connect 16 0 10 0;
#X connect 17 0 24 0;
#X connect 18 0 20 0;
#X connect 18 1 19 0;
#X connect 19 0 21 0;
#X connect 20 0 23 0;
#X connect 21 0 23 0;
#X connect 22 0 18 0;
#X connect 22 0 5 0;
#X connect 24 0 22 0;
#X connect 28 0 7 0;
#X connect 29 0 1 0;
#X connect 29 1 2 0;
#X coords 0 -1 1 1 34 17 2 100 100;
#X restore 434 190 pd directionSelector;
#X obj 396 267 s \$0-reverse;
#X obj 371 52 preset_node b4p;
#X obj 182 -31 route offset octave cv2Atten cv3Atten linAtten grainSize
initPoint fileName reverse, f 83;
#X obj 896 334 r \$0-reverse;
#X msg 896 356 reverse \$1;
#X obj 190 853 r \$0-reverse;
#X connect 1 0 2 0;
#X connect 2 0 3 0;
#X connect 3 0 21 0;
#X connect 4 0 1 1;
#X connect 5 0 2 1;
#X connect 17 0 18 0;
#X connect 18 0 19 0;
#X connect 19 0 53 0;
#X connect 21 0 25 0;
#X connect 22 0 23 0;
#X connect 23 0 21 1;
#X connect 24 0 33 0;
#X connect 25 0 52 0;
#X connect 26 0 89 0;
#X connect 27 0 28 0;
#X connect 28 0 26 1;
#X connect 29 0 104 0;
#X connect 30 0 32 0;
#X connect 31 0 30 0;
#X connect 32 0 33 1;
#X connect 33 0 84 0;
#X connect 34 0 31 0;
#X connect 35 0 40 0;
#X connect 36 0 42 0;
#X connect 37 0 44 0;
#X connect 39 0 22 0;
#X connect 41 0 4 1;
#X connect 43 0 5 1;
#X connect 45 0 28 1;
#X connect 46 0 34 0;
#X connect 48 0 50 0;
#X connect 49 0 52 1;
#X connect 50 0 51 0;
#X connect 50 1 49 1;
#X connect 51 0 49 0;
#X connect 52 0 26 0;
#X connect 53 0 17 0;
#X connect 53 0 38 0;
#X connect 56 0 54 0;
#X connect 57 0 60 0;
#X connect 57 0 61 0;
#X connect 60 0 120 0;
#X connect 61 0 125 0;
#X connect 62 0 55 0;
#X connect 63 0 129 0;
#X connect 64 0 55 0;
#X connect 65 0 55 0;
#X connect 66 0 62 0;
#X connect 67 0 64 0;
#X connect 68 0 65 0;
#X connect 69 0 55 0;
#X connect 70 0 69 0;
#X connect 71 0 72 0;
#X connect 72 0 55 0;
#X connect 73 0 53 0;
#X connect 74 0 35 0;
#X connect 75 0 36 0;
#X connect 76 0 37 0;
#X connect 77 0 47 0;
#X connect 78 0 77 0;
#X connect 80 0 1 0;
#X connect 81 0 4 0;
#X connect 82 0 5 0;
#X connect 83 0 27 0;
#X connect 85 0 90 0;
#X connect 86 0 90 1;
#X connect 86 0 95 0;
#X connect 86 1 114 0;
#X connect 88 0 89 2;
#X connect 89 0 24 0;
#X connect 90 0 87 0;
#X connect 90 0 118 0;
#X connect 93 0 100 0;
#X connect 93 0 103 0;
#X connect 96 0 98 1;
#X connect 97 0 89 1;
#X connect 98 0 97 0;
#X connect 98 1 97 1;
#X connect 99 0 98 0;
#X connect 100 0 102 0;
#X connect 101 0 93 0;
#X connect 102 0 94 0;
#X connect 103 0 55 0;
#X connect 105 0 107 0;
#X connect 107 0 121 0;
#X connect 108 0 109 0;
#X connect 110 0 111 0;
#X connect 111 0 90 0;
#X connect 111 0 113 0;
#X connect 112 0 111 1;
#X connect 115 0 116 0;
#X connect 116 0 55 0;
#X connect 117 0 118 1;
#X connect 118 0 119 0;
#X connect 119 0 55 0;
#X connect 120 0 58 0;
#X connect 120 0 59 0;
#X connect 121 0 108 0;
#X connect 122 0 118 1;
#X connect 123 0 122 0;
#X connect 125 0 120 0;
#X connect 126 0 127 0;
#X connect 128 0 126 0;
#X connect 129 0 53 0;
#X connect 129 1 77 0;
#X connect 129 2 35 0;
#X connect 129 3 36 0;
#X connect 129 4 37 0;
#X connect 129 5 93 0;
#X connect 129 6 111 0;
#X connect 129 7 86 1;
#X connect 129 8 126 0;
#X connect 130 0 131 0;
#X connect 131 0 55 0;
#X connect 132 0 89 3;
#X coords 0 -1 1 1 320 143 2 161 89;
