#N canvas 230 114 675 506 10;
#X obj 161 131 cnv 15 210 80 empty empty empty 20 12 0 14 -1625 -66577
0;
#X obj 161 212 cnv 15 210 20 empty empty empty 20 12 0 14 -1 -66577
0;
#X obj 164 217 cnv 10 35 12 empty empty Output 0 5 0 10 -1 -261234
0;
#X obj 161 89 cnv 15 210 20 empty empty empty 20 12 0 14 -1 -66577
0;
#X obj 327 96 cnv 10 35 12 empty empty Trigger 0 5 0 10 -1 -261234
0;
#X obj 161 110 cnv 15 210 20 empty empty KICK 5 10 0 14 -2209 -4032
0;
#X obj 221 139 cnv 10 12 12 empty empty Filter 0 5 0 10 -1625 -4032
0;
#X obj 273 140 cnv 10 12 12 empty empty Decay 0 5 0 10 -1625 -4032
0;
#X obj 318 140 cnv 10 12 12 empty empty Release 0 5 0 10 -1625 -4032
0;
#X obj 312 95 cnv 8 8 8 empty \$0-triggerLed empty 20 12 0 14 -66577
-262144 0;
#X obj 256 236 s \$0-trigger;
#X obj 288 321 inlet~;
#X obj 288 363 edge~;
#X obj 288 341 expr~ $v1 > 2.5;
#X msg 420 381 color 2;
#X msg 364 380 color 1;
#X obj 367 408 s \$0-triggerLed;
#X obj 288 408 s \$0-trigger;
#X obj 310 256 s \$0-decay;
#X obj 177 140 cnv 10 12 12 empty empty Tune 0 5 0 10 -1625 -4032 0
;
#X obj 164 236 s \$0-resonance;
#X obj 229 256 s \$0-filter;
#X obj 339 236 s \$0-release;
#X obj 403 134 s \$0-gain;
#N canvas 264 46 450 637 guts 1;
#X obj 100 103 r \$0-trigger;
#X obj 100 254 log~ 2048;
#X obj 100 276 *~ 70;
#X obj 100 297 abs~;
#X obj 100 318 *~ 32;
#X obj 100 339 -~ 1200;
#X obj 100 385 clip~ 50 10000;
#X obj 100 407 osc~;
#X obj 100 432 *~;
#X obj 311 381 curve~;
#X obj 344 341 r \$0-o;
#X obj 100 564 *~ 5;
#X obj 100 586 outlet~;
#X msg 100 211 0 \, 1 \$1;
#X obj 100 191 i;
#X obj 185 138 r \$0-decay;
#X obj 182 257 r \$0-resonance;
#X obj 182 279 expr $f1 * 130 + 20;
#N canvas 319 296 450 300 lin2log 0;
#X obj 84 -4 t 2 f;
#X obj 84 -83 inlet;
#X obj 84 74 outlet;
#X obj 84 36 pow, f 5;
#X obj 84 -34 * 14.29;
#X connect 0 0 3 0;
#X connect 0 1 3 1;
#X connect 1 0 4 0;
#X connect 3 0 2 0;
#X connect 4 0 0 0;
#X restore 195 504 pd lin2log;
#X obj 195 482 r \$0-filter;
#X obj 100 536 onepole~;
#X obj 185 160 * 8000;
#X msg 344 361 -0.1;
#X obj 311 183 r \$0-trigger;
#X msg 330 254 set \$1;
#X msg 311 285 199.884;
#X obj 330 211 r \$0-release;
#X msg 311 319 0.8 \, 0 \$1;
#X obj 330 233 expr $f1 * 2950 + 50;
#X obj 202 430 r \$0-gain;
#X obj 100 454 *~;
#X obj 100 476 clip~ -1 1;
#X obj 202 452 expr $f1 * 19 + 1;
#X obj 166 206 inlet~;
#X obj 166 233 *~ 12;
#X obj 167 326 mtof~;
#X obj 167 304 +~;
#X obj 165 350 snapshot~;
#X obj 101 130 t b b b;
#X obj 215 71 switch~;
#X msg 216 46 1, f 1;
#X msg 247 45 0, f 1;
#X obj 100 232 vline~;
#X text 273 39 Not implemented yet;
#X obj 215 22 loadbang;
#X connect 0 0 38 0;
#X connect 1 0 2 0;
#X connect 2 0 3 0;
#X connect 3 0 4 0;
#X connect 4 0 5 0;
#X connect 5 0 6 0;
#X connect 6 0 7 0;
#X connect 7 0 8 0;
#X connect 8 0 30 0;
#X connect 9 0 8 1;
#X connect 10 0 22 0;
#X connect 11 0 12 0;
#X connect 13 0 42 0;
#X connect 14 0 13 0;
#X connect 15 0 21 0;
#X connect 16 0 17 0;
#X connect 17 0 36 1;
#X connect 18 0 20 1;
#X connect 19 0 18 0;
#X connect 20 0 11 0;
#X connect 21 0 14 1;
#X connect 22 0 9 2;
#X connect 23 0 25 0;
#X connect 24 0 25 0;
#X connect 25 0 27 0;
#X connect 26 0 28 0;
#X connect 27 0 9 0;
#X connect 28 0 24 0;
#X connect 29 0 32 0;
#X connect 30 0 31 0;
#X connect 31 0 20 0;
#X connect 32 0 30 1;
#X connect 33 0 34 0;
#X connect 34 0 36 0;
#X connect 35 0 37 0;
#X connect 36 0 35 0;
#X connect 37 0 6 1;
#X connect 38 0 14 0;
#X connect 38 1 37 0;
#X connect 40 0 39 0;
#X connect 41 0 39 0;
#X connect 42 0 1 0;
#X connect 44 0 40 0;
#X restore 173 367 pd guts;
#X obj 173 330 inlet~;
#X obj 173 405 outlet~;
#X obj 163 96 cnv 10 35 12 empty empty Tune\ (1v/oct) 0 5 0 10 -1 -261234
0;
#X obj 340 113 moonlib/mknob 15 100 0 1 0 1 empty empty empty 1 32
0 8 -1625 -4032 -4032 0 1;
#X obj 176 158 moonlib/mknob 25 100 0 1 0 1 empty empty empty 1 32
0 8 -1625 -4032 -4032 1000 1;
#X obj 226 158 moonlib/mknob 25 100 0 1 0 1 empty empty empty 7 32
0 8 -1625 -4032 -4032 9900 1;
#X obj 276 158 moonlib/mknob 25 100 0 1 0 1 empty empty empty 1 32
0 8 -1625 -4032 -4032 4900 1;
#X obj 326 158 moonlib/mknob 25 100 0 1 0 1 empty empty empty 1 32
0 8 -1625 -4032 -4032 503 1;
#X obj 157 65 preset_node b4p;
#X obj 202 33 preset_node b4p;
#X obj 270 64 preset_node b4p;
#X obj 314 35 preset_node b4p;
#X obj 379 64 preset_node b4p;
#N canvas 377 297 450 300 mute 0;
#X obj 100 100 bng 19 250 50 0 empty empty empty 17 7 0 10 -262144
-1 -1;
#X obj 100 100 cnv 19 19 19 empty \$0-triggCnv o 6 7 1 15 -1625 -44926
0;
#X obj 61 152 outlet;
#X obj 100 124 bng 15 250 50 0 empty empty empty 17 7 0 10 -262144
-1 -1;
#X obj 185 134 sel 0;
#X obj 212 153 bng 8 250 50 0 empty empty empty 17 7 0 10 -262144 -1
-1;
#X obj 105 168 delay 100;
#X msg 185 180 color -26209 47;
#X msg 212 205 color 47 0;
#X obj 185 242 s \$0-triggCnv;
#X connect 0 0 3 0;
#X connect 0 0 2 0;
#X connect 3 0 8 0;
#X connect 3 0 6 0;
#X connect 4 0 7 0;
#X connect 4 1 5 0;
#X connect 5 0 8 0;
#X connect 6 0 7 0;
#X connect 7 0 9 0;
#X connect 8 0 9 0;
#X coords 0 -1 1 1 19 19 2 100 100;
#X restore 254 188 pd mute;
#X connect 11 0 13 0;
#X connect 12 0 15 0;
#X connect 12 0 17 0;
#X connect 12 1 14 0;
#X connect 13 0 12 0;
#X connect 14 0 16 0;
#X connect 15 0 16 0;
#X connect 24 0 26 0;
#X connect 25 0 24 0;
#X connect 28 0 23 0;
#X connect 29 0 20 0;
#X connect 30 0 21 0;
#X connect 31 0 18 0;
#X connect 32 0 22 0;
#X connect 33 0 29 0;
#X connect 34 0 30 0;
#X connect 35 0 31 0;
#X connect 36 0 32 0;
#X connect 37 0 28 0;
#X connect 38 0 10 0;
#X coords 0 -1 1 1 210 143 2 161 89;
