#N canvas 491 23 549 568 10;
#X obj 161 131 cnv 15 90 80 empty empty empty 20 12 0 14 -1625 -66577
0;
#X obj 160 266 inlet~;
#X obj 161 212 cnv 15 90 20 empty empty empty 20 12 0 14 -1 -66577
0;
#X obj 164 217 cnv 10 35 12 empty empty Output 0 5 0 10 -1 -261234
0;
#X obj 161 89 cnv 15 90 20 empty empty empty 20 12 0 14 -1 -66577 0
;
#X obj 164 96 cnv 10 35 12 empty empty Input 0 5 0 10 -1 -261234 0
;
#X obj 161 110 cnv 15 90 20 empty empty VCA 5 10 0 14 -2209 -4032 0
;
#X obj 160 400 outlet~;
#X obj 229 315 /~ 5;
#X obj 160 357 *~, f 12;
#X obj 229 290 clip~ 0 5;
#X obj 229 265 inlet~;
#X obj 237 96 cnv 10 10 12 empty empty CV 0 5 0 10 -1 -261234 0;
#X obj 160 290 clip~ -5 5;
#X connect 1 0 13 0;
#X connect 8 0 9 1;
#X connect 9 0 7 0;
#X connect 10 0 8 0;
#X connect 11 0 10 0;
#X connect 13 0 9 0;
#X coords 0 -1 1 1 90 143 2 161 89;
