#N canvas 390 127 549 568 10;
#X obj 161 131 cnv 15 90 80 empty empty empty 20 12 0 14 -1625 -66577
0;
#X obj 161 212 cnv 15 90 20 empty empty empty 20 12 0 14 -1 -66577
0;
#X obj 164 217 cnv 10 35 12 empty empty Output 0 5 0 10 -1 -261234
0;
#X obj 161 89 cnv 15 90 20 empty empty empty 20 12 0 14 -1 -66577 0
;
#X obj 161 110 cnv 15 90 20 empty empty LFO 5 10 0 14 -2209 -4032 0
;
#X obj 74 399 osc~;
#X obj 4 584 outlet~;
#X obj 276 396 loadbang;
#X obj 276 418 tgl 15 0 empty empty empty 17 7 0 10 -262144 -1 -1 1
1;
#X obj 276 460 snapshot~;
#X obj 221 388 phasor~;
#X obj 276 438 metro 50;
#X obj 74 444 *~ 2.5;
#X obj 74 421 +~ 1;
#X obj 164 96 cnv 10 35 12 empty empty Reset 0 5 0 10 -1 -261234 0
;
#X obj 430 326 inlet~;
#X msg 430 389 1, f 1;
#X obj 199 95 cnv 8 8 8 empty \$0-resetLed empty 20 12 0 14 -66577
-262144 0;
#X msg 519 434 color 2;
#X msg 580 440 color 1;
#X obj 529 388 bng 15 250 50 0 empty empty empty 17 7 0 10 -262144
-1 -1;
#X obj 519 414 delay 50;
#X obj 519 461 s \$0-resetLed;
#X obj 430 358 threshold~ 3 10 2 10;
#N canvas 342 92 674 483 waveSelector 0;
#N canvas 619 251 450 300 squareSelector 0;
#X obj 100 100 tgl 20 1 empty empty empty 17 7 0 10 -262144 -1 -1 1
1;
#X obj 100 120 tgl 20 0 empty empty empty 17 7 0 10 -262144 -1 -1 0
1;
#X obj 100 140 tgl 20 0 empty empty empty 17 7 0 10 -262144 -1 -1 0
1;
#X obj 100 160 tgl 20 0 empty empty empty 17 7 0 10 -262144 -1 -1 0
1;
#X obj 40 159 sel 1;
#X msg 40 181 0, f 1;
#X obj 160 159 sel 1;
#X msg 160 181 0, f 1;
#X obj 160 39 sel 1;
#X msg 160 61 0, f 1;
#X obj 40 39 sel 1;
#X msg 40 61 0, f 1;
#X msg 60 61 0, f 1;
#X msg 180 181 3, f 1;
#X obj 106 266 outlet;
#X msg 180 61 1, f 1;
#X msg 60 181 2, f 1;
#X obj 99 -47 inlet;
#X obj 99 -25 sel 0 1 2 3;
#X msg 99 -3 1, f 1;
#X msg 114 -3 1, f 1;
#X msg 130 -3 1, f 1;
#X msg 146 -3 1, f 1;
#X connect 0 0 10 0;
#X connect 1 0 8 0;
#X connect 2 0 4 0;
#X connect 3 0 6 0;
#X connect 4 0 5 0;
#X connect 4 0 16 0;
#X connect 5 0 0 0;
#X connect 5 0 1 0;
#X connect 5 0 3 0;
#X connect 6 0 7 0;
#X connect 6 0 13 0;
#X connect 7 0 1 0;
#X connect 7 0 0 0;
#X connect 7 0 2 0;
#X connect 8 0 9 0;
#X connect 8 0 15 0;
#X connect 9 0 0 0;
#X connect 9 0 3 0;
#X connect 9 0 2 0;
#X connect 10 0 11 0;
#X connect 10 0 12 0;
#X connect 11 0 1 0;
#X connect 11 0 2 0;
#X connect 11 0 3 0;
#X connect 12 0 14 0;
#X connect 13 0 14 0;
#X connect 15 0 14 0;
#X connect 16 0 14 0;
#X connect 17 0 18 0;
#X connect 18 0 19 0;
#X connect 18 1 20 0;
#X connect 18 2 21 0;
#X connect 18 3 22 0;
#X connect 19 0 0 0;
#X connect 20 0 1 0;
#X connect 21 0 2 0;
#X connect 22 0 3 0;
#X coords 0 -1 1 1 20 80 2 100 100;
#X restore 100 100 pd squareSelector;
#X obj 100 100 cnv 15 20 80 empty empty empty 20 12 0 14 -1625 -66577
0;
#X obj 101 104 cnv 10 12 12 empty \$0-sinLbl SIN 0 5 0 10 -1625 -44926
0;
#X obj 101 164 cnv 10 12 12 empty \$0-sqrLbl SQR 0 5 0 10 -1625 -2209
0;
#X obj 101 124 cnv 10 12 12 empty \$0-triLbl TRI 0 5 0 10 -1625 -2209
0;
#X obj 101 144 cnv 10 12 12 empty \$0-sawLbl SAW 0 5 0 10 -1625 -2209
0;
#X obj 107 200 outlet;
#X obj 216 239 s \$0-sinLbl;
#X msg 216 198 color -26209 47;
#X msg 243 217 color -26209 -34945;
#X obj 215 168 sel 0;
#X obj 242 187 bng 8 250 50 0 empty empty empty 17 7 0 10 -262144 -1
-1;
#X msg 531 200 color -26209 47;
#X msg 558 219 color -26209 -34945;
#X obj 557 189 bng 8 250 50 0 empty empty empty 17 7 0 10 -262144 -1
-1;
#X obj 531 241 s \$0-sawLbl;
#X msg 375 202 color -26209 47;
#X msg 402 221 color -26209 -34945;
#X obj 401 191 bng 8 250 50 0 empty empty empty 17 7 0 10 -262144 -1
-1;
#X obj 375 243 s \$0-triLbl;
#X msg 682 200 color -26209 47;
#X msg 709 219 color -26209 -34945;
#X obj 708 189 bng 8 250 50 0 empty empty empty 17 7 0 10 -262144 -1
-1;
#X obj 682 241 s \$0-sqrLbl;
#X obj 681 170 sel 3;
#X obj 374 172 sel 1;
#X obj 530 170 sel 2;
#X obj 102 38 inlet;
#X connect 0 0 10 0;
#X connect 0 0 24 0;
#X connect 0 0 25 0;
#X connect 0 0 26 0;
#X connect 0 0 6 0;
#X connect 8 0 7 0;
#X connect 9 0 7 0;
#X connect 10 0 8 0;
#X connect 10 1 11 0;
#X connect 11 0 9 0;
#X connect 12 0 15 0;
#X connect 13 0 15 0;
#X connect 14 0 13 0;
#X connect 16 0 19 0;
#X connect 17 0 19 0;
#X connect 18 0 17 0;
#X connect 20 0 23 0;
#X connect 21 0 23 0;
#X connect 22 0 21 0;
#X connect 24 0 20 0;
#X connect 24 1 22 0;
#X connect 25 0 16 0;
#X connect 25 1 18 0;
#X connect 26 0 12 0;
#X connect 26 1 14 0;
#X connect 27 0 0 0;
#X coords 0 -1 1 1 20 80 2 100 100;
#X restore 162 131 pd waveSelector;
#N canvas 297 227 450 300 switch 0;
#X obj 115 76 inlet~, f 7;
#X obj 36 76 inlet;
#X obj 36 171 sel 0;
#X obj 115 108 spigot~;
#X obj 175 76 inlet~, f 7;
#X obj 175 108 spigot~;
#X obj 235 76 inlet~, f 7;
#X obj 235 108 spigot~;
#X obj 295 76 inlet~, f 7;
#X obj 295 108 spigot~;
#X msg 36 190 0, f 1;
#X msg 63 190 1, f 1;
#X msg 96 190 0, f 1;
#X msg 123 190 1, f 1;
#X msg 156 190 0, f 1;
#X msg 183 190 1, f 1;
#X msg 216 190 0, f 1;
#X msg 243 190 1, f 1;
#X obj 96 171 sel 1;
#X obj 156 171 sel 2;
#X obj 216 171 sel 3;
#X obj 184 146 outlet~;
#X connect 0 0 3 0;
#X connect 1 0 2 0;
#X connect 1 0 18 0;
#X connect 1 0 20 0;
#X connect 1 0 19 0;
#X connect 2 0 10 0;
#X connect 2 1 11 0;
#X connect 3 0 21 0;
#X connect 4 0 5 0;
#X connect 5 0 21 0;
#X connect 6 0 7 0;
#X connect 7 0 21 0;
#X connect 8 0 9 0;
#X connect 9 0 21 0;
#X connect 10 0 3 1;
#X connect 11 0 3 1;
#X connect 12 0 5 1;
#X connect 13 0 5 1;
#X connect 14 0 7 1;
#X connect 15 0 7 1;
#X connect 16 0 9 1;
#X connect 17 0 9 1;
#X connect 18 0 12 0;
#X connect 18 1 13 0;
#X connect 19 0 14 0;
#X connect 19 1 15 0;
#X connect 20 0 16 0;
#X connect 20 1 17 0;
#X restore 4 548 pd switch, f 49;
#X obj 159 237 s \$0-frequency;
#X obj 74 345 r \$0-frequency;
#X obj 221 344 r \$0-frequency;
#X obj 430 415 s \$0-reset;
#X obj 260 367 r \$0-reset;
#X obj 95 373 r \$0-reset;
#X obj 276 482 s \$0-instantPhase;
#X obj 224 69 r \$0-instantPhase;
#X obj 69 236 s \$0-waveform;
#X obj 4 521 r \$0-waveform;
#X obj 221 410 *~ 5;
#X obj 149 453 abs~;
#X obj 149 430 -~ 0.5;
#X obj 149 475 *~ 10;
#X obj 295 509 expr~ ( $v1 > 0.5 ) * 5, f 24;
#X obj 660 312 inlet;
#X obj 669 404 s \$0-fromMaster;
#X obj 660 425 s \$0-toSlave;
#X obj 660 350 prepent set;
#X obj 735 338 bng 8 250 50 0 empty empty empty 17 7 0 10 -262144 -1
-1;
#X msg 660 384;
#X obj 735 350 delay 10;
#X obj 668 547 outlet;
#X obj 668 524 r \$0-toSlave;
#X obj 311 241 s \$0-toSlave;
#X msg 311 212 freq \$1;
#X obj 311 190 r \$0-frequency;
#X obj 140 21 r \$0-fromMaster;
#X obj 187 152 moonlib/mknob 40 500 0.1 50 1 1 empty empty empty 7
32 0 8 -1625 -4032 -4032 24957 1;
#X obj 227 187 moonlib/mknob 15 -1 0 1 0 1 empty empty empty 7 32 0
8 -1625 -3505 -4032 16380 1;
#X obj 258 116 preset_node b4p;
#X obj 54 95 preset_node b4p;
#X obj 408 190 r \$0-waveform;
#X msg 408 212 waveform \$1;
#X obj 140 46 route freq waveform;
#X obj 233 94 cnv 10 10 12 empty empty ● 0 5 0 10 -1 -261234 0;
#X obj 233 216 cnv 10 10 12 empty empty ● 0 5 0 10 -1 -261234 0;
#X connect 5 0 13 0;
#X connect 7 0 8 0;
#X connect 8 0 11 0;
#X connect 9 0 32 0;
#X connect 10 0 9 0;
#X connect 10 0 36 0;
#X connect 10 0 38 0;
#X connect 10 0 40 0;
#X connect 11 0 9 0;
#X connect 12 0 25 1;
#X connect 13 0 12 0;
#X connect 15 0 23 0;
#X connect 16 0 29 0;
#X connect 18 0 22 0;
#X connect 19 0 22 0;
#X connect 20 0 19 0;
#X connect 20 0 21 0;
#X connect 21 0 18 0;
#X connect 23 0 16 0;
#X connect 23 0 20 0;
#X connect 24 0 34 0;
#X connect 25 0 6 0;
#X connect 27 0 5 0;
#X connect 28 0 10 0;
#X connect 30 0 10 1;
#X connect 31 0 5 1;
#X connect 33 0 55 0;
#X connect 35 0 25 0;
#X connect 36 0 25 3;
#X connect 37 0 39 0;
#X connect 38 0 37 0;
#X connect 39 0 25 2;
#X connect 40 0 25 4;
#X connect 41 0 44 0;
#X connect 41 0 45 0;
#X connect 44 0 46 0;
#X connect 45 0 47 0;
#X connect 46 0 42 0;
#X connect 46 0 43 0;
#X connect 47 0 46 0;
#X connect 49 0 48 0;
#X connect 51 0 50 0;
#X connect 52 0 51 0;
#X connect 53 0 60 0;
#X connect 54 0 26 0;
#X connect 56 0 54 0;
#X connect 57 0 24 0;
#X connect 58 0 59 0;
#X connect 59 0 50 0;
#X connect 60 0 54 0;
#X connect 60 1 24 0;
#X coords 0 -1 1 1 90 143 2 161 89;
