#N canvas 669 0 679 664 10;
#X obj 161 131 cnv 15 210 80 empty empty empty 20 12 0 14 -1625 -66577
0;
#X obj 358 140 cnv 7 7 62 empty empty empty 20 12 0 14 -2209 -66577
0;
#X obj 62 533 inlet~;
#X obj 161 212 cnv 15 210 20 empty empty empty 20 12 0 14 -1 -66577
0;
#X obj 164 217 cnv 10 35 12 empty empty Output 0 5 0 10 -1 -261234
0;
#X obj 161 89 cnv 15 210 20 empty empty empty 20 12 0 14 -1 -66577
0;
#X obj 163 96 cnv 10 35 12 empty empty In\ 1 0 5 0 10 -1 -261234 0
;
#X obj 161 110 cnv 15 210 20 empty empty MIXER 5 10 0 14 -2209 -4032
0;
#X obj 153 816 outlet~;
#X obj 83 124 i;
#X msg 83 144 label \$1%;
#X obj 83 104 * 100;
#X obj 83 194 i;
#X msg 83 214 label \$1%;
#X obj 83 174 * 100;
#X obj 393 124 i;
#X msg 393 144 label \$1%;
#X obj 393 104 * 100;
#X obj 393 194 i;
#X msg 393 214 label \$1%;
#X obj 393 174 * 100;
#X obj 204 96 cnv 10 35 12 empty empty In\ 2 0 5 0 10 -1 -261234 0
;
#X obj 256 96 cnv 10 35 12 empty empty In\ 3 0 5 0 10 -1 -261234 0
;
#X obj 305 96 cnv 10 10 12 empty empty In\ 4 0 5 0 10 -1 -261234 0
;
#X obj 152 709 clip~ -5 5;
#X obj 62 585 *~ 0;
#X obj 162 533 inlet~;
#X obj 162 585 *~ 0;
#X obj 272 533 inlet~;
#X obj 272 585 *~ 0;
#X obj 372 533 inlet~;
#X obj 372 585 *~ 0;
#X obj 152 683 expr~ $v1 + $v2 + $v3 + $v4;
#N canvas 297 90 450 300 mute 0;
#X obj 100 100 tgl 15 1 empty empty empty 17 7 0 10 -262144 -1 -1 0
1;
#X obj 100 100 cnv 15 50 15 empty empty empty 20 12 0 14 -2209 -66577
0;
#X obj 100 100 cnv 15 15 15 empty \$0-muteCnv Mute 20 7 0 12 -1625
-166441 0;
#X obj 153 243 s \$0-muteCnv;
#X obj 80 159 tgl 15 0 empty empty empty 17 7 0 10 -262144 -1 -1 0
1;
#X obj 153 135 sel 0;
#X obj 180 154 bng 8 250 50 0 empty empty empty 17 7 0 10 -262144 -1
-1;
#X obj 62 247 outlet;
#X msg 153 181 color -26209 1;
#X msg 180 206 color 47 47;
#X obj 48 177 expr 1 - $f1;
#X connect 0 0 5 0;
#X connect 0 0 4 0;
#X connect 0 0 10 0;
#X connect 5 0 8 0;
#X connect 5 1 6 0;
#X connect 6 0 9 0;
#X connect 8 0 3 0;
#X connect 9 0 3 0;
#X connect 10 0 7 0;
#X coords 0 -1 1 1 50 15 2 100 100;
#X restore 314 112 pd mute;
#X obj 420 723 line;
#X msg 420 703 \$1 10;
#X obj 421 744 sig~;
#X obj 152 781 *~;
#N canvas 779 258 450 300 mute 0;
#X obj 100 100 tgl 19 1 empty empty empty 17 7 0 10 -262144 -1 -1 0
1;
#X obj 100 100 cnv 19 19 19 empty \$0-mute1Cnv 1 6 9 0 12 -2209 -44926
0;
#X obj 192 152 sel 0;
#X obj 219 171 bng 8 250 50 0 empty empty empty 17 7 0 10 -262144 -1
-1;
#X obj 62 247 outlet;
#X msg 192 198 color -26209 1;
#X obj 48 177 expr 1 - $f1;
#X obj 192 260 s \$0-mute1Cnv;
#X msg 219 223 color 47 -34945;
#X msg 268 174 color -34945 47;
#X obj 92 39 inlet;
#X obj 92 63 expr 1 - $f1;
#X connect 0 0 2 0;
#X connect 0 0 6 0;
#X connect 2 0 9 0;
#X connect 2 1 3 0;
#X connect 3 0 8 0;
#X connect 5 0 7 0;
#X connect 6 0 4 0;
#X connect 8 0 7 0;
#X connect 9 0 7 0;
#X connect 10 0 11 0;
#X connect 11 0 0 0;
#X coords 0 -1 1 1 19 19 2 100 100;
#X restore 179 134 pd mute;
#N canvas 323 165 450 300 mute 0;
#X obj 100 100 tgl 19 1 empty empty empty 17 7 0 10 -262144 -1 -1 0
1;
#X obj 100 100 cnv 19 19 19 empty \$0-mute2Cnv 2 6 9 0 12 -2209 -44926
0;
#X obj 192 152 sel 0;
#X obj 219 171 bng 8 250 50 0 empty empty empty 17 7 0 10 -262144 -1
-1;
#X obj 62 247 outlet;
#X msg 192 198 color -26209 1;
#X obj 48 177 expr 1 - $f1;
#X msg 219 223 color 47 -34945;
#X obj 192 260 s \$0-mute2Cnv;
#X msg 268 174 color -34945 47;
#X obj 125 38 inlet;
#X obj 123 63 expr 1 - $f1;
#X connect 0 0 2 0;
#X connect 0 0 6 0;
#X connect 2 0 9 0;
#X connect 2 1 3 0;
#X connect 3 0 7 0;
#X connect 5 0 8 0;
#X connect 6 0 4 0;
#X connect 7 0 8 0;
#X connect 9 0 8 0;
#X connect 10 0 11 0;
#X connect 11 0 0 0;
#X coords 0 -1 1 1 19 19 2 100 100;
#X restore 229 134 pd mute;
#N canvas 323 165 450 300 mute 0;
#X obj 100 100 tgl 19 1 empty empty empty 17 7 0 10 -262144 -1 -1 0
1;
#X obj 100 100 cnv 19 19 19 empty \$0-mute3Cnv 3 6 9 0 12 -2209 -44926
0;
#X obj 192 152 sel 0;
#X obj 219 171 bng 8 250 50 0 empty empty empty 17 7 0 10 -262144 -1
-1;
#X obj 62 247 outlet;
#X msg 192 198 color -26209 1;
#X obj 48 177 expr 1 - $f1;
#X msg 219 223 color 47 -34945;
#X obj 192 260 s \$0-mute3Cnv;
#X msg 268 174 color -34945 47;
#X obj 122 50 expr 1 - $f1;
#X obj 124 24 inlet;
#X connect 0 0 2 0;
#X connect 0 0 6 0;
#X connect 2 0 9 0;
#X connect 2 1 3 0;
#X connect 3 0 7 0;
#X connect 5 0 8 0;
#X connect 6 0 4 0;
#X connect 7 0 8 0;
#X connect 9 0 8 0;
#X connect 10 0 0 0;
#X connect 11 0 10 0;
#X coords 0 -1 1 1 19 19 2 100 100;
#X restore 279 134 pd mute;
#N canvas 323 165 450 300 mute 0;
#X obj 100 100 tgl 19 1 empty empty empty 17 7 0 10 -262144 -1 -1 0
1;
#X obj 100 100 cnv 19 19 19 empty \$0-mute4Cnv 4 6 9 0 12 -2209 -44926
0;
#X obj 192 152 sel 0;
#X obj 219 171 bng 8 250 50 0 empty empty empty 17 7 0 10 -262144 -1
-1;
#X obj 62 247 outlet;
#X msg 192 198 color -26209 1;
#X obj 48 177 expr 1 - $f1;
#X msg 219 223 color 47 -34945;
#X obj 192 260 s \$0-mute4Cnv;
#X msg 268 174 color -34945 47;
#X obj 101 33 inlet;
#X obj 100 64 expr 1 - $f1;
#X connect 0 0 2 0;
#X connect 0 0 6 0;
#X connect 2 0 9 0;
#X connect 2 1 3 0;
#X connect 3 0 7 0;
#X connect 5 0 8 0;
#X connect 6 0 4 0;
#X connect 7 0 8 0;
#X connect 9 0 8 0;
#X connect 10 0 11 0;
#X connect 11 0 0 0;
#X coords 0 -1 1 1 19 19 2 100 100;
#X restore 329 134 pd mute;
#X obj 62 637 *~ 1;
#X obj 162 637 *~ 1;
#X obj 272 637 *~ 1;
#X obj 372 637 *~ 1;
#X obj 359 141 cnv 5 5 60 empty empty empty 20 12 0 14 -4032 -66577
0;
#X obj 359 141 cnv 5 5 60 empty \$0-vu empty 20 12 0 14 -1625 -66577
0;
#X obj 96 886 expr ( -$f1 + 12 ) * 60 / 112;
#X obj 96 929 s \$0-vu;
#X msg 96 907 vis_size 5 \$1;
#X obj 96 843 env~;
#X obj 96 865 - 100;
#X obj 96 821 /~ 5;
#X obj 420 683 * 1;
#X obj 170 238 s \$0-level1;
#X obj 220 258 s \$0-level2;
#X obj 270 238 s \$0-level3;
#X obj 320 258 s \$0-level4;
#X obj 83 558 r \$0-level1;
#X obj 183 559 r \$0-level2;
#X obj 293 560 r \$0-level3;
#X obj 393 560 r \$0-level4;
#X obj 147 263 s \$0-mute1;
#X obj 219 283 s \$0-mute2;
#X obj 287 283 s \$0-mute3;
#X obj 357 283 s \$0-mute4;
#X obj 83 610 r \$0-mute1;
#X obj 183 610 r \$0-mute2;
#X obj 293 610 r \$0-mute3;
#X obj 393 610 r \$0-mute4;
#X obj 438 78 s \$0-mute;
#X obj 420 663 r \$0-mute;
#X obj 176 158 moonlib/mknob 25 200 0 1 0 1 empty empty 0% 7 32 0 8
-1625 -4032 -4032 0 1;
#X obj 226 158 moonlib/mknob 25 200 0 1 0 1 empty empty 0% 7 32 0 8
-1625 -4032 -4032 0 1;
#X obj 276 158 moonlib/mknob 25 200 0 1 0 1 empty empty 0% 7 32 0 8
-1625 -4032 -4032 0 1;
#X obj 326 158 moonlib/mknob 25 200 0 1 0 1 empty empty 0% 7 32 0 8
-1625 -4032 -4032 0 1;
#X obj 167 8 preset_node b4p;
#X obj 227 -12 preset_node b4p;
#X obj 277 8 preset_node b4p;
#X obj 327 29 preset_node b4p;
#X obj 45 20 preset_node b4p;
#X obj 180 48 preset_node b4p;
#X obj 228 27 preset_node b4p;
#X obj 282 48 preset_node b4p;
#X obj 353 93 cnv 10 10 12 empty \$0-masterMessage ● 0 5 0 10 -1
-261234 0;
#X obj 575 546 inlet;
#X obj 655 650 s \$0-fromMaster;
#X obj 575 650 s \$0-toSlave;
#X obj 575 598 prepent set;
#X obj 649 588 bng 8 250 50 0 empty empty empty 17 7 0 10 -262144 -1
-1;
#X msg 575 622 offset 0.638277;
#X obj 649 598 delay 10;
#X obj 605 816 outlet;
#X obj 605 773 r \$0-toSlave;
#X obj 35 355 r \$0-level1;
#X msg 35 377 level1 \$1;
#X obj 241 421 s \$0-toSlave;
#X obj 115 355 r \$0-level2;
#X msg 115 377 level2 \$1;
#X obj 195 355 r \$0-level3;
#X msg 195 377 level3 \$1;
#X obj 275 355 r \$0-level4;
#X msg 275 377 level4 \$1;
#X obj 355 355 r \$0-mute1;
#X msg 355 377 mute1 \$1;
#X msg 425 377 mute2 \$1;
#X obj 425 355 r \$0-mute2;
#X obj 495 355 r \$0-mute3;
#X msg 495 377 mute3 \$1;
#X msg 565 377 mute4 \$1;
#X obj 565 355 r \$0-mute4;
#X obj 125 -93 r \$0-fromMaster;
#X obj 125 -71 route level1 level2 level3 level4 mute1 mute2 mute3
mute4;
#X obj 353 216 cnv 10 10 12 empty \$0-masterMessage ● 0 5 0 10 -1
-261234 0;
#X connect 2 0 25 0;
#X connect 9 0 10 0;
#X connect 10 0 74 0;
#X connect 11 0 9 0;
#X connect 12 0 13 0;
#X connect 13 0 73 0;
#X connect 14 0 12 0;
#X connect 15 0 16 0;
#X connect 16 0 75 0;
#X connect 17 0 15 0;
#X connect 18 0 19 0;
#X connect 19 0 76 0;
#X connect 20 0 18 0;
#X connect 24 0 37 0;
#X connect 25 0 42 0;
#X connect 26 0 27 0;
#X connect 27 0 43 0;
#X connect 28 0 29 0;
#X connect 29 0 44 0;
#X connect 30 0 31 0;
#X connect 31 0 45 0;
#X connect 32 0 24 0;
#X connect 33 0 71 0;
#X connect 34 0 36 0;
#X connect 35 0 34 0;
#X connect 36 0 37 1;
#X connect 37 0 8 0;
#X connect 37 0 53 0;
#X connect 38 0 63 0;
#X connect 39 0 64 0;
#X connect 40 0 65 0;
#X connect 41 0 66 0;
#X connect 42 0 32 0;
#X connect 43 0 32 1;
#X connect 44 0 32 2;
#X connect 45 0 32 3;
#X connect 48 0 50 0;
#X connect 50 0 49 0;
#X connect 51 0 52 0;
#X connect 52 0 48 0;
#X connect 53 0 51 0;
#X connect 54 0 35 0;
#X connect 59 0 25 1;
#X connect 60 0 27 1;
#X connect 61 0 29 1;
#X connect 62 0 31 1;
#X connect 67 0 42 1;
#X connect 68 0 43 1;
#X connect 69 0 44 1;
#X connect 70 0 45 1;
#X connect 72 0 54 0;
#X connect 73 0 14 0;
#X connect 73 0 55 0;
#X connect 74 0 11 0;
#X connect 74 0 56 0;
#X connect 75 0 17 0;
#X connect 75 0 57 0;
#X connect 76 0 20 0;
#X connect 76 0 58 0;
#X connect 77 0 73 0;
#X connect 78 0 74 0;
#X connect 79 0 75 0;
#X connect 80 0 76 0;
#X connect 81 0 38 0;
#X connect 82 0 39 0;
#X connect 83 0 40 0;
#X connect 84 0 41 0;
#X connect 86 0 89 0;
#X connect 86 0 90 0;
#X connect 89 0 91 0;
#X connect 90 0 92 0;
#X connect 91 0 87 0;
#X connect 91 0 88 0;
#X connect 92 0 91 0;
#X connect 94 0 93 0;
#X connect 95 0 96 0;
#X connect 96 0 97 0;
#X connect 98 0 99 0;
#X connect 99 0 97 0;
#X connect 100 0 101 0;
#X connect 101 0 97 0;
#X connect 102 0 103 0;
#X connect 103 0 97 0;
#X connect 104 0 105 0;
#X connect 105 0 97 0;
#X connect 106 0 97 0;
#X connect 107 0 106 0;
#X connect 108 0 109 0;
#X connect 109 0 97 0;
#X connect 110 0 97 0;
#X connect 111 0 110 0;
#X connect 112 0 113 0;
#X connect 113 0 73 0;
#X connect 113 1 74 0;
#X connect 113 2 75 0;
#X connect 113 3 76 0;
#X connect 113 4 38 0;
#X connect 113 5 39 0;
#X connect 113 6 40 0;
#X connect 113 7 41 0;
#X coords 0 -1 1 1 210 143 2 161 89;
