#N canvas 710 75 549 568 10;
#X obj 163 136 nbx 1 71 30 500 0 1 empty empty empty 0 -8 0 56 -262144
-1 -1 120 256 0;
#X obj 161 131 cnv 15 90 80 empty empty empty 20 12 0 14 -1625 -66577
0;
#X obj 161 212 cnv 15 90 20 empty empty empty 20 12 0 14 -1 -66577
0;
#X obj 164 217 cnv 10 35 12 empty empty Trigg\ (0-5v) 0 5 0 10 -1 -261234
0;
#X obj 161 89 cnv 15 90 20 empty empty empty 20 12 0 14 -1 -66577 0
;
#X obj 161 110 cnv 15 90 20 empty empty METRO 5 10 0 14 -2209 -4032
0;
#X obj 275 481 outlet~;
#X obj 73 276 s \$0-bpm;
#X obj 326 318 r \$0-tempoMillis;
#X obj 151 268 s \$0-tempoMillis;
#X msg 73 256 label \$1BPM;
#X obj 181 162 cnv 15 21 15 empty \$0-bpm 120BPM 3 8 0 14 -1625 -4032
0;
#X obj 73 237 i, f 5;
#X obj 275 339 metro 500;
#X obj 150 243 expr 60000 / $f1;
#X obj 275 380 sig~;
#X obj 275 361 tgl 15 0 empty empty empty 17 7 0 10 -262144 -1 -1 0
1;
#X obj 275 402 delta~;
#X obj 275 424 abs~;
#X obj 275 446 *~ 5;
#X msg 360 389 color 47;
#X obj 424 369 delay 50;
#X msg 424 389 color -35715;
#X obj 238 218 cnv 8 8 8 empty \$0-triggLed empty 20 12 0 14 -2209
-262144 0;
#X obj 361 427 s \$0-triggLed;
#N canvas 755 251 450 300 mute 0;
#X obj 100 100 tgl 15 1 empty empty empty 17 7 0 10 -262144 -1 -1 0
1;
#X obj 100 100 cnv 15 32 15 empty empty empty 20 12 0 14 -2209 -66577
0;
#X obj 100 100 cnv 15 15 15 empty \$0-muteCnv M 20 7 0 12 -1625 -166441
0;
#X obj 153 243 s \$0-muteCnv;
#X obj 56 141 tgl 15 0 empty empty empty 17 7 0 10 -262144 -1 -1 0
1;
#X obj 153 135 sel 0;
#X obj 180 154 bng 8 250 50 0 empty empty empty 17 7 0 10 -262144 -1
-1;
#X obj 79 246 outlet;
#X msg 153 181 color -26209 1;
#X msg 180 206 color 47 47;
#X obj 68 174 expr 1 - $f1;
#X connect 0 0 5 0;
#X connect 0 0 4 0;
#X connect 0 0 10 0;
#X connect 5 0 8 0;
#X connect 5 1 6 0;
#X connect 6 0 9 0;
#X connect 8 0 3 0;
#X connect 9 0 3 0;
#X connect 10 0 7 0;
#X coords 0 -1 1 1 32 15 2 100 100;
#X restore 217 112 pd mute;
#X obj 164 36 preset_node b4p;
#X connect 0 0 14 0;
#X connect 0 0 12 0;
#X connect 8 0 13 1;
#X connect 10 0 7 0;
#X connect 12 0 10 0;
#X connect 13 0 16 0;
#X connect 13 0 21 0;
#X connect 13 0 20 0;
#X connect 14 0 9 0;
#X connect 15 0 17 0;
#X connect 16 0 15 0;
#X connect 17 0 18 0;
#X connect 18 0 19 0;
#X connect 19 0 6 0;
#X connect 20 0 24 0;
#X connect 21 0 22 0;
#X connect 22 0 24 0;
#X connect 25 0 13 0;
#X connect 26 0 0 0;
#X coords 0 -1 1 1 90 143 2 161 89;
