#N canvas 343 65 647 568 10;
#X obj 161 131 cnv 15 250 80 empty empty empty 20 12 0 14 -1625 -66577
0;
#X obj 134 463 inlet~;
#X obj 212 462 inlet~;
#X obj 294 461 inlet~;
#X obj 80 909 outlet~;
#X obj 134 540 +~;
#X obj 134 565 +~;
#X obj 212 514 *~ 0, f 5;
#X obj 294 512 *~ 0, f 5;
#X obj 161 212 cnv 15 250 20 empty empty empty 20 12 0 14 -1 -66577
0;
#X obj 164 217 cnv 10 35 12 empty empty Output 0 5 0 10 -1 -261234
0;
#X obj 161 89 cnv 15 250 20 empty empty empty 20 12 0 14 -1 -66577
0;
#X obj 164 96 cnv 10 35 12 empty empty Signal 0 5 0 10 -1 -261234 0
;
#X obj 253 96 cnv 10 35 12 empty empty CV2 0 5 0 10 -1 -261234 0;
#X obj 301 96 cnv 10 35 12 empty empty CV3 0 5 0 10 -1 -261234 0;
#X obj 182 140 cnv 10 12 12 empty empty Freq 0 5 0 10 -1625 -4032 0
;
#X obj 15 100 i;
#X obj 161 110 cnv 15 250 20 empty empty VCF 5 10 0 14 -2209 -4032
0;
#X obj 351 96 cnv 10 10 12 empty empty Res 0 5 0 10 -1 -261234 0;
#X obj 15 119 moses 1000;
#X msg 15 138 label \$1Hz;
#X msg 32 220 label \$1KHz;
#X obj 72 163 / 100;
#X obj 72 182 i, f 5;
#X obj 72 201 / 10, f 5;
#X obj 108 774 moog~, f 10;
#X obj 85 676 inlet~;
#X obj 56 705 clip~ -5 5;
#X obj 56 727 /~ 5;
#X obj 108 796 *~ 5;
#X obj 206 96 cnv 10 35 12 empty empty CV1 0 5 0 10 -1 -261234 0;
#X obj 294 140 cnv 10 12 12 empty empty CV1 0 5 0 10 -1625 -4032 0
;
#X obj 86 48 * 100;
#X obj 86 70 i;
#X msg 86 92 label \$1%;
#X obj 516 85 * 100;
#X obj 516 107 i;
#X msg 516 129 label \$1%;
#X obj 334 140 cnv 10 12 12 empty empty CV2 0 5 0 10 -1625 -4032 0
;
#X obj 374 140 cnv 10 12 12 empty empty CV3 0 5 0 10 -1625 -4032 0
;
#X obj 459 16 * 100;
#X obj 459 38 i;
#X msg 459 60 label \$1%;
#X obj 156 633 ftom;
#X obj 156 655 / 12;
#X obj 135 679 +~ 0;
#X obj 135 720 mtof~;
#X obj 135 700 *~ 12;
#X obj 134 516 *~ 0;
#N canvas 297 90 450 300 mute 0;
#X obj 100 100 tgl 15 1 empty empty empty 17 7 0 10 -262144 -1 -1 0
1;
#X obj 100 100 cnv 15 65 15 empty empty empty 20 12 0 14 -2209 -66577
0;
#X obj 100 100 cnv 15 15 15 empty \$0-bypassCnv Bypass 20 7 0 12 -1625
-166441 0;
#X obj 80 159 tgl 15 0 empty empty empty 17 7 0 10 -262144 -1 -1 0
1;
#X obj 153 135 sel 0;
#X obj 180 154 bng 8 250 50 0 empty empty empty 17 7 0 10 -262144 -1
-1;
#X msg 153 181 color -26209 1;
#X msg 180 206 color 47 47;
#X obj 153 243 s \$0-bypassCnv;
#X obj 48 179 outlet;
#X connect 0 0 4 0;
#X connect 0 0 3 0;
#X connect 0 0 9 0;
#X connect 4 0 6 0;
#X connect 4 1 5 0;
#X connect 5 0 7 0;
#X connect 6 0 8 0;
#X connect 7 0 8 0;
#X coords 0 -1 1 1 65 15 2 100 100;
#X restore 343 112 pd mute;
#N canvas 297 227 450 300 switch 0;
#X obj 115 76 inlet~, f 7;
#X obj 36 76 inlet;
#X obj 36 171 sel 0;
#X obj 115 108 spigot~;
#X obj 175 76 inlet~, f 7;
#X obj 175 108 spigot~;
#X msg 36 190 0, f 1;
#X msg 63 190 1, f 1;
#X msg 96 190 0, f 1;
#X msg 123 190 1, f 1;
#X obj 96 171 sel 1;
#X obj 184 146 outlet~;
#X connect 0 0 3 0;
#X connect 1 0 2 0;
#X connect 1 0 10 0;
#X connect 2 0 6 0;
#X connect 2 1 7 0;
#X connect 3 0 11 0;
#X connect 4 0 5 0;
#X connect 5 0 11 0;
#X connect 6 0 3 1;
#X connect 7 0 3 1;
#X connect 8 0 5 1;
#X connect 9 0 5 1;
#X connect 10 0 8 0;
#X connect 10 1 9 0;
#X restore 80 881 pd switch, f 10;
#X obj 129 232 s \$0-freq;
#X obj 156 610 r \$0-freq;
#X obj 240 255 s \$0-cv1;
#X obj 155 491 r \$0-cv1;
#X obj 315 235 s \$0-cv2;
#X obj 377 237 s \$0-cv3;
#X obj 239 490 r \$0-cv2;
#X obj 321 489 r \$0-cv3;
#X obj 459 251 s \$0-bypass;
#X obj 21 783 r \$0-bypass;
#X obj 433 455 inlet;
#X obj 442 547 s \$0-fromMaster;
#X obj 433 568 s \$0-toSlave;
#X obj 433 493 prepent set;
#X obj 508 481 bng 8 250 50 0 empty empty empty 17 7 0 10 -262144 -1
-1;
#X msg 433 527;
#X obj 508 493 delay 10;
#X obj 498 811 outlet;
#X obj 498 788 r \$0-toSlave;
#X obj 243 -18 r \$0-fromMaster;
#X obj 248 369 s \$0-toSlave;
#X obj 178 306 r \$0-freq;
#X msg 178 328 freq \$1;
#X obj 252 300 r \$0-cv1;
#X obj 317 300 r \$0-cv2;
#X obj 381 301 r \$0-cv3;
#X obj 439 299 r \$0-res;
#X obj 498 299 r \$0-cvRes;
#X msg 317 325 cv2 \$1;
#X msg 252 323 cv1 \$1;
#X msg 381 323 cv3 \$1;
#X msg 438 322 res \$1;
#X msg 499 324 cvRes \$1;
#X obj 180 158 moonlib/mknob 25 300 1 20000 1 1 empty empty 20KHz 5
32 0 8 -1625 -4032 -4032 29900 1;
#X obj 290 158 moonlib/mknob 25 100 0 1 0 1 empty empty 0% 7 32 0 8
-1625 -4032 -4032 0 1;
#X obj 330 158 moonlib/mknob 25 100 0 1 0 1 empty empty 0% 7 32 0 8
-1625 -4032 -4032 0 1;
#X obj 370 158 moonlib/mknob 25 100 0 1 0 1 empty empty 0% 7 32 0 8
-1625 -4032 -4032 0 1;
#X obj 168 42 preset_node b4p;
#X obj 187 65 preset_node b4p;
#X obj 326 42 preset_node b4p;
#X obj 349 59 preset_node b4p;
#X obj 393 94 cnv 10 10 12 empty empty ● 0 5 0 10 -1 -261234 0;
#X obj 393 216 cnv 10 10 12 empty empty ● 0 5 0 10 -1 -261234 0;
#N canvas 220 140 693 501 typeSelector 0;
#N canvas 18 89 450 300 squareSelector 0;
#X obj 106 100 tgl 20 1 empty empty empty 17 7 0 10 -262144 -1 -1 1
1;
#X obj 134 100 tgl 20 0 empty empty empty 17 7 0 10 -262144 -1 -1 0
1;
#X obj 106 120 tgl 20 0 empty empty empty 17 7 0 10 -262144 -1 -1 0
1;
#X obj 134 120 tgl 20 0 empty empty empty 17 7 0 10 -262144 -1 -1 0
1;
#X obj 40 159 sel 1;
#X msg 40 181 0, f 1;
#X obj 160 159 sel 1;
#X msg 160 181 0, f 1;
#X obj 160 39 sel 1;
#X msg 160 61 0, f 1;
#X obj 40 39 sel 1;
#X msg 40 61 0, f 1;
#X msg 60 61 0, f 1;
#X msg 180 181 3, f 1;
#X obj 106 266 outlet;
#X msg 180 61 1, f 1;
#X msg 60 181 2, f 1;
#X obj 232 8 inlet;
#X obj 232 30 sel 0 1 2 3;
#X msg 93 62 1, f 1;
#X msg 200 60 1, f 1;
#X msg 80 181 1, f 1;
#X msg 142 181 1, f 1;
#X connect 0 0 10 0;
#X connect 1 0 8 0;
#X connect 2 0 4 0;
#X connect 3 0 6 0;
#X connect 4 0 5 0;
#X connect 4 0 16 0;
#X connect 5 0 0 0;
#X connect 5 0 1 0;
#X connect 5 0 3 0;
#X connect 6 0 7 0;
#X connect 6 0 13 0;
#X connect 7 0 1 0;
#X connect 7 0 0 0;
#X connect 7 0 2 0;
#X connect 8 0 9 0;
#X connect 8 0 15 0;
#X connect 9 0 0 0;
#X connect 9 0 3 0;
#X connect 9 0 2 0;
#X connect 10 0 11 0;
#X connect 10 0 12 0;
#X connect 11 0 1 0;
#X connect 11 0 2 0;
#X connect 11 0 3 0;
#X connect 12 0 14 0;
#X connect 13 0 14 0;
#X connect 15 0 14 0;
#X connect 16 0 14 0;
#X connect 17 0 18 0;
#X connect 18 0 11 0;
#X connect 18 0 12 0;
#X connect 18 0 19 0;
#X connect 18 1 9 0;
#X connect 18 1 15 0;
#X connect 18 1 20 0;
#X connect 18 2 5 0;
#X connect 18 2 16 0;
#X connect 18 2 21 0;
#X connect 18 3 7 0;
#X connect 18 3 13 0;
#X connect 18 3 22 0;
#X connect 19 0 0 0;
#X connect 20 0 1 0;
#X connect 21 0 2 0;
#X connect 22 0 3 0;
#X coords 0 -1 1 1 60 40 2 100 100;
#X restore 100 100 pd squareSelector;
#X obj 100 100 cnv 15 60 40 empty empty empty 20 12 0 14 -1625 -66577
0;
#X obj 110 104 cnv 10 12 12 empty \$0-lpLbl LP 0 5 0 10 -1625 -44926
0;
#X obj 135 125 cnv 10 12 12 empty \$0-ntchLbl NCH 0 5 0 10 -1625 -2209
0;
#X obj 138 104 cnv 10 12 12 empty \$0-hpLbl HP 0 5 0 10 -1625 -2209
0;
#X obj 110 125 cnv 10 12 12 empty \$0-bpLbl BP 0 5 0 10 -1625 -2209
0;
#X obj 107 200 outlet;
#X msg 216 198 color -26209 47;
#X msg 243 217 color -26209 -34945;
#X obj 215 168 sel 0;
#X obj 242 187 bng 8 250 50 0 empty empty empty 17 7 0 10 -262144 -1
-1;
#X msg 531 200 color -26209 47;
#X msg 558 219 color -26209 -34945;
#X obj 557 189 bng 8 250 50 0 empty empty empty 17 7 0 10 -262144 -1
-1;
#X msg 375 202 color -26209 47;
#X msg 402 221 color -26209 -34945;
#X obj 401 191 bng 8 250 50 0 empty empty empty 17 7 0 10 -262144 -1
-1;
#X msg 682 200 color -26209 47;
#X msg 709 219 color -26209 -34945;
#X obj 708 189 bng 8 250 50 0 empty empty empty 17 7 0 10 -262144 -1
-1;
#X obj 681 170 sel 3;
#X obj 374 172 sel 1;
#X obj 530 170 sel 2;
#X obj 105 73 inlet;
#X obj 216 239 s \$0-lpLbl;
#X obj 375 243 s \$0-hpLbl;
#X obj 531 241 s \$0-bpLbl;
#X obj 682 241 s \$0-ntchLbl;
#X connect 0 0 9 0;
#X connect 0 0 20 0;
#X connect 0 0 21 0;
#X connect 0 0 22 0;
#X connect 0 0 6 0;
#X connect 7 0 24 0;
#X connect 8 0 24 0;
#X connect 9 0 7 0;
#X connect 9 1 10 0;
#X connect 10 0 8 0;
#X connect 11 0 26 0;
#X connect 12 0 26 0;
#X connect 13 0 12 0;
#X connect 14 0 25 0;
#X connect 15 0 25 0;
#X connect 16 0 15 0;
#X connect 17 0 27 0;
#X connect 18 0 27 0;
#X connect 19 0 18 0;
#X connect 20 0 17 0;
#X connect 20 1 19 0;
#X connect 21 0 14 0;
#X connect 21 1 16 0;
#X connect 22 0 11 0;
#X connect 22 1 13 0;
#X connect 23 0 0 0;
#X coords 0 -1 1 1 60 40 2 100 100;
#X restore 220 151 pd typeSelector;
#X obj 162 16 preset_node b4p;
#X obj 135 259 s \$0-filterType;
#X obj -38 815 s \$0-filterType;
#X obj 243 7 route freq cv1 cv2 cv3 filterType;
#N canvas 877 360 450 300 filter 1;
#X obj 187 143 hip~;
#N canvas 342 224 450 300 switch 0;
#X obj 115 76 inlet~, f 7;
#X obj 36 76 inlet;
#X obj 36 171 sel 0;
#X obj 115 108 spigot~;
#X obj 175 76 inlet~, f 7;
#X obj 175 108 spigot~;
#X obj 235 76 inlet~, f 7;
#X obj 235 108 spigot~;
#X obj 295 76 inlet~, f 7;
#X obj 295 108 spigot~;
#X msg 36 190 0, f 1;
#X msg 63 190 1, f 1;
#X msg 96 190 0, f 1;
#X msg 123 190 1, f 1;
#X msg 156 190 0, f 1;
#X msg 183 190 1, f 1;
#X msg 216 190 0, f 1;
#X msg 243 190 1, f 1;
#X obj 96 171 sel 1;
#X obj 156 171 sel 2;
#X obj 216 171 sel 3;
#X obj 184 146 outlet~;
#X connect 0 0 3 0;
#X connect 1 0 2 0;
#X connect 1 0 18 0;
#X connect 1 0 20 0;
#X connect 1 0 19 0;
#X connect 2 0 10 0;
#X connect 2 1 11 0;
#X connect 3 0 21 0;
#X connect 4 0 5 0;
#X connect 5 0 21 0;
#X connect 6 0 7 0;
#X connect 7 0 21 0;
#X connect 8 0 9 0;
#X connect 9 0 21 0;
#X connect 10 0 3 1;
#X connect 11 0 3 1;
#X connect 12 0 5 1;
#X connect 13 0 5 1;
#X connect 14 0 7 1;
#X connect 15 0 7 1;
#X connect 16 0 9 1;
#X connect 17 0 9 1;
#X connect 18 0 12 0;
#X connect 18 1 13 0;
#X connect 19 0 14 0;
#X connect 19 1 15 0;
#X connect 20 0 16 0;
#X connect 20 1 17 0;
#X restore 69 181 pd switch, f 40;
#X obj 127 143 lop~;
#X obj 247 143 bp~;
#X connect 0 0 1 2;
#X connect 2 0 1 1;
#X connect 3 0 1 3;
#X restore 286 785 pd filter;
#X connect 1 0 48 0;
#X connect 2 0 7 0;
#X connect 3 0 8 0;
#X connect 5 0 6 0;
#X connect 6 0 45 0;
#X connect 7 0 5 1;
#X connect 8 0 6 1;
#X connect 16 0 19 0;
#X connect 19 0 20 0;
#X connect 19 1 22 0;
#X connect 20 0 84 0;
#X connect 21 0 84 0;
#X connect 22 0 23 0;
#X connect 23 0 24 0;
#X connect 24 0 21 0;
#X connect 25 0 29 0;
#X connect 26 0 27 0;
#X connect 26 0 50 2;
#X connect 27 0 28 0;
#X connect 28 0 25 0;
#X connect 29 0 50 1;
#X connect 32 0 33 0;
#X connect 33 0 34 0;
#X connect 34 0 85 0;
#X connect 35 0 36 0;
#X connect 36 0 37 0;
#X connect 37 0 87 0;
#X connect 40 0 41 0;
#X connect 41 0 42 0;
#X connect 42 0 86 0;
#X connect 43 0 44 0;
#X connect 44 0 45 1;
#X connect 45 0 47 0;
#X connect 46 0 25 1;
#X connect 47 0 46 0;
#X connect 48 0 5 0;
#X connect 49 0 59 0;
#X connect 50 0 4 0;
#X connect 52 0 43 0;
#X connect 54 0 48 1;
#X connect 57 0 7 1;
#X connect 58 0 8 1;
#X connect 60 0 50 0;
#X connect 61 0 64 0;
#X connect 61 0 65 0;
#X connect 64 0 66 0;
#X connect 65 0 67 0;
#X connect 66 0 62 0;
#X connect 66 0 63 0;
#X connect 67 0 66 0;
#X connect 69 0 68 0;
#X connect 70 0 98 0;
#X connect 72 0 73 0;
#X connect 73 0 71 0;
#X connect 74 0 80 0;
#X connect 75 0 79 0;
#X connect 76 0 81 0;
#X connect 77 0 82 0;
#X connect 78 0 83 0;
#X connect 79 0 71 0;
#X connect 80 0 71 0;
#X connect 81 0 71 0;
#X connect 82 0 71 0;
#X connect 83 0 71 0;
#X connect 84 0 16 0;
#X connect 84 0 51 0;
#X connect 85 0 32 0;
#X connect 85 0 53 0;
#X connect 86 0 40 0;
#X connect 86 0 55 0;
#X connect 87 0 35 0;
#X connect 87 0 56 0;
#X connect 88 0 84 0;
#X connect 89 0 85 0;
#X connect 90 0 86 0;
#X connect 91 0 87 0;
#X connect 94 0 96 0;
#X connect 95 0 94 0;
#X connect 98 0 84 0;
#X connect 98 1 85 0;
#X connect 98 2 86 0;
#X connect 98 3 87 0;
#X connect 98 4 94 0;
#X coords 0 -1 1 1 250 143 2 161 89;
