#N canvas 743 53 549 615 10;
#X obj 161 131 cnv 15 150 80 empty empty empty 20 12 0 14 -1625 -66577
0;
#X obj 63 255 inlet~;
#X obj 161 212 cnv 15 150 20 empty empty empty 20 12 0 14 -1 -66577
0;
#X obj 164 217 cnv 10 35 12 empty empty Output\ (0-5v) 0 5 0 10 -1
-261234 0;
#X obj 161 89 cnv 15 150 20 empty empty empty 20 12 0 14 -1 -66577
0;
#X obj 164 96 cnv 10 35 12 empty empty Trigg 0 5 0 10 -1 -261234 0
;
#X obj 171 140 cnv 10 12 12 empty empty Attack 0 5 0 10 -1625 -4032
0;
#X obj 85 159 i;
#X obj 161 110 cnv 15 150 20 empty empty AHD 5 10 0 14 -2209 -4032
0;
#X obj 382 153 i;
#X obj 274 139 cnv 10 12 12 empty empty Decay 0 5 0 10 -1625 -4032
0;
#X obj 136 463 outlet~;
#X msg 85 181 label \$1ms;
#X obj 228 140 cnv 10 12 12 empty empty Hold 0 5 0 10 -1625 -4032 0
;
#X obj 80 93 i;
#X msg 80 115 label \$1ms;
#X obj 63 297 edge~;
#X msg 63 318 1, f 1;
#X obj 63 275 expr~ $v1 > 2.5;
#X msg 382 175 label \$1ms;
#X obj 136 416 vline~;
#X obj 218 342 +, f 5;
#X obj 134 363 pack f f f f f;
#X obj 219 310 t b a;
#X msg 136 393 \$1 \$2 \, \$1 \$3 \$2 \, 0 \$4 \$5;
#X obj 136 438 *~ 5;
#X obj 201 95 cnv 8 8 8 empty \$0-triggLed empty 20 12 0 14 -66577
-262144 0;
#X obj 6 403 s \$0-triggLed;
#X msg 6 376 color 2;
#X msg 67 382 color 1;
#X obj 16 330 bng 15 250 50 0 empty empty empty 17 7 0 10 -262144 -1
-1;
#X obj 6 356 delay 50;
#X obj 176 158 moonlib/mknob 25 500 1 2000 0 1 empty empty 1ms 1 32
0 8 -1625 -4032 -4032 0 1;
#X obj 226 158 moonlib/mknob 25 500 0 2000 0 1 empty empty 50ms 1 32
0 8 -1625 -4032 -4032 1272 1;
#X obj 276 158 moonlib/mknob 25 500 1 2000 0 1 empty empty 1ms 7 32
0 8 -1625 -4032 -4032 0 1;
#X obj 159 67 preset_node b4p;
#X obj 219 47 preset_node b4p;
#X obj 269 67 preset_node b4p;
#X connect 1 0 18 0;
#X connect 7 0 12 0;
#X connect 9 0 19 0;
#X connect 12 0 32 0;
#X connect 14 0 15 0;
#X connect 15 0 33 0;
#X connect 16 0 17 0;
#X connect 16 0 30 0;
#X connect 17 0 22 0;
#X connect 18 0 16 0;
#X connect 19 0 34 0;
#X connect 20 0 25 0;
#X connect 21 0 22 4;
#X connect 22 0 24 0;
#X connect 23 0 21 0;
#X connect 23 1 21 1;
#X connect 24 0 20 0;
#X connect 25 0 11 0;
#X connect 28 0 27 0;
#X connect 29 0 27 0;
#X connect 30 0 29 0;
#X connect 30 0 31 0;
#X connect 31 0 28 0;
#X connect 32 0 7 0;
#X connect 32 0 21 0;
#X connect 32 0 22 1;
#X connect 33 0 14 0;
#X connect 33 0 22 2;
#X connect 33 0 23 0;
#X connect 34 0 9 0;
#X connect 34 0 22 3;
#X connect 35 0 32 0;
#X connect 36 0 33 0;
#X connect 37 0 34 0;
#X coords 0 -1 1 1 150 143 2 161 89;
