#N canvas 156 30 597 568 10;
#X obj 161 131 cnv 15 250 80 empty empty empty 20 12 0 14 -1625 -66577
0;
#X obj 121 298 inlet~;
#X obj 180 298 inlet~;
#X obj 224 382 inlet~;
#X obj 271 565 inlet~;
#X obj 19 1002 outlet~;
#X obj 122 367 +~;
#X obj 122 442 +~;
#X obj 122 464 *~ 12;
#X obj 181 342 *~ 0, f 5;
#X obj 224 425 *~ 0, f 5;
#X obj 161 212 cnv 15 250 20 empty empty empty 20 12 0 14 -1 -66577
0;
#X obj 164 217 cnv 10 35 12 empty empty Output 0 5 0 10 -1 -261234
0;
#X obj 161 89 cnv 15 250 20 empty empty empty 20 12 0 14 -1 -66577
0;
#X obj 164 96 cnv 10 35 12 empty empty CV1 0 5 0 10 -1 -261234 0;
#X obj 237 96 cnv 10 35 12 empty empty CV2 0 5 0 10 -1 -261234 0;
#X obj 318 96 cnv 10 35 12 empty empty CV3 0 5 0 10 -1 -261234 0;
#X obj 391 96 cnv 10 10 12 empty empty Lin 0 5 0 10 -1 -261234 0;
#X obj 233 144 cnv 15 12 12 empty empty CV2 0 5 0 10 -1625 -4032 0
;
#X obj 233 164 cnv 12 12 12 empty empty CV3 0 5 0 10 -1625 -4032 0
;
#X obj 233 184 cnv 12 12 12 empty empty Lin 0 5 0 10 -1625 -4032 0
;
#X obj 175 140 cnv 10 12 12 empty empty Offset 0 5 0 10 -1625 -4032
0;
#X obj 85 137 * 100;
#X obj 85 159 i;
#X msg 85 181 label \$1%;
#X obj 161 110 cnv 15 250 20 empty empty CLOUD 5 10 0 14 -2209 -4032
0;
#N canvas 297 227 450 300 switch 0;
#X obj 115 76 inlet~, f 7;
#X obj 36 76 inlet;
#X obj 36 171 sel 0;
#X obj 115 108 spigot~;
#X obj 175 76 inlet~, f 7;
#X obj 175 108 spigot~;
#X obj 235 76 inlet~, f 7;
#X obj 235 108 spigot~;
#X msg 36 190 0, f 1;
#X msg 63 190 1, f 1;
#X msg 96 190 0, f 1;
#X msg 123 190 1, f 1;
#X msg 156 190 0, f 1;
#X msg 183 190 1, f 1;
#X obj 96 171 sel 1;
#X obj 156 171 sel 2;
#X obj 184 146 outlet~;
#X connect 0 0 3 0;
#X connect 1 0 2 0;
#X connect 1 0 14 0;
#X connect 1 0 15 0;
#X connect 2 0 8 0;
#X connect 2 1 9 0;
#X connect 3 0 16 0;
#X connect 4 0 5 0;
#X connect 5 0 16 0;
#X connect 6 0 7 0;
#X connect 7 0 16 0;
#X connect 8 0 3 1;
#X connect 9 0 3 1;
#X connect 10 0 5 1;
#X connect 11 0 5 1;
#X connect 12 0 7 1;
#X connect 13 0 7 1;
#X connect 14 0 10 0;
#X connect 14 1 11 0;
#X connect 15 0 12 0;
#X connect 15 1 13 0;
#X restore 20 811 pd switch, f 51;
#X obj 18 568 r \$0-waveform;
#X obj 122 546 +~;
#X obj 137 506 - 0.5;
#X obj 137 526 * 24;
#X obj 441 146 * 100;
#X obj 441 168 i;
#X msg 441 190 label \$1%;
#X obj 352 141 cnv 10 12 12 empty empty Fatness 0 5 0 10 -1625 -4032
0;
#X obj 20 834 lop~ 10000;
#X obj 122 578 mtof~;
#X obj 122 681 *~;
#X obj 271 585 clip~ 0 100;
#X obj 271 605 expr~ 1 + $v1 * $f2 + ( 1 - $f2 );
#N canvas 297 90 450 300 mute 0;
#X obj 100 100 tgl 15 1 empty empty empty 17 7 0 10 -262144 -1 -1 0
1;
#X obj 100 100 cnv 15 50 15 empty empty empty 20 12 0 14 -2209 -66577
0;
#X obj 100 100 cnv 15 15 15 empty \$0-muteCnv Mute 20 7 0 12 -1625
-166441 0;
#X obj 153 243 s \$0-muteCnv;
#X obj 80 159 tgl 15 0 empty empty empty 17 7 0 10 -262144 -1 -1 0
1;
#X obj 153 135 sel 0;
#X obj 180 154 bng 8 250 50 0 empty empty empty 17 7 0 10 -262144 -1
-1;
#X obj 62 247 outlet;
#X msg 153 181 color -26209 1;
#X msg 180 206 color 47 47;
#X obj 48 177 expr 1 - $f1;
#X connect 0 0 5 0;
#X connect 0 0 4 0;
#X connect 0 0 10 0;
#X connect 5 0 8 0;
#X connect 5 1 6 0;
#X connect 6 0 9 0;
#X connect 8 0 3 0;
#X connect 9 0 3 0;
#X connect 10 0 7 0;
#X coords 0 -1 1 1 50 15 2 100 100;
#X restore 354 112 pd mute;
#X obj 135 911 line;
#X msg 135 891 \$1 10;
#X obj 135 930 sig~;
#X obj 19 977 *~;
#X obj 135 871 * 5;
#N canvas 198 154 1026 595 superPhasor~ 0;
#X obj 24 67 inlet~;
#X obj 158 67 inlet;
#X text 65 66 Audio;
#X text 197 69 Fatness;
#X obj 36 566 outlet~;
#X obj 669 271 phasor~;
#X obj 669 250 *~, f 7;
#X obj 669 294 *~ 2;
#X obj 669 316 -~ 1;
#X obj 708 229 + 1;
#X obj 669 163 r~ \$0-input;
#X obj 24 91 s~ \$0-input;
#X obj 203 292 phasor~;
#X obj 203 315 *~ 2;
#X obj 203 337 -~ 1;
#X obj 203 264 r~ \$0-input;
#X obj 655 493 i;
#X text 688 494 NSaws;
#X obj -234 273 phasor~;
#X obj -234 252 *~, f 7;
#X obj -234 296 *~ 2;
#X obj -234 318 -~ 1;
#X obj -195 231 + 1;
#X obj -234 165 r~ \$0-input;
#X obj -195 210 * -0.5;
#X obj 708 208 * 1;
#X obj 289 275 phasor~;
#X obj 289 254 *~, f 7;
#X obj 289 298 *~ 2;
#X obj 289 320 -~ 1;
#X obj 328 233 + 1;
#X obj 289 167 r~ \$0-input;
#X obj 328 212 * 0.25;
#X obj 413 273 phasor~;
#X obj 413 252 *~, f 7;
#X obj 413 296 *~ 2;
#X obj 413 318 -~ 1;
#X obj 452 231 + 1;
#X obj 413 165 r~ \$0-input;
#X obj 452 210 * 0.5;
#X obj 536 270 phasor~;
#X obj 536 249 *~, f 7;
#X obj 536 293 *~ 2;
#X obj 536 315 -~ 1;
#X obj 575 228 + 1;
#X obj 536 162 r~ \$0-input;
#X obj 575 207 * 0.75;
#X obj -116 271 phasor~;
#X obj -116 250 *~, f 7;
#X obj -116 294 *~ 2;
#X obj -116 316 -~ 1;
#X obj -77 229 + 1;
#X obj -116 163 r~ \$0-input;
#X obj 1 272 phasor~;
#X obj 1 251 *~, f 7;
#X obj 1 295 *~ 2;
#X obj 1 317 -~ 1;
#X obj 40 230 + 1;
#X obj 1 164 r~ \$0-input;
#X obj 121 272 phasor~;
#X obj 121 251 *~, f 7;
#X obj 121 295 *~ 2;
#X obj 121 317 -~ 1;
#X obj 160 230 + 1;
#X obj 121 164 r~ \$0-input;
#N canvas 546 225 780 404 sawSelector 0;
#X msg 125 44 1;
#X msg 135 64 0;
#X msg 181 44 1;
#X msg 191 64 0;
#X msg 237 44 1;
#X msg 247 64 0;
#X msg 293 44 1;
#X msg 303 64 0;
#X obj 125 22 sel 1 2 3 4 5 6 7 8 9, f 85;
#X msg 350 44 1;
#X msg 360 64 0;
#X msg 406 44 1;
#X msg 416 64 0;
#X msg 462 44 1;
#X msg 472 64 0;
#X msg 518 44 1;
#X msg 528 64 0;
#X msg 575 44 1;
#X obj 125 136 tgl 15 0 empty empty empty 17 7 0 10 -262144 -1 -1 1
1;
#X obj 178 136 tgl 15 0 empty empty empty 17 7 0 10 -262144 -1 -1 0
1;
#X obj 235 136 tgl 15 0 empty empty empty 17 7 0 10 -262144 -1 -1 0
1;
#X obj 288 136 tgl 15 0 empty empty empty 17 7 0 10 -262144 -1 -1 0
1;
#X obj 350 136 tgl 15 0 empty empty empty 17 7 0 10 -262144 -1 -1 0
1;
#X obj 403 136 tgl 15 0 empty empty empty 17 7 0 10 -262144 -1 -1 0
1;
#X obj 460 136 tgl 15 0 empty empty empty 17 7 0 10 -262144 -1 -1 0
1;
#X obj 513 136 tgl 15 0 empty empty empty 17 7 0 10 -262144 -1 -1 0
1;
#X obj 573 136 tgl 15 0 empty empty empty 17 7 0 10 -262144 -1 -1 0
1;
#X obj 66 -7 inlet;
#X obj 103 170 inlet~, f 7;
#X obj 103 215 outlet~;
#X obj 103 191 spigot~;
#X obj 156 170 inlet~, f 7;
#X obj 156 215 outlet~;
#X obj 156 191 spigot~;
#X obj 210 170 inlet~, f 7;
#X obj 210 215 outlet~;
#X obj 210 191 spigot~;
#X obj 264 170 inlet~, f 7;
#X obj 264 215 outlet~;
#X obj 264 191 spigot~;
#X obj 334 170 inlet~, f 7;
#X obj 334 215 outlet~;
#X obj 334 191 spigot~;
#X obj 401 170 inlet~, f 7;
#X obj 401 215 outlet~;
#X obj 401 191 spigot~;
#X obj 455 170 inlet~, f 7;
#X obj 455 215 outlet~;
#X obj 455 191 spigot~;
#X obj 509 170 inlet~, f 7;
#X obj 509 215 outlet~;
#X obj 509 191 spigot~;
#X obj 564 170 inlet~, f 7;
#X obj 564 215 outlet~;
#X obj 564 191 spigot~;
#X connect 0 0 18 0;
#X connect 1 0 19 0;
#X connect 1 0 20 0;
#X connect 1 0 21 0;
#X connect 1 0 22 0;
#X connect 1 0 23 0;
#X connect 1 0 24 0;
#X connect 1 0 25 0;
#X connect 1 0 26 0;
#X connect 2 0 18 0;
#X connect 2 0 19 0;
#X connect 3 0 20 0;
#X connect 3 0 26 0;
#X connect 3 0 25 0;
#X connect 3 0 24 0;
#X connect 3 0 23 0;
#X connect 3 0 22 0;
#X connect 3 0 21 0;
#X connect 4 0 20 0;
#X connect 4 0 19 0;
#X connect 4 0 18 0;
#X connect 5 0 21 0;
#X connect 5 0 26 0;
#X connect 5 0 25 0;
#X connect 5 0 24 0;
#X connect 5 0 23 0;
#X connect 5 0 22 0;
#X connect 6 0 21 0;
#X connect 6 0 20 0;
#X connect 6 0 19 0;
#X connect 6 0 18 0;
#X connect 7 0 22 0;
#X connect 7 0 26 0;
#X connect 7 0 25 0;
#X connect 7 0 24 0;
#X connect 7 0 23 0;
#X connect 8 0 0 0;
#X connect 8 0 1 0;
#X connect 8 1 2 0;
#X connect 8 1 3 0;
#X connect 8 2 4 0;
#X connect 8 2 5 0;
#X connect 8 3 6 0;
#X connect 8 3 7 0;
#X connect 8 4 9 0;
#X connect 8 4 10 0;
#X connect 8 5 11 0;
#X connect 8 5 12 0;
#X connect 8 6 13 0;
#X connect 8 6 14 0;
#X connect 8 7 15 0;
#X connect 8 7 16 0;
#X connect 8 8 17 0;
#X connect 9 0 22 0;
#X connect 9 0 21 0;
#X connect 9 0 20 0;
#X connect 9 0 19 0;
#X connect 9 0 18 0;
#X connect 10 0 23 0;
#X connect 10 0 26 0;
#X connect 10 0 25 0;
#X connect 10 0 24 0;
#X connect 11 0 23 0;
#X connect 11 0 22 0;
#X connect 11 0 21 0;
#X connect 11 0 20 0;
#X connect 11 0 19 0;
#X connect 11 0 18 0;
#X connect 12 0 24 0;
#X connect 12 0 26 0;
#X connect 12 0 25 0;
#X connect 13 0 24 0;
#X connect 13 0 23 0;
#X connect 13 0 22 0;
#X connect 13 0 21 0;
#X connect 13 0 20 0;
#X connect 13 0 19 0;
#X connect 13 0 18 0;
#X connect 14 0 25 0;
#X connect 14 0 26 0;
#X connect 15 0 25 0;
#X connect 15 0 24 0;
#X connect 15 0 23 0;
#X connect 15 0 22 0;
#X connect 15 0 21 0;
#X connect 15 0 20 0;
#X connect 15 0 19 0;
#X connect 15 0 18 0;
#X connect 16 0 26 0;
#X connect 17 0 26 0;
#X connect 17 0 25 0;
#X connect 17 0 24 0;
#X connect 17 0 23 0;
#X connect 17 0 22 0;
#X connect 17 0 21 0;
#X connect 17 0 20 0;
#X connect 17 0 19 0;
#X connect 17 0 18 0;
#X connect 18 0 42 1;
#X connect 19 0 54 1;
#X connect 20 0 30 1;
#X connect 21 0 51 1;
#X connect 22 0 33 1;
#X connect 23 0 48 1;
#X connect 24 0 36 1;
#X connect 25 0 45 1;
#X connect 26 0 39 1;
#X connect 27 0 8 0;
#X connect 28 0 30 0;
#X connect 30 1 29 0;
#X connect 31 0 33 0;
#X connect 33 1 32 0;
#X connect 34 0 36 0;
#X connect 36 1 35 0;
#X connect 37 0 39 0;
#X connect 39 1 38 0;
#X connect 40 0 42 0;
#X connect 42 1 41 0;
#X connect 43 0 45 0;
#X connect 45 1 44 0;
#X connect 46 0 48 0;
#X connect 48 1 47 0;
#X connect 49 0 51 0;
#X connect 51 1 50 0;
#X connect 52 0 54 0;
#X connect 54 1 53 0;
#X restore 36 417 pd sawSelector, f 67;
#X obj 655 515 s \$0-nSaws;
#X obj 35 396 r \$0-nSaws;
#X obj 36 444 expr~ $v1 + $v2 + $v3 + $v4 + $v5 + $v6 + $v7 + $v8 +
$v9, f 67;
#X obj 655 471 + 2;
#X obj 606 435 == 0;
#X obj 606 457 sel 1;
#X obj 606 479 bng 15 250 50 0 empty empty empty 17 7 0 10 -262144
-1 -1;
#X msg 606 499 1;
#X obj 655 418 t f f;
#X obj 158 89 / 20;
#X obj 40 209 * -0.25;
#X obj 160 209 * -0.125;
#X obj -77 208 * -0.375;
#X obj 655 449 * 175;
#X obj 158 111 s \$0-sf_fatness;
#X obj -195 189 r \$0-sf_fatness;
#X obj -77 187 r \$0-sf_fatness;
#X obj 40 188 r \$0-sf_fatness;
#X obj 160 188 r \$0-sf_fatness;
#X obj 328 191 r \$0-sf_fatness;
#X obj 452 189 r \$0-sf_fatness;
#X obj 575 186 r \$0-sf_fatness;
#X obj 708 187 r \$0-sf_fatness;
#X obj 655 396 r \$0-sf_fatness;
#X obj 305 121 switch~;
#X obj 306 52 inlet;
#X obj 306 74 sel 0;
#X msg 306 96 1;
#X msg 334 95 0;
#X connect 0 0 11 0;
#X connect 1 0 75 0;
#X connect 5 0 7 0;
#X connect 6 0 5 0;
#X connect 7 0 8 0;
#X connect 8 0 65 9;
#X connect 9 0 6 1;
#X connect 10 0 6 0;
#X connect 12 0 13 0;
#X connect 13 0 14 0;
#X connect 14 0 65 5;
#X connect 15 0 12 0;
#X connect 16 0 66 0;
#X connect 18 0 20 0;
#X connect 19 0 18 0;
#X connect 20 0 21 0;
#X connect 21 0 65 1;
#X connect 22 0 19 1;
#X connect 23 0 19 0;
#X connect 24 0 22 0;
#X connect 25 0 9 0;
#X connect 26 0 28 0;
#X connect 27 0 26 0;
#X connect 28 0 29 0;
#X connect 29 0 65 6;
#X connect 30 0 27 1;
#X connect 31 0 27 0;
#X connect 32 0 30 0;
#X connect 33 0 35 0;
#X connect 34 0 33 0;
#X connect 35 0 36 0;
#X connect 36 0 65 7;
#X connect 37 0 34 1;
#X connect 38 0 34 0;
#X connect 39 0 37 0;
#X connect 40 0 42 0;
#X connect 41 0 40 0;
#X connect 42 0 43 0;
#X connect 43 0 65 8;
#X connect 44 0 41 1;
#X connect 45 0 41 0;
#X connect 46 0 44 0;
#X connect 47 0 49 0;
#X connect 48 0 47 0;
#X connect 49 0 50 0;
#X connect 50 0 65 2;
#X connect 51 0 48 1;
#X connect 52 0 48 0;
#X connect 53 0 55 0;
#X connect 54 0 53 0;
#X connect 55 0 56 0;
#X connect 56 0 65 3;
#X connect 57 0 54 1;
#X connect 58 0 54 0;
#X connect 59 0 61 0;
#X connect 60 0 59 0;
#X connect 61 0 62 0;
#X connect 62 0 65 4;
#X connect 63 0 60 1;
#X connect 64 0 60 0;
#X connect 65 0 68 0;
#X connect 65 1 68 1;
#X connect 65 2 68 2;
#X connect 65 3 68 3;
#X connect 65 4 68 4;
#X connect 65 5 68 5;
#X connect 65 6 68 6;
#X connect 65 7 68 7;
#X connect 65 8 68 8;
#X connect 67 0 65 0;
#X connect 68 0 4 0;
#X connect 69 0 16 0;
#X connect 70 0 71 0;
#X connect 71 0 72 0;
#X connect 72 0 73 0;
#X connect 73 0 66 0;
#X connect 74 0 70 0;
#X connect 74 1 79 0;
#X connect 75 0 80 0;
#X connect 76 0 57 0;
#X connect 77 0 63 0;
#X connect 78 0 51 0;
#X connect 79 0 69 0;
#X connect 81 0 24 0;
#X connect 82 0 78 0;
#X connect 83 0 76 0;
#X connect 84 0 77 0;
#X connect 85 0 32 0;
#X connect 86 0 39 0;
#X connect 87 0 46 0;
#X connect 88 0 25 0;
#X connect 89 0 74 0;
#X connect 91 0 92 0;
#X connect 92 0 93 0;
#X connect 92 1 94 0;
#X connect 93 0 90 0;
#X connect 94 0 90 0;
#X restore 122 785 pd superPhasor~;
#N canvas 194 269 450 300 miniSlider 0;
#X obj 100 100 hsl 30 16 0 1 0 0 empty empty 0% 8 7 0 8 -33289 -4032
-4032 0 1;
#X obj 100 100 cnv 15 35 16 empty empty empty 20 12 0 14 -33289 -66577
0;
#X obj 100 100 cnv 1 1 16 empty \$0-sliderCV1 0% 10 7 0 10 -4032 -66577
0;
#X msg 177 141 label \$1%;
#X obj 176 99 * 100;
#X obj 176 121 i;
#X obj 99 146 outlet;
#X obj 97 36 inlet;
#X floatatom 273 122 5 0 0 0 - - -, f 5;
#X obj 257 88 * 35;
#X msg 270 154 vis_size \$1 16;
#X obj 271 189 s \$0-sliderCV1;
#X connect 0 0 4 0;
#X connect 0 0 6 0;
#X connect 0 0 9 0;
#X connect 3 0 11 0;
#X connect 4 0 5 0;
#X connect 5 0 3 0;
#X connect 7 0 0 0;
#X connect 8 0 10 0;
#X connect 9 0 10 0;
#X connect 10 0 11 0;
#X coords 0 -1 1 1 35 15 2 100 100;
#X restore 253 141 pd miniSlider;
#N canvas 194 269 450 300 miniSlider 0;
#X obj 100 100 hsl 30 16 0 1 0 0 empty empty 0% 8 7 0 8 -33289 -4032
-4032 0 1;
#X obj 100 100 cnv 15 35 16 empty empty empty 20 12 0 14 -33289 -66577
0;
#X obj 100 100 cnv 1 1 16 empty \$0-sliderCV2 0% 10 7 0 10 -4032 -66577
0;
#X msg 177 141 label \$1%;
#X obj 176 99 * 100;
#X obj 176 121 i;
#X obj 99 146 outlet;
#X obj 97 36 inlet;
#X floatatom 273 122 5 0 0 0 - - -, f 5;
#X obj 257 88 * 35;
#X msg 270 154 vis_size \$1 16;
#X obj 271 189 s \$0-sliderCV2;
#X connect 0 0 4 0;
#X connect 0 0 6 0;
#X connect 0 0 9 0;
#X connect 3 0 11 0;
#X connect 4 0 5 0;
#X connect 5 0 3 0;
#X connect 7 0 0 0;
#X connect 8 0 10 0;
#X connect 9 0 10 0;
#X connect 10 0 11 0;
#X coords 0 -1 1 1 35 15 2 100 100;
#X restore 253 161 pd miniSlider;
#N canvas 194 269 450 300 miniSlider 0;
#X obj 100 100 hsl 30 16 0 1 0 0 empty empty 0% 8 7 0 8 -33289 -4032
-4032 0 1;
#X obj 100 100 cnv 15 35 16 empty empty empty 20 12 0 14 -33289 -66577
0;
#X obj 100 100 cnv 1 1 16 empty \$0-sliderLin 0% 10 7 0 10 -4032 -66577
0;
#X msg 177 141 label \$1%;
#X obj 176 99 * 100;
#X obj 176 121 i;
#X obj 99 146 outlet;
#X obj 97 36 inlet;
#X floatatom 273 122 5 0 0 0 - - -, f 5;
#X obj 257 88 * 35;
#X msg 270 154 vis_size \$1 16;
#X obj 271 189 s \$0-sliderLin;
#X connect 0 0 4 0;
#X connect 0 0 6 0;
#X connect 0 0 9 0;
#X connect 3 0 11 0;
#X connect 4 0 5 0;
#X connect 5 0 3 0;
#X connect 7 0 0 0;
#X connect 8 0 10 0;
#X connect 9 0 10 0;
#X connect 10 0 11 0;
#X coords 0 -1 1 1 35 15 2 100 100;
#X restore 253 181 pd miniSlider;
#X obj 57 93 s \$0-octCounter;
#X obj 135 849 r \$0-mute;
#X obj 426 110 s \$0-mute;
#X obj 385 235 s \$0-fatness;
#X obj 165 739 r \$0-fatness;
#X obj 130 235 s \$0-cv2Atten;
#X obj 157 255 s \$0-cv3Atten;
#X obj 215 235 s \$0-linAtten;
#X obj 81 215 s \$0-offset;
#X obj 137 486 r \$0-offset;
#X obj 208 320 r \$0-cv2Atten;
#X obj 251 404 r \$0-cv3Atten;
#X obj 466 585 r \$0-linAtten;
#X obj 268 467 r \$0-octCounter;
#X obj 268 532 pow, f 5;
#X obj 268 490 t b f;
#X msg 268 512 2, f 1;
#X obj 122 620 *~;
#N canvas 587 93 674 483 waveSelector 0;
#N canvas 619 251 450 300 squareSelector 0;
#X obj 100 100 tgl 20 1 empty empty empty 17 7 0 10 -262144 -1 -1 1
1;
#X obj 100 120 tgl 20 0 empty empty empty 17 7 0 10 -262144 -1 -1 0
1;
#X obj 160 39 sel 1;
#X msg 160 61 0, f 1;
#X obj 40 39 sel 1;
#X msg 40 61 0, f 1;
#X msg 60 61 0, f 1;
#X obj 106 266 outlet;
#X msg 180 61 1, f 1;
#X obj 92 9 inlet;
#X obj 92 31 sel 0 1;
#X msg 91 51 1, f 1;
#X msg 111 51 1, f 1;
#X connect 0 0 4 0;
#X connect 1 0 2 0;
#X connect 2 0 3 0;
#X connect 2 0 8 0;
#X connect 3 0 0 0;
#X connect 4 0 5 0;
#X connect 4 0 6 0;
#X connect 5 0 1 0;
#X connect 6 0 7 0;
#X connect 8 0 7 0;
#X connect 9 0 10 0;
#X connect 10 0 11 0;
#X connect 10 1 12 0;
#X connect 11 0 0 0;
#X connect 12 0 1 0;
#X coords 0 -1 1 1 20 40 2 100 100;
#X restore 100 100 pd squareSelector;
#X obj 100 100 cnv 15 20 40 empty empty empty 20 12 0 14 -1625 -66577
0;
#X obj 101 124 cnv 10 12 12 empty \$0-sqrLbl SQR 0 5 0 10 -1625 -2209
0;
#X obj 101 104 cnv 10 12 12 empty \$0-sawLbl SAW 0 5 0 10 -1625 -44926
0;
#X obj 107 200 outlet;
#X msg 201 200 color -26209 47;
#X msg 228 219 color -26209 -34945;
#X obj 227 189 bng 8 250 50 0 empty empty empty 17 7 0 10 -262144 -1
-1;
#X obj 201 241 s \$0-sawLbl;
#X msg 352 200 color -26209 47;
#X msg 379 219 color -26209 -34945;
#X obj 378 189 bng 8 250 50 0 empty empty empty 17 7 0 10 -262144 -1
-1;
#X obj 352 241 s \$0-sqrLbl;
#X obj 200 170 sel 0;
#X obj 351 170 sel 1;
#X obj 96 46 inlet;
#X connect 0 0 4 0;
#X connect 0 0 13 0;
#X connect 0 0 14 0;
#X connect 5 0 8 0;
#X connect 6 0 8 0;
#X connect 7 0 6 0;
#X connect 9 0 12 0;
#X connect 10 0 12 0;
#X connect 11 0 10 0;
#X connect 13 0 5 0;
#X connect 13 1 7 0;
#X connect 14 0 9 0;
#X connect 14 1 11 0;
#X connect 15 0 0 0;
#X coords 0 -1 1 1 20 40 2 100 100;
#X restore 309 140 pd waveSelector;
#X obj 301 233 s \$0-waveform;
#N canvas 285 65 921 595 superSquare~ 0;
#X obj 24 67 inlet~;
#X obj 158 67 inlet;
#X text 65 66 Audio;
#X text 197 69 Fatness;
#X obj 36 566 outlet~;
#X obj 669 271 phasor~;
#X obj 669 250 *~, f 7;
#X obj 708 229 + 1;
#X obj 669 163 r~ \$0-input;
#X obj 24 91 s~ \$0-input;
#X obj 203 292 phasor~;
#X obj 203 264 r~ \$0-input;
#X obj 655 493 i;
#X text 688 494 NSaws;
#X obj -234 273 phasor~;
#X obj -234 252 *~, f 7;
#X obj -195 231 + 1;
#X obj -234 165 r~ \$0-input;
#X obj -195 210 * -0.5;
#X obj 708 208 * 1;
#X obj 289 275 phasor~;
#X obj 289 254 *~, f 7;
#X obj 328 233 + 1;
#X obj 289 167 r~ \$0-input;
#X obj 328 212 * 0.25;
#X obj 413 273 phasor~;
#X obj 413 252 *~, f 7;
#X obj 452 231 + 1;
#X obj 413 165 r~ \$0-input;
#X obj 452 210 * 0.5;
#X obj 536 270 phasor~;
#X obj 536 249 *~, f 7;
#X obj 575 228 + 1;
#X obj 536 162 r~ \$0-input;
#X obj 575 207 * 0.75;
#X obj -116 271 phasor~;
#X obj -116 250 *~, f 7;
#X obj -77 229 + 1;
#X obj -116 163 r~ \$0-input;
#X obj 1 272 phasor~;
#X obj 1 251 *~, f 7;
#X obj 40 230 + 1;
#X obj 1 164 r~ \$0-input;
#X obj 121 272 phasor~;
#X obj 121 251 *~, f 7;
#X obj 160 230 + 1;
#X obj 121 164 r~ \$0-input;
#N canvas 548 243 780 404 sawSelector 0;
#X msg 125 44 1;
#X msg 135 64 0;
#X msg 181 44 1;
#X msg 191 64 0;
#X msg 237 44 1;
#X msg 247 64 0;
#X msg 293 44 1;
#X msg 303 64 0;
#X obj 125 22 sel 1 2 3 4 5 6 7 8 9, f 85;
#X msg 350 44 1;
#X msg 360 64 0;
#X msg 406 44 1;
#X msg 416 64 0;
#X msg 462 44 1;
#X msg 472 64 0;
#X msg 518 44 1;
#X msg 528 64 0;
#X msg 575 44 1;
#X obj 125 136 tgl 15 0 empty empty empty 17 7 0 10 -262144 -1 -1 1
1;
#X obj 178 136 tgl 15 0 empty empty empty 17 7 0 10 -262144 -1 -1 0
1;
#X obj 235 136 tgl 15 0 empty empty empty 17 7 0 10 -262144 -1 -1 0
1;
#X obj 288 136 tgl 15 0 empty empty empty 17 7 0 10 -262144 -1 -1 0
1;
#X obj 350 136 tgl 15 0 empty empty empty 17 7 0 10 -262144 -1 -1 0
1;
#X obj 403 136 tgl 15 0 empty empty empty 17 7 0 10 -262144 -1 -1 0
1;
#X obj 460 136 tgl 15 0 empty empty empty 17 7 0 10 -262144 -1 -1 0
1;
#X obj 513 136 tgl 15 0 empty empty empty 17 7 0 10 -262144 -1 -1 0
1;
#X obj 573 136 tgl 15 0 empty empty empty 17 7 0 10 -262144 -1 -1 0
1;
#X obj 66 -7 inlet;
#X obj 103 170 inlet~, f 7;
#X obj 103 215 outlet~;
#X obj 103 191 spigot~;
#X obj 156 170 inlet~, f 7;
#X obj 156 215 outlet~;
#X obj 156 191 spigot~;
#X obj 210 170 inlet~, f 7;
#X obj 210 215 outlet~;
#X obj 210 191 spigot~;
#X obj 264 170 inlet~, f 7;
#X obj 264 215 outlet~;
#X obj 264 191 spigot~;
#X obj 334 170 inlet~, f 7;
#X obj 334 215 outlet~;
#X obj 334 191 spigot~;
#X obj 401 170 inlet~, f 7;
#X obj 401 215 outlet~;
#X obj 401 191 spigot~;
#X obj 455 170 inlet~, f 7;
#X obj 455 215 outlet~;
#X obj 455 191 spigot~;
#X obj 509 170 inlet~, f 7;
#X obj 509 215 outlet~;
#X obj 509 191 spigot~;
#X obj 564 170 inlet~, f 7;
#X obj 564 215 outlet~;
#X obj 564 191 spigot~;
#X connect 0 0 18 0;
#X connect 1 0 19 0;
#X connect 1 0 20 0;
#X connect 1 0 21 0;
#X connect 1 0 22 0;
#X connect 1 0 23 0;
#X connect 1 0 24 0;
#X connect 1 0 25 0;
#X connect 1 0 26 0;
#X connect 2 0 18 0;
#X connect 2 0 19 0;
#X connect 3 0 20 0;
#X connect 3 0 26 0;
#X connect 3 0 25 0;
#X connect 3 0 24 0;
#X connect 3 0 23 0;
#X connect 3 0 22 0;
#X connect 3 0 21 0;
#X connect 4 0 20 0;
#X connect 4 0 19 0;
#X connect 4 0 18 0;
#X connect 5 0 21 0;
#X connect 5 0 26 0;
#X connect 5 0 25 0;
#X connect 5 0 24 0;
#X connect 5 0 23 0;
#X connect 5 0 22 0;
#X connect 6 0 21 0;
#X connect 6 0 20 0;
#X connect 6 0 19 0;
#X connect 6 0 18 0;
#X connect 7 0 22 0;
#X connect 7 0 26 0;
#X connect 7 0 25 0;
#X connect 7 0 24 0;
#X connect 7 0 23 0;
#X connect 8 0 0 0;
#X connect 8 0 1 0;
#X connect 8 1 2 0;
#X connect 8 1 3 0;
#X connect 8 2 4 0;
#X connect 8 2 5 0;
#X connect 8 3 6 0;
#X connect 8 3 7 0;
#X connect 8 4 9 0;
#X connect 8 4 10 0;
#X connect 8 5 11 0;
#X connect 8 5 12 0;
#X connect 8 6 13 0;
#X connect 8 6 14 0;
#X connect 8 7 15 0;
#X connect 8 7 16 0;
#X connect 8 8 17 0;
#X connect 9 0 22 0;
#X connect 9 0 21 0;
#X connect 9 0 20 0;
#X connect 9 0 19 0;
#X connect 9 0 18 0;
#X connect 10 0 23 0;
#X connect 10 0 26 0;
#X connect 10 0 25 0;
#X connect 10 0 24 0;
#X connect 11 0 23 0;
#X connect 11 0 22 0;
#X connect 11 0 21 0;
#X connect 11 0 20 0;
#X connect 11 0 19 0;
#X connect 11 0 18 0;
#X connect 12 0 24 0;
#X connect 12 0 26 0;
#X connect 12 0 25 0;
#X connect 13 0 24 0;
#X connect 13 0 23 0;
#X connect 13 0 22 0;
#X connect 13 0 21 0;
#X connect 13 0 20 0;
#X connect 13 0 19 0;
#X connect 13 0 18 0;
#X connect 14 0 25 0;
#X connect 14 0 26 0;
#X connect 15 0 25 0;
#X connect 15 0 24 0;
#X connect 15 0 23 0;
#X connect 15 0 22 0;
#X connect 15 0 21 0;
#X connect 15 0 20 0;
#X connect 15 0 19 0;
#X connect 15 0 18 0;
#X connect 16 0 26 0;
#X connect 17 0 26 0;
#X connect 17 0 25 0;
#X connect 17 0 24 0;
#X connect 17 0 23 0;
#X connect 17 0 22 0;
#X connect 17 0 21 0;
#X connect 17 0 20 0;
#X connect 17 0 19 0;
#X connect 17 0 18 0;
#X connect 18 0 42 1;
#X connect 19 0 54 1;
#X connect 20 0 30 1;
#X connect 21 0 51 1;
#X connect 22 0 33 1;
#X connect 23 0 48 1;
#X connect 24 0 36 1;
#X connect 25 0 45 1;
#X connect 26 0 39 1;
#X connect 27 0 8 0;
#X connect 28 0 30 0;
#X connect 30 1 29 0;
#X connect 31 0 33 0;
#X connect 33 1 32 0;
#X connect 34 0 36 0;
#X connect 36 1 35 0;
#X connect 37 0 39 0;
#X connect 39 1 38 0;
#X connect 40 0 42 0;
#X connect 42 1 41 0;
#X connect 43 0 45 0;
#X connect 45 1 44 0;
#X connect 46 0 48 0;
#X connect 48 1 47 0;
#X connect 49 0 51 0;
#X connect 51 1 50 0;
#X connect 52 0 54 0;
#X connect 54 1 53 0;
#X restore 36 417 pd sawSelector, f 67;
#X obj 655 515 s \$0-nSaws;
#X obj 35 396 r \$0-nSaws;
#X obj 36 444 expr~ $v1 + $v2 + $v3 + $v4 + $v5 + $v6 + $v7 + $v8 +
$v9, f 67;
#X obj 655 471 + 2;
#X obj 606 435 == 0;
#X obj 606 457 sel 1;
#X obj 606 479 bng 15 250 50 0 empty empty empty 17 7 0 10 -262144
-1 -1;
#X msg 606 499 1;
#X obj 655 418 t f f;
#X obj 158 89 / 20;
#X obj 40 209 * -0.25;
#X obj 160 209 * -0.125;
#X obj -77 208 * -0.375;
#X obj 655 449 * 175;
#X obj 158 111 s \$0-sf_fatness;
#X obj -195 189 r \$0-sf_fatness;
#X obj -77 187 r \$0-sf_fatness;
#X obj 40 188 r \$0-sf_fatness;
#X obj 160 188 r \$0-sf_fatness;
#X obj 328 191 r \$0-sf_fatness;
#X obj 452 189 r \$0-sf_fatness;
#X obj 575 186 r \$0-sf_fatness;
#X obj 708 187 r \$0-sf_fatness;
#X obj 655 396 r \$0-sf_fatness;
#X obj 322 50 inlet;
#X obj -234 295 >~ 0.5;
#X obj -234 317 *~ 2;
#X obj -234 339 -~ 1;
#X obj -115 293 >~ 0.5;
#X obj -115 315 *~ 2;
#X obj -115 337 -~ 1;
#X obj -1 297 >~ 0.5;
#X obj -1 319 *~ 2;
#X obj -1 341 -~ 1;
#X obj 118 295 >~ 0.5;
#X obj 118 317 *~ 2;
#X obj 118 339 -~ 1;
#X obj 203 316 >~ 0.5;
#X obj 203 338 *~ 2;
#X obj 203 360 -~ 1;
#X obj 292 300 >~ 0.5;
#X obj 292 322 *~ 2;
#X obj 292 344 -~ 1;
#X obj 416 301 >~ 0.5;
#X obj 416 323 *~ 2;
#X obj 416 345 -~ 1;
#X obj 535 299 >~ 0.5;
#X obj 535 321 *~ 2;
#X obj 535 343 -~ 1;
#X obj 672 295 >~ 0.5;
#X obj 672 317 *~ 2;
#X obj 672 339 -~ 1;
#X obj 433 97 switch~;
#X obj 434 28 inlet;
#X msg 434 72 1, f 1;
#X msg 462 71 0, f 1;
#X obj 434 50 sel 1;
#X connect 0 0 9 0;
#X connect 1 0 57 0;
#X connect 5 0 97 0;
#X connect 6 0 5 0;
#X connect 7 0 6 1;
#X connect 8 0 6 0;
#X connect 10 0 85 0;
#X connect 11 0 10 0;
#X connect 12 0 48 0;
#X connect 14 0 73 0;
#X connect 15 0 14 0;
#X connect 16 0 15 1;
#X connect 17 0 15 0;
#X connect 18 0 16 0;
#X connect 19 0 7 0;
#X connect 20 0 88 0;
#X connect 21 0 20 0;
#X connect 22 0 21 1;
#X connect 23 0 21 0;
#X connect 24 0 22 0;
#X connect 25 0 91 0;
#X connect 26 0 25 0;
#X connect 27 0 26 1;
#X connect 28 0 26 0;
#X connect 29 0 27 0;
#X connect 30 0 94 0;
#X connect 31 0 30 0;
#X connect 32 0 31 1;
#X connect 33 0 31 0;
#X connect 34 0 32 0;
#X connect 35 0 76 0;
#X connect 36 0 35 0;
#X connect 37 0 36 1;
#X connect 38 0 36 0;
#X connect 39 0 79 0;
#X connect 40 0 39 0;
#X connect 41 0 40 1;
#X connect 42 0 40 0;
#X connect 43 0 82 0;
#X connect 44 0 43 0;
#X connect 45 0 44 1;
#X connect 46 0 44 0;
#X connect 47 0 50 0;
#X connect 47 1 50 1;
#X connect 47 2 50 2;
#X connect 47 3 50 3;
#X connect 47 4 50 4;
#X connect 47 5 50 5;
#X connect 47 6 50 6;
#X connect 47 7 50 7;
#X connect 47 8 50 8;
#X connect 49 0 47 0;
#X connect 50 0 4 0;
#X connect 51 0 12 0;
#X connect 52 0 53 0;
#X connect 53 0 54 0;
#X connect 54 0 55 0;
#X connect 55 0 48 0;
#X connect 56 0 52 0;
#X connect 56 1 61 0;
#X connect 57 0 62 0;
#X connect 58 0 41 0;
#X connect 59 0 45 0;
#X connect 60 0 37 0;
#X connect 61 0 51 0;
#X connect 63 0 18 0;
#X connect 64 0 60 0;
#X connect 65 0 58 0;
#X connect 66 0 59 0;
#X connect 67 0 24 0;
#X connect 68 0 29 0;
#X connect 69 0 34 0;
#X connect 70 0 19 0;
#X connect 71 0 56 0;
#X connect 72 0 88 1;
#X connect 72 0 97 1;
#X connect 72 0 94 1;
#X connect 72 0 91 1;
#X connect 72 0 85 1;
#X connect 72 0 82 1;
#X connect 72 0 79 1;
#X connect 72 0 76 1;
#X connect 72 0 73 1;
#X connect 73 0 74 0;
#X connect 74 0 75 0;
#X connect 75 0 47 1;
#X connect 76 0 77 0;
#X connect 77 0 78 0;
#X connect 78 0 47 2;
#X connect 79 0 80 0;
#X connect 80 0 81 0;
#X connect 81 0 47 3;
#X connect 82 0 83 0;
#X connect 83 0 84 0;
#X connect 84 0 47 4;
#X connect 85 0 86 0;
#X connect 86 0 87 0;
#X connect 87 0 47 5;
#X connect 88 0 89 0;
#X connect 89 0 90 0;
#X connect 90 0 47 6;
#X connect 91 0 92 0;
#X connect 92 0 93 0;
#X connect 93 0 47 7;
#X connect 94 0 95 0;
#X connect 95 0 96 0;
#X connect 96 0 47 8;
#X connect 97 0 98 0;
#X connect 98 0 99 0;
#X connect 99 0 47 9;
#X connect 101 0 104 0;
#X connect 102 0 100 0;
#X connect 103 0 100 0;
#X connect 104 0 102 0;
#X connect 104 1 103 0;
#X restore 222 713 pd superSquare~;
#X obj 250 653 r \$0-fatness;
#X obj 331 193 cnv 10 10 12 empty empty PW 0 5 0 10 -1625 -4032 0;
#X obj 180 158 moonlib/mknob 25 500 0 1 0 1 empty empty 50% 7 32 0
8 -1625 -4032 -4032 24950 1;
#X obj 312 184 moonlib/mknob 15 200 0.5 0.99 0 1 empty empty empty
7 32 0 8 -1625 -4032 -4032 0 1;
#X obj 361 160 moonlib/mknob 25 200 0 1 0 1 empty empty 0% 7 32 0 8
-1625 -4032 -4032 0 1;
#X obj 211 66 preset_node b4p;
#X obj 164 42 preset_node b4p;
#X obj 316 53 preset_node b4p;
#X obj 423 59 preset_node b4p;
#N canvas 745 157 450 300 octaveController 0;
#N canvas 333 253 450 300 counter 0;
#X obj 136 155 i;
#X obj 164 155 + 1;
#X msg 179 133 1;
#X msg 201 106 -1;
#X obj 165 84 t b b b;
#X obj 141 107 t b b b;
#X obj 199 35 inlet;
#X obj 133 47 inlet;
#X obj 135 200 outlet;
#X obj 22 121 loadbang;
#X msg 22 143 0;
#X obj 91 71 route set;
#X msg 91 93 \$1;
#X connect 0 0 1 0;
#X connect 0 0 8 0;
#X connect 1 0 0 1;
#X connect 2 0 1 1;
#X connect 3 0 1 1;
#X connect 4 0 0 0;
#X connect 4 1 1 0;
#X connect 4 2 3 0;
#X connect 5 0 0 0;
#X connect 5 1 1 0;
#X connect 5 2 2 0;
#X connect 6 0 4 0;
#X connect 7 0 11 0;
#X connect 9 0 10 0;
#X connect 10 0 0 0;
#X connect 11 0 12 0;
#X connect 11 1 5 0;
#X connect 12 0 0 0;
#X restore 110 183 pd counter;
#X obj 104 338 s \$0-octLbl;
#X obj 104 214 < 0;
#X obj 104 236 sel 1;
#X msg 131 315 label +\$1oct;
#X msg 104 288 label \$1oct;
#X obj 104 263 i;
#X obj 131 266 i;
#X obj 131 255 bng 8 250 50 0 empty empty empty 17 7 0 10 -262144 -1
-1;
#N canvas 623 335 450 300 mute 0;
#X obj 100 100 bng 19 250 50 0 empty empty empty 17 7 0 10 -262144
-1 -1;
#X obj 100 100 cnv 19 19 19 empty \$0-plusCnv + 5 8 0 16 -1625 -44926
0;
#X obj 61 152 outlet;
#X obj 100 124 bng 15 250 50 0 empty empty empty 17 7 0 10 -262144
-1 -1;
#X obj 185 134 sel 0;
#X obj 212 153 bng 8 250 50 0 empty empty empty 17 7 0 10 -262144 -1
-1;
#X obj 185 242 s \$0-plusCnv;
#X obj 105 168 delay 100;
#X msg 185 180 color -26209 47;
#X msg 212 205 color 47 0;
#X connect 0 0 3 0;
#X connect 0 0 2 0;
#X connect 3 0 9 0;
#X connect 3 0 7 0;
#X connect 4 0 8 0;
#X connect 4 1 5 0;
#X connect 5 0 9 0;
#X connect 7 0 8 0;
#X connect 8 0 6 0;
#X connect 9 0 6 0;
#X coords 0 -1 1 1 19 19 2 100 100;
#X restore 100 100 pd mute;
#N canvas 627 110 450 300 mute 0;
#X obj 100 100 bng 19 250 50 0 empty empty empty 17 7 0 10 -262144
-1 -1;
#X obj 100 100 cnv 19 19 19 empty \$0-minusCnv - 5 8 0 17 -1625 -44926
0;
#X obj 61 152 outlet;
#X obj 100 124 bng 15 250 50 0 empty empty empty 17 7 0 10 -262144
-1 -1;
#X obj 208 126 sel 0;
#X obj 235 145 bng 8 250 50 0 empty empty empty 17 7 0 10 -262144 -1
-1;
#X obj 128 160 delay 100;
#X obj 208 234 s \$0-minusCnv;
#X msg 208 171 color -26209 47;
#X msg 235 197 color 47 0;
#X connect 0 0 3 0;
#X connect 0 0 2 0;
#X connect 3 0 6 0;
#X connect 3 0 9 0;
#X connect 4 0 8 0;
#X connect 4 1 5 0;
#X connect 5 0 9 0;
#X connect 6 0 8 0;
#X connect 8 0 7 0;
#X connect 9 0 7 0;
#X coords 0 -1 1 1 19 19 2 100 100;
#X restore 151 100 pd mute;
#X obj 120 100 cnv 19 30 19 empty \$0-octLbl +0oct 0 8 0 10 -1625 -4032
0;
#X obj 23 80 inlet;
#X obj 18 338 outlet;
#X msg 23 102 set \$1;
#X connect 0 0 6 1;
#X connect 0 0 7 1;
#X connect 0 0 2 0;
#X connect 0 0 13 0;
#X connect 2 0 3 0;
#X connect 3 0 6 0;
#X connect 3 1 8 0;
#X connect 4 0 1 0;
#X connect 5 0 1 0;
#X connect 6 0 5 0;
#X connect 7 0 4 0;
#X connect 8 0 7 0;
#X connect 9 0 0 0;
#X connect 10 0 0 1;
#X connect 12 0 14 0;
#X connect 14 0 0 0;
#X coords 0 -1 1 1 70 19 2 100 100;
#X restore 213 117 pd octaveController;
#X obj 209 759 r \$0-waveform;
#X obj 323 259 s \$0-pw;
#X obj 280 672 r \$0-pw;
#X obj 309 691 r \$0-waveform;
#X connect 1 0 6 0;
#X connect 2 0 9 0;
#X connect 3 0 10 0;
#X connect 4 0 38 0;
#X connect 6 0 7 0;
#X connect 7 0 8 0;
#X connect 8 0 28 0;
#X connect 9 0 6 1;
#X connect 10 0 7 1;
#X connect 22 0 23 0;
#X connect 23 0 24 0;
#X connect 24 0 73 0;
#X connect 26 0 35 0;
#X connect 27 0 26 0;
#X connect 28 0 36 0;
#X connect 29 0 30 0;
#X connect 30 0 28 1;
#X connect 31 0 32 0;
#X connect 32 0 33 0;
#X connect 33 0 75 0;
#X connect 35 0 44 0;
#X connect 36 0 67 0;
#X connect 37 0 46 0;
#X connect 37 0 70 0;
#X connect 38 0 39 0;
#X connect 39 0 37 1;
#X connect 40 0 52 0;
#X connect 41 0 43 0;
#X connect 42 0 41 0;
#X connect 43 0 44 1;
#X connect 44 0 5 0;
#X connect 45 0 42 0;
#X connect 46 0 26 1;
#X connect 47 0 55 0;
#X connect 48 0 56 0;
#X connect 49 0 57 0;
#X connect 51 0 45 0;
#X connect 54 0 46 1;
#X connect 59 0 29 0;
#X connect 60 0 9 1;
#X connect 61 0 10 1;
#X connect 62 0 39 1;
#X connect 63 0 65 0;
#X connect 64 0 67 1;
#X connect 65 0 66 0;
#X connect 65 1 64 1;
#X connect 66 0 64 0;
#X connect 67 0 37 0;
#X connect 68 0 69 0;
#X connect 70 0 26 2;
#X connect 71 0 70 1;
#X connect 73 0 22 0;
#X connect 73 0 58 0;
#X connect 74 0 82 0;
#X connect 75 0 31 0;
#X connect 75 0 53 0;
#X connect 76 0 80 0;
#X connect 77 0 73 0;
#X connect 78 0 74 0;
#X connect 78 0 75 0;
#X connect 79 0 68 0;
#X connect 80 0 50 0;
#X connect 81 0 46 2;
#X connect 83 0 70 2;
#X connect 84 0 70 3;
#X coords 0 -1 1 1 250 143 2 161 89;
