#N canvas 683 200 647 568 10;
#X obj 161 131 cnv 15 250 80 empty empty empty 20 12 0 14 -1625 -66577
0;
#X obj 134 463 inlet~;
#X obj 212 462 inlet~;
#X obj 294 461 inlet~;
#X obj 80 859 outlet~;
#X obj 134 540 +~;
#X obj 134 565 +~;
#X obj 212 514 *~ 0, f 5;
#X obj 294 512 *~ 0, f 5;
#X obj 161 212 cnv 15 250 20 empty empty empty 20 12 0 14 -1 -66577
0;
#X obj 164 217 cnv 10 35 12 empty empty Output 0 5 0 10 -1 -261234
0;
#X obj 161 89 cnv 15 250 20 empty empty empty 20 12 0 14 -1 -66577
0;
#X obj 164 96 cnv 10 35 12 empty empty Signal 0 5 0 10 -1 -261234 0
;
#X obj 253 96 cnv 10 35 12 empty empty CV2 0 5 0 10 -1 -261234 0;
#X obj 301 96 cnv 10 35 12 empty empty CV3 0 5 0 10 -1 -261234 0;
#X obj 182 140 cnv 10 12 12 empty empty Freq 0 5 0 10 -1625 -4032 0
;
#X obj 0 135 i;
#X obj 161 110 cnv 15 250 20 empty empty LADDER 5 10 0 14 -2209 -4032
0;
#X obj 351 96 cnv 10 10 12 empty empty Res 0 5 0 10 -1 -261234 0;
#X obj 0 154 moses 1000;
#X msg 0 173 label \$1Hz;
#X msg 33 227 label \$1KHz;
#X obj 73 170 / 100;
#X obj 73 189 i, f 5;
#X obj 73 208 / 10, f 5;
#X obj 108 774 moog~, f 10;
#X obj 85 676 inlet~;
#X obj 56 705 clip~ -5 5;
#X obj 56 727 /~ 5;
#X obj 108 796 *~ 5;
#X obj 206 96 cnv 10 35 12 empty empty CV1 0 5 0 10 -1 -261234 0;
#X obj 234 140 cnv 10 12 12 empty empty CV1 0 5 0 10 -1625 -4032 0
;
#X obj 86 48 * 100;
#X obj 86 70 i;
#X msg 86 92 label \$1%;
#X obj 516 85 * 100;
#X obj 516 107 i;
#X msg 516 129 label \$1%;
#X obj 274 140 cnv 10 12 12 empty empty CV2 0 5 0 10 -1625 -4032 0
;
#X obj 314 140 cnv 10 12 12 empty empty CV3 0 5 0 10 -1625 -4032 0
;
#X obj 354 140 cnv 10 12 12 empty empty Res 0 5 0 10 -1625 -4032 0
;
#X obj 386 148 cnv 10 12 12 empty empty CV 0 5 0 8 -1625 -4032 0;
#X obj 375 170 cnv 1 8 1 empty empty empty 20 12 0 14 -4032 -66577
0;
#X obj 520 157 * 100;
#X obj 520 179 i;
#X msg 520 201 label \$1%;
#X obj 459 16 * 100;
#X obj 459 38 i;
#X msg 459 60 label \$1%;
#X obj 156 633 ftom;
#X obj 156 655 / 12;
#X obj 135 679 +~ 0;
#X obj 135 720 mtof~;
#X obj 135 700 *~ 12;
#X obj 134 516 *~ 0;
#X obj 352 611 inlet~;
#X obj 352 732 +~ 0;
#X obj 353 752 clip~ 1 4;
#X obj 352 652 +~ 1;
#X obj 352 632 *~ 0.6;
#X obj 352 703 *~ 0;
#N canvas 297 90 450 300 mute 0;
#X obj 100 100 tgl 15 1 empty empty empty 17 7 0 10 -262144 -1 -1 0
1;
#X obj 100 100 cnv 15 65 15 empty empty empty 20 12 0 14 -2209 -66577
0;
#X obj 100 100 cnv 15 15 15 empty \$0-bypassCnv Bypass 20 7 0 12 -1625
-166441 0;
#X obj 80 159 tgl 15 0 empty empty empty 17 7 0 10 -262144 -1 -1 0
1;
#X obj 153 135 sel 0;
#X obj 180 154 bng 8 250 50 0 empty empty empty 17 7 0 10 -262144 -1
-1;
#X msg 153 181 color -26209 1;
#X msg 180 206 color 47 47;
#X obj 153 243 s \$0-bypassCnv;
#X obj 48 179 outlet;
#X connect 0 0 4 0;
#X connect 0 0 3 0;
#X connect 0 0 9 0;
#X connect 4 0 6 0;
#X connect 4 1 5 0;
#X connect 5 0 7 0;
#X connect 6 0 8 0;
#X connect 7 0 8 0;
#X coords 0 -1 1 1 65 15 2 100 100;
#X restore 343 112 pd mute;
#N canvas 297 227 450 300 switch 0;
#X obj 115 76 inlet~, f 7;
#X obj 36 76 inlet;
#X obj 36 171 sel 0;
#X obj 115 108 spigot~;
#X obj 175 76 inlet~, f 7;
#X obj 175 108 spigot~;
#X msg 36 190 0, f 1;
#X msg 63 190 1, f 1;
#X msg 96 190 0, f 1;
#X msg 123 190 1, f 1;
#X obj 96 171 sel 1;
#X obj 184 146 outlet~;
#X connect 0 0 3 0;
#X connect 1 0 2 0;
#X connect 1 0 10 0;
#X connect 2 0 6 0;
#X connect 2 1 7 0;
#X connect 3 0 11 0;
#X connect 4 0 5 0;
#X connect 5 0 11 0;
#X connect 6 0 3 1;
#X connect 7 0 3 1;
#X connect 8 0 5 1;
#X connect 9 0 5 1;
#X connect 10 0 8 0;
#X connect 10 1 9 0;
#X restore 80 831 pd switch, f 10;
#X obj 129 232 s \$0-freq;
#X obj 156 610 r \$0-freq;
#X obj 180 255 s \$0-cv1;
#X obj 155 491 r \$0-cv1;
#X obj 255 235 s \$0-cv2;
#X obj 317 237 s \$0-cv3;
#X obj 357 256 s \$0-res;
#X obj 380 235 s \$0-cvRes;
#X obj 239 490 r \$0-cv2;
#X obj 321 489 r \$0-cv3;
#X obj 444 643 r \$0-res;
#X obj 373 682 r \$0-cvRes;
#X obj 459 251 s \$0-bypass;
#X obj 21 783 r \$0-bypass;
#X obj 433 455 inlet;
#X obj 442 547 s \$0-fromMaster;
#X obj 433 568 s \$0-toSlave;
#X obj 433 493 prepent set;
#X obj 508 481 bng 8 250 50 0 empty empty empty 17 7 0 10 -262144 -1
-1;
#X msg 433 527;
#X obj 508 493 delay 10;
#X obj 498 811 outlet;
#X obj 498 788 r \$0-toSlave;
#X obj 183 -18 r \$0-fromMaster;
#X obj 183 7 route freq cv1 cv2 cv3 res cvRes, f 36;
#X obj 248 369 s \$0-toSlave;
#X obj 178 306 r \$0-freq;
#X msg 178 328 freq \$1;
#X obj 252 300 r \$0-cv1;
#X obj 317 300 r \$0-cv2;
#X obj 381 301 r \$0-cv3;
#X obj 439 299 r \$0-res;
#X obj 498 299 r \$0-cvRes;
#X msg 317 325 cv2 \$1;
#X msg 252 323 cv1 \$1;
#X msg 381 323 cv3 \$1;
#X msg 438 322 res \$1;
#X msg 499 324 cvRes \$1;
#X obj 180 158 moonlib/mknob 25 300 1 20000 1 1 empty empty 20KHz 5
32 0 8 -1625 -4032 -4032 29900 1;
#X obj 230 158 moonlib/mknob 25 100 0 1 0 1 empty empty 0% 7 32 0 8
-1625 -4032 -4032 0 1;
#X obj 270 158 moonlib/mknob 25 100 0 1 0 1 empty empty 0% 7 32 0 8
-1625 -4032 -4032 0 1;
#X obj 310 158 moonlib/mknob 25 100 0 1 0 1 empty empty 0% 7 32 0 8
-1625 -4032 -4032 0 1;
#X obj 350 158 moonlib/mknob 25 100 0 1 0 1 empty empty 0% 7 32 0 8
-1625 -4032 -4032 0 1;
#X obj 383 163 moonlib/mknob 15 200 0 1 0 1 empty empty empty 3 24
0 8 -1625 -4032 -4032 0 1;
#X obj 168 42 preset_node b4p;
#X obj 187 65 preset_node b4p;
#X obj 266 42 preset_node b4p;
#X obj 286 65 preset_node b4p;
#X obj 364 43 preset_node b4p;
#X obj 411 101 preset_node b4p;
#X obj 393 94 cnv 10 10 12 empty empty ● 0 5 0 10 -1 -261234 0;
#X obj 393 216 cnv 10 10 12 empty empty ● 0 5 0 10 -1 -261234 0;
#X obj 444 668 * 4;
#X connect 1 0 54 0;
#X connect 2 0 7 0;
#X connect 3 0 8 0;
#X connect 5 0 6 0;
#X connect 6 0 51 0;
#X connect 7 0 5 1;
#X connect 8 0 6 1;
#X connect 16 0 19 0;
#X connect 19 0 20 0;
#X connect 19 1 22 0;
#X connect 20 0 101 0;
#X connect 21 0 101 0;
#X connect 22 0 23 0;
#X connect 23 0 24 0;
#X connect 24 0 21 0;
#X connect 25 0 29 0;
#X connect 26 0 27 0;
#X connect 26 0 62 2;
#X connect 27 0 28 0;
#X connect 28 0 25 0;
#X connect 29 0 62 1;
#X connect 32 0 33 0;
#X connect 33 0 34 0;
#X connect 34 0 102 0;
#X connect 35 0 36 0;
#X connect 36 0 37 0;
#X connect 37 0 104 0;
#X connect 43 0 44 0;
#X connect 44 0 45 0;
#X connect 45 0 105 0;
#X connect 46 0 47 0;
#X connect 47 0 48 0;
#X connect 48 0 103 0;
#X connect 49 0 50 0;
#X connect 50 0 51 1;
#X connect 51 0 53 0;
#X connect 52 0 25 1;
#X connect 53 0 52 0;
#X connect 54 0 5 0;
#X connect 55 0 59 0;
#X connect 56 0 57 0;
#X connect 57 0 25 2;
#X connect 58 0 60 0;
#X connect 59 0 58 0;
#X connect 60 0 56 0;
#X connect 61 0 75 0;
#X connect 62 0 4 0;
#X connect 64 0 49 0;
#X connect 66 0 54 1;
#X connect 71 0 7 1;
#X connect 72 0 8 1;
#X connect 73 0 115 0;
#X connect 74 0 60 1;
#X connect 76 0 62 0;
#X connect 77 0 80 0;
#X connect 77 0 81 0;
#X connect 80 0 82 0;
#X connect 81 0 83 0;
#X connect 82 0 78 0;
#X connect 82 0 79 0;
#X connect 83 0 82 0;
#X connect 85 0 84 0;
#X connect 86 0 87 0;
#X connect 87 0 101 0;
#X connect 87 1 102 0;
#X connect 87 2 103 0;
#X connect 87 3 104 0;
#X connect 87 4 105 0;
#X connect 87 5 106 0;
#X connect 89 0 90 0;
#X connect 90 0 88 0;
#X connect 91 0 97 0;
#X connect 92 0 96 0;
#X connect 93 0 98 0;
#X connect 94 0 99 0;
#X connect 95 0 100 0;
#X connect 96 0 88 0;
#X connect 97 0 88 0;
#X connect 98 0 88 0;
#X connect 99 0 88 0;
#X connect 100 0 88 0;
#X connect 101 0 16 0;
#X connect 101 0 63 0;
#X connect 102 0 32 0;
#X connect 102 0 65 0;
#X connect 103 0 46 0;
#X connect 103 0 67 0;
#X connect 104 0 35 0;
#X connect 104 0 68 0;
#X connect 105 0 43 0;
#X connect 105 0 69 0;
#X connect 106 0 70 0;
#X connect 107 0 101 0;
#X connect 108 0 102 0;
#X connect 109 0 103 0;
#X connect 110 0 104 0;
#X connect 111 0 105 0;
#X connect 112 0 106 0;
#X connect 115 0 56 1;
#X coords 0 -1 1 1 250 143 2 161 89;
