#N canvas 711 68 549 568 10;
#X obj 161 131 cnv 15 210 80 empty empty empty 20 12 0 14 -1625 -66577
0;
#X obj 161 212 cnv 15 210 20 empty empty empty 20 12 0 14 -1 -66577
0;
#X obj 164 217 cnv 10 35 12 empty empty Out\ 1 0 5 0 10 -1 -261234
0;
#X obj 161 89 cnv 15 210 20 empty empty empty 20 12 0 14 -1 -66577
0;
#X obj 164 96 cnv 10 35 12 empty empty In\ 1 0 5 0 10 -1 -261234 0
;
#X obj 177 140 cnv 10 12 12 empty empty Size 0 5 0 10 -1625 -4032 0
;
#X obj 161 110 cnv 15 210 20 empty empty FREEVERB 5 10 0 14 -2209 -4032
0;
#X obj 398 77 * 100;
#X obj 398 99 i;
#X msg 398 121 label \$1%;
#X obj 273 140 cnv 10 12 12 empty empty Width 0 5 0 10 -1625 -4032
0;
#X obj 227 140 cnv 10 12 12 empty empty Damp 0 5 0 10 -1625 -4032 0
;
#X obj 80 93 i;
#X obj 324 140 cnv 10 12 12 empty empty Blend 0 5 0 10 -1625 -4032
0;
#X obj 402 175 i;
#X obj 134 587 inlet~;
#X obj 134 666 outlet~;
#X obj 80 73 * 100;
#X msg 80 115 label \$1%;
#X obj 402 155 * 100;
#X obj 134 627 freeverb~;
#X obj 78 168 i;
#X obj 78 148 * 100;
#X msg 78 190 label \$1%;
#X msg 433 312 roomsize \$1;
#X msg 433 354 damping \$1;
#X msg 433 406 width \$1;
#X msg 433 448 wet \$1;
#X msg 433 470 dry \$1;
#X msg 433 494 freeze \$1;
#X msg 433 536 bypass \$1;
#X obj 315 587 inlet~;
#X obj 315 666 outlet~;
#X obj 176 235 s \$0-roomSize;
#X obj 227 255 s \$0-damping;
#X obj 266 235 s \$0-width;
#X obj 326 255 s \$0-blend;
#X obj 433 292 r \$0-roomSize;
#X msg 402 197 label \$1%;
#X obj 433 386 r \$0-width;
#X obj 433 334 r \$0-damping;
#X obj 501 431 r \$0-blend;
#X obj 501 453 expr 1 - $f1;
#N canvas 297 90 450 300 mute 0;
#X obj 100 100 tgl 15 1 empty empty empty 17 7 0 10 -262144 -1 -1 0
1;
#X obj 100 100 cnv 15 65 15 empty empty empty 20 12 0 14 -2209 -66577
0;
#X obj 100 100 cnv 15 15 15 empty \$0-bypassCnv Bypass 20 7 0 12 -1625
-166441 0;
#X obj 80 159 tgl 15 0 empty empty empty 17 7 0 10 -262144 -1 -1 0
1;
#X obj 153 135 sel 0;
#X obj 180 154 bng 8 250 50 0 empty empty empty 17 7 0 10 -262144 -1
-1;
#X msg 153 181 color -26209 1;
#X msg 180 206 color 47 47;
#X obj 153 243 s \$0-bypassCnv;
#X obj 48 179 outlet;
#X connect 0 0 4 0;
#X connect 0 0 3 0;
#X connect 0 0 9 0;
#X connect 4 0 6 0;
#X connect 4 1 5 0;
#X connect 5 0 7 0;
#X connect 6 0 8 0;
#X connect 7 0 8 0;
#X coords 0 -1 1 1 65 15 2 100 100;
#X restore 303 112 pd mute;
#X obj 414 48 s \$0-bypass;
#X obj 433 516 r \$0-bypass;
#X obj 339 217 cnv 10 5 12 empty empty Out\ 2 0 5 0 10 -1 -261234 0
;
#X obj 345 96 cnv 10 5 12 empty empty In\ 2 0 5 0 10 -1 -261234 0;
#X obj 249 96 cnv 10 35 12 empty empty Freeze 0 5 0 10 -1 -261234 0
;
#X obj 188 304 inlet~;
#X obj 188 330 threshold~ 3 10 2 10;
#X obj 305 350 bng 8 250 50 0 empty empty empty 17 7 0 10 -262144 -1
-1;
#X msg 188 352 1, f 1;
#X msg 305 363 0, f 1;
#X obj 235 95 cnv 8 8 8 empty \$0-freezeLed empty 20 12 0 14 -66577
-262144 0;
#X msg 180 418 color 2;
#X msg 241 424 color 1;
#X obj 180 445 s \$0-freezeLed;
#X obj 176 158 moonlib/mknob 25 200 0 1 0 1 empty empty 50% 5 32 0
8 -1625 -4032 -4032 10000 1;
#X obj 226 158 moonlib/mknob 25 200 0 1 0 1 empty empty 50% 5 32 0
8 -1625 -4032 -4032 10000 1;
#X obj 276 158 moonlib/mknob 25 200 0 1 0 1 empty empty 50% 7 32 0
8 -1625 -4032 -4032 10000 1;
#X obj 326 158 moonlib/mknob 25 200 0 1 0 1 empty empty 50% 5 32 0
8 -1625 -4032 -4032 10100 1;
#X obj 174 61 preset_node b4p;
#X obj 211 35 preset_node b4p;
#X obj 276 61 preset_node b4p;
#X obj 319 36 preset_node b4p;
#X connect 7 0 8 0;
#X connect 8 0 9 0;
#X connect 9 0 60 0;
#X connect 12 0 18 0;
#X connect 14 0 38 0;
#X connect 15 0 20 0;
#X connect 17 0 12 0;
#X connect 18 0 59 0;
#X connect 19 0 14 0;
#X connect 20 0 16 0;
#X connect 20 1 32 0;
#X connect 21 0 23 0;
#X connect 22 0 21 0;
#X connect 23 0 58 0;
#X connect 24 0 20 0;
#X connect 25 0 20 0;
#X connect 26 0 20 0;
#X connect 27 0 20 0;
#X connect 28 0 20 0;
#X connect 29 0 20 0;
#X connect 30 0 20 0;
#X connect 31 0 20 1;
#X connect 37 0 24 0;
#X connect 38 0 61 0;
#X connect 39 0 26 0;
#X connect 40 0 25 0;
#X connect 41 0 42 0;
#X connect 41 0 27 0;
#X connect 42 0 28 0;
#X connect 43 0 44 0;
#X connect 45 0 30 0;
#X connect 49 0 50 0;
#X connect 50 0 52 0;
#X connect 50 1 51 0;
#X connect 51 0 53 0;
#X connect 52 0 29 0;
#X connect 52 0 56 0;
#X connect 53 0 29 0;
#X connect 53 0 55 0;
#X connect 55 0 57 0;
#X connect 56 0 57 0;
#X connect 58 0 22 0;
#X connect 58 0 33 0;
#X connect 59 0 17 0;
#X connect 59 0 34 0;
#X connect 60 0 7 0;
#X connect 60 0 35 0;
#X connect 61 0 19 0;
#X connect 61 0 36 0;
#X connect 62 0 58 0;
#X connect 63 0 59 0;
#X connect 64 0 60 0;
#X connect 65 0 61 0;
#X coords 0 -1 1 1 210 143 2 161 89;
