#N canvas 376 11 558 622 10;
#X obj 0 595 cnv 15 552 21 empty \$0-pddp.cnv.footer empty 20 12 0
14 -228856 -66577 0;
#X obj 0 0 cnv 15 552 40 empty \$0-pddp.cnv.header b4p_ahd 3 12 0 18
-204280 -1 0;
#X obj 0 442 cnv 3 550 3 empty \$0-pddp.cnv.inlets inlets 8 12 0 13
-228856 -1 0;
#N canvas 109 257 507 361 META 0;
#X text 12 125 AUTHOR Jose Carlos Granja;
#X text 12 145 WEBSITE -;
#X text 12 165 RELEASE_DATE 2016;
#X text 12 65 INLET_0 signal;
#X text 12 85 OUTLET_0 signal;
#X text 12 105 LIBRARY b4p;
#X text 12 45 DESCRIPTION envelope generator;
#X text 12 25 LICENSE BSD;
#X text 12 5 KEYWORDS envelope generator ahd b4p;
#X restore 500 597 pd META;
#X obj 0 478 cnv 3 550 3 empty \$0-pddp.cnv.outlets outlets 8 12 0
13 -228856 -1 0;
#X obj 0 525 cnv 3 550 3 empty \$0-pddp.cnv.argument arguments 8 12
0 13 -228856 -1 0;
#X obj 0 567 cnv 3 550 3 empty \$0-pddp.cnv.more_info more_info 8 12
0 13 -228856 -1 0;
#N canvas 208 83 428 334 Related_objects 0;
#X obj 1 1 cnv 15 425 20 empty \$0-pddp.cnv.subheading empty 3 12 0
14 -204280 -1 0;
#X obj 103 76 b4p_adsr;
#X text 8 2 [b4p_ahd] Related Objects;
#X restore 102 597 pd Related_objects;
#X obj 78 487 cnv 17 3 17 empty \$0-pddp.cnv.let.0 0 5 9 0 16 -228856
-162280 0;
#X text 98 450 signal;
#X obj 78 450 cnv 17 3 17 empty \$0-pddp.cnv.let.0 0 5 9 0 16 -228856
-162280 0;
#X text 98 544 (none);
#X msg 473 363 \; pd dsp 1;
#X obj 473 341 loadbang;
#X text 98 486 signal;
#X text 11 23 envelope generator;
#X text 168 486 - envelope output (0-5v);
#X obj 203 271 b4p_scope;
#X obj 54 71 b4p_lfo;
#X obj 203 114 b4p_ahd;
#X text 168 450 - trigger input input (0-5v);
#X connect 13 0 12 0;
#X connect 18 0 19 0;
#X connect 19 0 17 0;
