#N canvas 704 77 549 568 10;
#X obj 161 131 cnv 15 90 80 empty empty empty 20 12 0 14 -1625 -66577
0;
#X obj 160 266 inlet~;
#X obj 161 212 cnv 15 90 20 empty empty empty 20 12 0 14 -1 -66577
0;
#X obj 164 217 cnv 10 35 12 empty empty Output 0 5 0 10 -1 -261234
0;
#X obj 161 89 cnv 15 90 20 empty empty empty 20 12 0 14 -1 -66577 0
;
#X obj 164 96 cnv 10 35 12 empty empty Input 0 5 0 10 -1 -261234 0
;
#X obj 161 110 cnv 15 90 20 empty empty S&H 5 10 0 14 -2209 -4032 0
;
#X obj 89 448 outlet~;
#X obj 219 96 cnv 10 10 12 empty empty Trigg 0 5 0 10 -1 -261234 0
;
#X obj 230 266 inlet~;
#X obj 230 308 edge~;
#X obj 230 286 expr~ $v1 > 2.5;
#X obj 159 352 snapshot~;
#X obj 230 330 bng 15 250 50 0 empty empty empty 17 7 0 10 -262144
-1 -1;
#X obj 204 95 cnv 8 8 8 empty \$0-triggLed empty 20 12 0 14 -66577
-262144 0;
#X obj 234 413 s \$0-triggLed;
#X msg 234 386 color 2;
#X msg 295 392 color 1;
#X obj 234 366 delay 50;
#X obj 195 159 mknob 25 500 0 1 0 1 empty empty 0% 7 32 0 8 -1625 -4032
-4032 0 1;
#X obj 275 148 * 100;
#X obj 275 170 i;
#X msg 275 192 label \$1%;
#X obj 174 140 cnv 10 12 12 empty empty Portamento 0 5 0 10 -1625 -4032
0;
#X msg 89 397 \$1 \$2;
#X obj 89 376 pack f f;
#X obj 134 239 * 100;
#X obj 89 418 vline~;
#X obj 415 277 sah~;
#X obj 161 43 preset_node b4p;
#X connect 1 0 12 0;
#X connect 9 0 11 0;
#X connect 10 0 13 0;
#X connect 11 0 10 0;
#X connect 12 0 25 0;
#X connect 13 0 12 0;
#X connect 13 0 18 0;
#X connect 13 0 17 0;
#X connect 16 0 15 0;
#X connect 17 0 15 0;
#X connect 18 0 16 0;
#X connect 19 0 20 0;
#X connect 19 0 26 0;
#X connect 20 0 21 0;
#X connect 21 0 22 0;
#X connect 22 0 19 0;
#X connect 24 0 27 0;
#X connect 25 0 24 0;
#X connect 26 0 25 1;
#X connect 27 0 7 0;
#X connect 29 0 19 0;
#X coords 0 -1 1 1 90 143 2 161 89;
