#N canvas 676 38 558 622 10;
#X obj 0 725 cnv 15 552 21 empty \$0-pddp.cnv.footer empty 20 12 0
14 -228856 -66577 0;
#X obj 0 0 cnv 15 552 40 empty \$0-pddp.cnv.header b4p_envFollower
3 12 0 18 -204280 -1 0;
#X obj 0 532 cnv 3 550 3 empty \$0-pddp.cnv.inlets inlets 8 12 0 13
-228856 -1 0;
#N canvas 711 263 507 361 META 0;
#X text 12 165 AUTHOR Jose Carlos Granja;
#X text 12 185 WEBSITE -;
#X text 12 205 RELEASE_DATE 2016;
#X text 12 65 INLET_0 signal;
#X text 12 85 OUTLET_0 signal;
#X text 12 145 LIBRARY b4p;
#X text 12 25 LICENSE BSD;
#X text 12 5 KEYWORDS envelope follower b4p;
#X text 12 45 DESCRIPTION envelope follower;
#X text 12 105 OUTLET_1 signal;
#X text 12 125 OUTLET_2 signal;
#X restore 500 727 pd META;
#X obj 0 568 cnv 3 550 3 empty \$0-pddp.cnv.outlets outlets 8 12 0
13 -228856 -1 0;
#X obj 0 655 cnv 3 550 3 empty \$0-pddp.cnv.argument arguments 8 12
0 13 -228856 -1 0;
#X obj 0 697 cnv 3 550 3 empty \$0-pddp.cnv.more_info more_info 8 12
0 13 -228856 -1 0;
#N canvas 807 76 428 364 Related_objects 0;
#X obj 1 1 cnv 15 425 20 empty \$0-pddp.cnv.subheading empty 3 12 0
14 -204280 -1 0;
#X text 8 2 [b4p_envFollower] Related Objects;
#X obj 105 34 b4p_adsr;
#X obj 105 191 b4p_ahd;
#X restore 102 727 pd Related_objects;
#X obj 78 577 cnv 17 3 17 empty \$0-pddp.cnv.let.0 0 5 9 0 16 -228856
-162280 0;
#X text 98 540 signal;
#X obj 78 540 cnv 17 3 17 empty \$0-pddp.cnv.let.0 0 5 9 0 16 -228856
-162280 0;
#X text 98 674 (none);
#X msg 387 470 \; pd dsp 1;
#X obj 387 448 loadbang;
#X text 98 576 signal;
#X text 168 540 - audio input;
#X text 168 576 - audio output;
#X text 11 23 envelope follower;
#X obj 192 62 b4p_input;
#X obj 192 210 b4p_envFollower;
#X obj 192 362 b4p_scope;
#X obj 345 362 Snapshot~ 100;
#X obj 345 384 tgl 30 0 empty empty empty 17 7 0 10 -2209 -4032 -1
0 5;
#X obj 78 597 cnv 17 3 17 empty \$0-pddp.cnv.let.0 1 5 9 0 16 -228856
-162280 0;
#X text 98 596 signal;
#X obj 78 617 cnv 17 3 17 empty \$0-pddp.cnv.let.0 2 5 9 0 16 -228856
-162280 0;
#X text 98 616 signal;
#X text 168 596 - envelope output (0-5v);
#X text 168 616 - gate output (0-5v);
#X text 2 216 The envelope follower takesthe input signal and generatesan
envelope that follows theenergy of the signal.;
#X text 360 266 If the envelope is above thethreshold \, the gate
outputwill be activated.;
#X text 2 286 You can apply some gain to theinput signal.;
#X connect 13 0 12 0;
#X connect 18 0 19 0;
#X connect 18 1 19 0;
#X connect 19 1 20 0;
#X connect 19 2 21 0;
#X connect 21 0 22 0;
