#N canvas 78 39 679 568 10;
#X obj 161 131 cnv 15 130 80 empty empty empty 20 12 0 14 -1625 -66577
0;
#X obj 161 212 cnv 15 130 20 empty empty empty 20 12 0 14 -1 -66577
0;
#X obj 164 217 cnv 10 35 12 empty empty Output 0 5 0 10 -1 -261234
0;
#X obj 161 89 cnv 15 130 20 empty empty empty 20 12 0 14 -1 -66577
0;
#X obj 164 96 cnv 10 35 12 empty empty Signal 0 5 0 10 -1 -261234 0
;
#X obj 161 110 cnv 15 130 20 empty empty QUANTIZER 5 10 0 14 -2209
-4032 0;
#X obj 188 640 outlet~;
#X obj 161 235 table \$0-notes;
#X obj 446 627 tabwrite \$0-notes;
#X obj 465 391 loadbang;
#X obj 103 375 f;
#X obj 103 397 % 12;
#X obj 148 393 / 12;
#X obj 148 415 i;
#X obj 148 437 * 12;
#X obj 103 419 / 12;
#X obj 103 463 i;
#X obj 103 495 tabread \$0-notes;
#X obj 103 522 +;
#X obj 148 459 t b f;
#X obj 239 300 inlet~;
#X obj 103 288 loadbang;
#X obj 103 310 metro 10;
#X obj 103 332 snapshot~;
#X obj 103 354 * 12;
#X obj 103 544 / 12;
#X obj 103 566 sig~;
#X msg 474 558 0 0 \, 2 1 \, 3 2 \, 5 3 \, 7 4 \, 8 5 \, 10 6;
#X text 427 432 Mayor;
#X obj 103 441 * 6;
#X msg 421 432 0 0 \, 2 1 \, 4 2 \, 5 3 \, 7 4 \, 9 5 \, 11 6;
#X msg 435 458 0 0 \, 2 1 \, 3 2 \, 5 3 \, 7 4 \, 9 5 \, 10 6;
#X obj 416 361 sel 0 1 2 3 4 5 6;
#X msg 444 485 0 0 \, 1 1 \, 3 2 \, 5 3 \, 7 4 \, 8 5 \, 10 6;
#X msg 469 534 0 0 \, 2 1 \, 4 2 \, 5 3 \, 7 4 \, 9 5 \, 10 6;
#X msg 484 578 0 0 \, 1 1 \, 3 2 \, 5 3 \, 6 4 \, 8 5 \, 10 6;
#X obj 357 128 sel 0 1 2 3 4 5 6;
#X msg 357 162 Ionian;
#X msg 371 182 Dorian;
#X obj 339 292 s \$0-mode;
#X msg 338 272 label \$1;
#X obj 338 252 symbol;
#X msg 467 281 Locrian;
#X msg 447 261 Aeolian;
#X msg 458 510 0 0 \, 2 1 \, 4 2 \, 6 3 \, 7 4 \, 9 5 \, 11 6;
#X msg 387 202 Phrygian;
#X msg 407 222 Lydian;
#X msg 422 241 Misxolydian;
#N canvas 297 90 450 300 mute 0;
#X obj 100 100 tgl 15 1 empty empty empty 17 7 0 10 -262144 -1 -1 0
1;
#X obj 100 100 cnv 15 35 15 empty empty empty 20 12 0 14 -2209 -66577
0;
#X obj 100 100 cnv 15 15 15 empty \$0-bypassCnv B 20 7 0 12 -1625 -166441
0;
#X obj 80 159 tgl 15 0 empty empty empty 17 7 0 10 -262144 -1 -1 0
1;
#X obj 153 135 sel 0;
#X obj 180 154 bng 8 250 50 0 empty empty empty 17 7 0 10 -262144 -1
-1;
#X msg 153 181 color -26209 1;
#X msg 180 206 color 47 47;
#X obj 153 243 s \$0-bypassCnv;
#X obj 48 179 outlet;
#X connect 0 0 4 0;
#X connect 0 0 3 0;
#X connect 0 0 9 0;
#X connect 4 0 6 0;
#X connect 4 1 5 0;
#X connect 5 0 7 0;
#X connect 6 0 8 0;
#X connect 7 0 8 0;
#X coords 0 -1 1 1 35 15 2 100 100;
#X restore 255 112 pd mute;
#N canvas 297 227 450 300 switch 0;
#X obj 115 76 inlet~, f 7;
#X obj 36 76 inlet;
#X obj 36 171 sel 0;
#X obj 115 108 spigot~;
#X obj 175 76 inlet~, f 7;
#X obj 175 108 spigot~;
#X msg 36 190 0, f 1;
#X msg 63 190 1, f 1;
#X msg 96 190 0, f 1;
#X msg 123 190 1, f 1;
#X obj 96 171 sel 1;
#X obj 184 146 outlet~;
#X connect 0 0 3 0;
#X connect 1 0 2 0;
#X connect 1 0 10 0;
#X connect 2 0 6 0;
#X connect 2 1 7 0;
#X connect 3 0 11 0;
#X connect 4 0 5 0;
#X connect 5 0 11 0;
#X connect 6 0 3 1;
#X connect 7 0 3 1;
#X connect 8 0 5 1;
#X connect 9 0 5 1;
#X connect 10 0 8 0;
#X connect 10 1 9 0;
#X restore 180 610 pd switch, f 10;
#X obj 180 66 preset_node b4p;
#N canvas 478 222 792 504 selector 0;
#X obj 97 98 hradio 16 1 0 7 empty empty empty 0 -8 0 10 -262144 -1
-1 0;
#X obj 176 3 inlet;
#X obj 112 442 outlet;
#X obj 204 291 i;
#X obj 238 343 s, f 4;
#X obj 219 260 t f b b;
#X msg 48 294 color -64256;
#X msg 238 291 color -26209;
#X msg 259 318 symbol \$0-selCnv\$1;
#X obj 48 265 t b f;
#X obj 48 347 s, f 5;
#X msg 75 322 symbol \$0-selCnv\$1;
#X obj 48 245 r \$0-index;
#X obj 219 240 r \$0-index;
#X obj 94 187 s \$0-index;
#X obj 112 419 r \$0-index;
#X obj 97 98 cnv 15 112 16 empty empty empty 20 12 0 14 -2209 -66577
0;
#X obj 114 99 cnv 14 14 14 empty \$0-selCnv1 empty 20 12 0 14 -1625
-262144 0;
#X obj 130 99 cnv 14 14 14 empty \$0-selCnv2 empty 20 12 0 14 -1625
-262144 0;
#X obj 146 99 cnv 14 14 14 empty \$0-selCnv3 empty 20 12 0 14 -1625
-262144 0;
#X obj 98 99 cnv 14 14 14 empty \$0-selCnv0 empty 20 12 0 14 -4032
-262144 0;
#X obj 162 99 cnv 14 14 14 empty \$0-selCnv4 empty 20 12 0 14 -1625
-262144 0;
#X obj 178 99 cnv 14 14 14 empty \$0-selCnv5 empty 20 12 0 14 -1625
-262144 0;
#X obj 194 99 cnv 14 14 14 empty \$0-selCnv6 empty 20 12 0 14 -1625
-262144 0;
#X connect 0 0 14 0;
#X connect 1 0 0 0;
#X connect 3 0 8 0;
#X connect 5 0 3 1;
#X connect 5 1 7 0;
#X connect 5 2 3 0;
#X connect 6 0 10 0;
#X connect 7 0 4 0;
#X connect 8 0 4 1;
#X connect 9 0 6 0;
#X connect 9 1 11 0;
#X connect 11 0 10 1;
#X connect 12 0 9 0;
#X connect 13 0 5 0;
#X connect 15 0 2 0;
#X coords 0 -1 1 1 112 16 2 97 98;
#X restore 169 177 pd selector;
#X obj 169 151 cnv 20 8 8 empty \$0-mode Ionian 0 5 0 17 -1625 -4032
0;
#X connect 9 0 30 0;
#X connect 10 0 11 0;
#X connect 10 0 12 0;
#X connect 11 0 15 0;
#X connect 12 0 13 0;
#X connect 13 0 14 0;
#X connect 14 0 19 0;
#X connect 15 0 29 0;
#X connect 16 0 17 0;
#X connect 17 0 18 0;
#X connect 18 0 25 0;
#X connect 19 0 18 0;
#X connect 19 1 18 1;
#X connect 20 0 23 0;
#X connect 20 0 49 2;
#X connect 21 0 22 0;
#X connect 22 0 23 0;
#X connect 23 0 24 0;
#X connect 24 0 10 0;
#X connect 25 0 26 0;
#X connect 26 0 49 1;
#X connect 27 0 8 0;
#X connect 29 0 16 0;
#X connect 30 0 8 0;
#X connect 31 0 8 0;
#X connect 32 0 30 0;
#X connect 32 1 31 0;
#X connect 32 2 33 0;
#X connect 32 3 44 0;
#X connect 32 4 34 0;
#X connect 32 5 27 0;
#X connect 32 6 35 0;
#X connect 33 0 8 0;
#X connect 34 0 8 0;
#X connect 35 0 8 0;
#X connect 36 0 37 0;
#X connect 36 1 38 0;
#X connect 36 2 45 0;
#X connect 36 3 46 0;
#X connect 36 4 47 0;
#X connect 36 5 43 0;
#X connect 36 6 42 0;
#X connect 37 0 41 0;
#X connect 38 0 41 0;
#X connect 40 0 39 0;
#X connect 41 0 40 0;
#X connect 42 0 41 0;
#X connect 43 0 41 0;
#X connect 44 0 8 0;
#X connect 45 0 41 0;
#X connect 46 0 41 0;
#X connect 47 0 41 0;
#X connect 48 0 49 0;
#X connect 49 0 6 0;
#X connect 50 0 51 0;
#X connect 51 0 36 0;
#X connect 51 0 32 0;
#X coords 0 -1 1 1 130 143 2 161 89;
