#N canvas 493 15 761 568 10;
#X obj 161 131 cnv 15 190 80 empty empty empty 20 12 0 14 -1625 -66577
0;
#X obj 121 318 inlet~;
#X obj 181 318 inlet~;
#X obj 311 318 inlet~;
#X obj 424 318 inlet~;
#X obj 89 832 outlet~;
#X obj 122 387 +~;
#X obj 122 412 +~;
#X obj 122 434 *~ 12;
#X obj 122 558 phasor~;
#X obj 181 362 *~ 0, f 5;
#X obj 311 361 *~ 0, f 5;
#X obj 161 212 cnv 15 190 20 empty empty empty 20 12 0 14 -1 -66577
0;
#X obj 164 217 cnv 10 35 12 empty empty Output 0 5 0 10 -1 -261234
0;
#X obj 161 89 cnv 15 190 20 empty empty empty 20 12 0 14 -1 -66577
0;
#X obj 164 96 cnv 10 35 12 empty empty CV1 0 5 0 10 -1 -261234 0;
#X obj 201 96 cnv 10 35 12 empty empty CV2 0 5 0 10 -1 -261234 0;
#X obj 247 96 cnv 10 35 12 empty empty CV3 0 5 0 10 -1 -261234 0;
#X obj 293 96 cnv 10 10 12 empty empty Lin 0 5 0 10 -1 -261234 0;
#X obj 225 145 cnv 15 12 12 empty empty CV2 0 5 0 10 -1625 -4032 0
;
#X obj 225 166 cnv 15 12 12 empty empty CV3 0 5 0 10 -1625 -4032 0
;
#X obj 225 187 cnv 15 12 12 empty empty Lin 0 5 0 10 -1625 -4032 0
;
#X obj 175 140 cnv 10 12 12 empty empty Offset 0 5 0 10 -1625 -4032
0;
#X obj 90 132 * 100;
#X obj 90 154 i;
#X msg 90 176 label \$1%;
#X obj 161 110 cnv 15 190 20 empty empty PD\ VCO 5 10 0 14 -2209 -4032
0;
#X obj 122 462 +~;
#X obj 191 416 - 0.5;
#X obj 191 438 * 24;
#X obj 326 96 cnv 10 10 12 empty empty Sync 0 5 0 10 -1 -261234 0;
#X obj 612 824 outlet~;
#X text 616 803 Phasor;
#X obj 273 216 cnv 10 35 12 empty empty Phasor\ (0-5v) 0 5 0 10 -1
-261234 0;
#X obj 612 603 *~ 5;
#X obj 89 734 lop~ 10000;
#X obj 122 484 mtof~;
#X obj 122 534 *~;
#X obj 424 368 clip~ 0 100;
#X obj 425 472 expr~ 1 + $v1 * $f2 + ( 1 - $f2 ), f 17;
#X obj 187 756 line;
#X msg 187 736 \$1 10;
#X obj 187 776 sig~;
#X obj 89 807 *~;
#X obj 187 716 * 5;
#N canvas 194 269 450 300 miniSlider 0;
#X obj 100 100 hsl 30 16 0 1 0 0 empty empty 0% 8 7 0 8 -33289 -4032
-4032 0 1;
#X obj 100 100 cnv 15 35 16 empty empty empty 20 12 0 14 -33289 -66577
0;
#X obj 100 100 cnv 1 1 16 empty \$0-sliderCV1 0% 10 7 0 10 -4032 -66577
0;
#X msg 177 141 label \$1%;
#X obj 176 99 * 100;
#X obj 176 121 i;
#X obj 99 146 outlet;
#X obj 97 36 inlet;
#X floatatom 273 122 5 0 0 0 - - -, f 5;
#X obj 257 88 * 35;
#X msg 270 154 vis_size \$1 16;
#X obj 271 189 s \$0-sliderCV1;
#X connect 0 0 4 0;
#X connect 0 0 6 0;
#X connect 0 0 9 0;
#X connect 3 0 11 0;
#X connect 4 0 5 0;
#X connect 5 0 3 0;
#X connect 7 0 0 0;
#X connect 8 0 10 0;
#X connect 9 0 10 0;
#X connect 10 0 11 0;
#X coords 0 -1 1 1 35 15 2 100 100;
#X restore 245 142 pd miniSlider;
#N canvas 194 269 450 300 miniSlider 0;
#X obj 100 100 hsl 30 16 0 1 0 0 empty empty 0% 8 7 0 8 -33289 -4032
-4032 0 1;
#X obj 100 100 cnv 15 35 16 empty empty empty 20 12 0 14 -33289 -66577
0;
#X obj 100 100 cnv 1 1 16 empty \$0-sliderCV2 0% 10 7 0 10 -4032 -66577
0;
#X msg 177 141 label \$1%;
#X obj 176 99 * 100;
#X obj 176 121 i;
#X obj 99 146 outlet;
#X obj 97 36 inlet;
#X floatatom 273 122 5 0 0 0 - - -, f 5;
#X obj 257 88 * 35;
#X msg 270 154 vis_size \$1 16;
#X obj 271 189 s \$0-sliderCV2;
#X connect 0 0 4 0;
#X connect 0 0 6 0;
#X connect 0 0 9 0;
#X connect 3 0 11 0;
#X connect 4 0 5 0;
#X connect 5 0 3 0;
#X connect 7 0 0 0;
#X connect 8 0 10 0;
#X connect 9 0 10 0;
#X connect 10 0 11 0;
#X coords 0 -1 1 1 35 15 2 100 100;
#X restore 245 163 pd miniSlider;
#N canvas 194 269 450 300 miniSlider 0;
#X obj 100 100 hsl 30 16 0 1 0 0 empty empty 0% 8 7 0 8 -33289 -4032
-4032 0 1;
#X obj 100 100 cnv 15 35 16 empty empty empty 20 12 0 14 -33289 -66577
0;
#X obj 100 100 cnv 1 1 16 empty \$0-sliderLin 0% 10 7 0 10 -4032 -66577
0;
#X msg 177 141 label \$1%;
#X obj 176 99 * 100;
#X obj 176 121 i;
#X obj 99 146 outlet;
#X obj 97 36 inlet;
#X floatatom 273 122 5 0 0 0 - - -, f 5;
#X obj 257 88 * 35;
#X msg 270 154 vis_size \$1 16;
#X obj 271 189 s \$0-sliderLin;
#X connect 0 0 4 0;
#X connect 0 0 6 0;
#X connect 0 0 9 0;
#X connect 3 0 11 0;
#X connect 4 0 5 0;
#X connect 5 0 3 0;
#X connect 7 0 0 0;
#X connect 8 0 10 0;
#X connect 9 0 10 0;
#X connect 10 0 11 0;
#X coords 0 -1 1 1 35 15 2 100 100;
#X restore 245 184 pd miniSlider;
#X obj 87 214 s \$0-offset;
#X obj 191 395 r \$0-offset;
#X obj 167 238 s \$0-cv2Atten;
#X obj 208 341 r \$0-cv2Atten;
#X obj 194 258 s \$0-cv3Atten;
#X obj 338 341 r \$0-cv3Atten;
#X obj 252 238 s \$0-linAtten;
#X obj 524 449 r \$0-linAtten;
#X obj 338 239 s \$0-mute;
#X obj 187 695 r \$0-mute;
#X obj 357 137 s \$0-octCounter;
#X obj 19 339 r \$0-octCounter;
#X obj 19 404 pow, f 5;
#X obj 19 362 t b f;
#X msg 19 384 2, f 1;
#X obj 122 506 *~;
#X obj 611 318 inlet~;
#X obj 611 504 edge~;
#X msg 611 525 1, f 1;
#X obj 611 482 expr~ $v1 > 2.5;
#X obj 180 158 moonlib/mknob 25 500 0 1 0 1 empty empty 50% 7 32 0
8 -1625 -4032 -4032 24950 1;
#X obj 173 645 sig~ 0.1;
#X obj 122 669 triangle~;
#X obj 89 698 cycle~;
#X obj 300 140 cnv 10 12 12 empty empty Shape 0 5 0 10 -1625 -4032
0;
#X obj 305 158 moonlib/mknob 25 200 0 1 0 1 empty empty empty 7 32
0 8 -1625 -4032 -4032 0 1;
#X obj 290 260 s \$0-shape;
#X obj 173 601 r \$0-shape;
#X obj 173 623 * 0.5;
#N canvas 755 251 450 300 mute 0;
#X obj 100 100 tgl 15 1 empty empty empty 17 7 0 10 -262144 -1 -1 0
1;
#X obj 100 100 cnv 15 32 15 empty empty empty 20 12 0 14 -2209 -66577
0;
#X obj 100 100 cnv 15 15 15 empty \$0-muteCnv M 20 7 0 12 -1625 -166441
0;
#X obj 153 243 s \$0-muteCnv;
#X obj 56 141 tgl 15 0 empty empty empty 17 7 0 10 -262144 -1 -1 0
1;
#X obj 153 135 sel 0;
#X obj 180 154 bng 8 250 50 0 empty empty empty 17 7 0 10 -262144 -1
-1;
#X obj 79 246 outlet;
#X msg 153 181 color -26209 1;
#X msg 180 206 color 47 47;
#X obj 68 174 expr 1 - $f1;
#X connect 0 0 5 0;
#X connect 0 0 4 0;
#X connect 0 0 10 0;
#X connect 5 0 8 0;
#X connect 5 1 6 0;
#X connect 6 0 9 0;
#X connect 8 0 3 0;
#X connect 9 0 3 0;
#X connect 10 0 7 0;
#X coords 0 -1 1 1 32 15 2 100 100;
#X restore 314 112 pd mute;
#X obj 177 63 preset_node b4p;
#X obj 192 41 preset_node b4p;
#X obj 277 61 preset_node b4p;
#X obj 295 41 preset_node b4p;
#X obj 358 87 preset_node b4p;
#X obj 364 113 preset_node b4p;
#N canvas 745 157 450 300 octaveController 0;
#N canvas 333 253 450 300 counter 0;
#X obj 136 155 i;
#X obj 164 155 + 1;
#X msg 179 133 1;
#X msg 201 106 -1;
#X obj 165 84 t b b b;
#X obj 141 107 t b b b;
#X obj 199 35 inlet;
#X obj 133 47 inlet;
#X obj 135 200 outlet;
#X obj 22 121 loadbang;
#X msg 22 143 0;
#X obj 91 71 route set;
#X msg 91 93 \$1;
#X connect 0 0 1 0;
#X connect 0 0 8 0;
#X connect 1 0 0 1;
#X connect 2 0 1 1;
#X connect 3 0 1 1;
#X connect 4 0 0 0;
#X connect 4 1 1 0;
#X connect 4 2 3 0;
#X connect 5 0 0 0;
#X connect 5 1 1 0;
#X connect 5 2 2 0;
#X connect 6 0 4 0;
#X connect 7 0 11 0;
#X connect 9 0 10 0;
#X connect 10 0 0 0;
#X connect 11 0 12 0;
#X connect 11 1 5 0;
#X connect 12 0 0 0;
#X restore 110 183 pd counter;
#X obj 104 338 s \$0-octLbl;
#X obj 104 214 < 0;
#X obj 104 236 sel 1;
#X msg 131 315 label +\$1oct;
#X msg 104 288 label \$1oct;
#X obj 104 263 i;
#X obj 131 266 i;
#X obj 131 255 bng 8 250 50 0 empty empty empty 17 7 0 10 -262144 -1
-1;
#N canvas 623 335 450 300 mute 0;
#X obj 100 100 bng 19 250 50 0 empty empty empty 17 7 0 10 -262144
-1 -1;
#X obj 100 100 cnv 19 19 19 empty \$0-plusCnv + 5 8 0 16 -1625 -44926
0;
#X obj 61 152 outlet;
#X obj 100 124 bng 15 250 50 0 empty empty empty 17 7 0 10 -262144
-1 -1;
#X obj 185 134 sel 0;
#X obj 212 153 bng 8 250 50 0 empty empty empty 17 7 0 10 -262144 -1
-1;
#X obj 185 242 s \$0-plusCnv;
#X obj 105 168 delay 100;
#X msg 185 180 color -26209 47;
#X msg 212 205 color 47 0;
#X connect 0 0 3 0;
#X connect 0 0 2 0;
#X connect 3 0 9 0;
#X connect 3 0 7 0;
#X connect 4 0 8 0;
#X connect 4 1 5 0;
#X connect 5 0 9 0;
#X connect 7 0 8 0;
#X connect 8 0 6 0;
#X connect 9 0 6 0;
#X coords 0 -1 1 1 19 19 2 100 100;
#X restore 100 100 pd mute;
#N canvas 627 110 450 300 mute 0;
#X obj 100 100 bng 19 250 50 0 empty empty empty 17 7 0 10 -262144
-1 -1;
#X obj 100 100 cnv 19 19 19 empty \$0-minusCnv - 5 8 0 17 -1625 -44926
0;
#X obj 61 152 outlet;
#X obj 100 124 bng 15 250 50 0 empty empty empty 17 7 0 10 -262144
-1 -1;
#X obj 208 126 sel 0;
#X obj 235 145 bng 8 250 50 0 empty empty empty 17 7 0 10 -262144 -1
-1;
#X obj 128 160 delay 100;
#X obj 208 234 s \$0-minusCnv;
#X msg 208 171 color -26209 47;
#X msg 235 197 color 47 0;
#X connect 0 0 3 0;
#X connect 0 0 2 0;
#X connect 3 0 6 0;
#X connect 3 0 9 0;
#X connect 4 0 8 0;
#X connect 4 1 5 0;
#X connect 5 0 9 0;
#X connect 6 0 8 0;
#X connect 8 0 7 0;
#X connect 9 0 7 0;
#X coords 0 -1 1 1 19 19 2 100 100;
#X restore 151 100 pd mute;
#X obj 120 100 cnv 19 30 19 empty \$0-octLbl +0oct 0 8 0 10 -1625 -4032
0;
#X obj 23 80 inlet;
#X obj 18 338 outlet;
#X msg 23 102 set \$1;
#X connect 0 0 6 1;
#X connect 0 0 7 1;
#X connect 0 0 2 0;
#X connect 0 0 13 0;
#X connect 2 0 3 0;
#X connect 3 0 6 0;
#X connect 3 1 8 0;
#X connect 4 0 1 0;
#X connect 5 0 1 0;
#X connect 6 0 5 0;
#X connect 7 0 4 0;
#X connect 8 0 7 0;
#X connect 9 0 0 0;
#X connect 10 0 0 1;
#X connect 12 0 14 0;
#X connect 14 0 0 0;
#X coords 0 -1 1 1 70 19 2 100 100;
#X restore 233 116 pd octaveController;
#X connect 1 0 6 0;
#X connect 2 0 10 0;
#X connect 3 0 11 0;
#X connect 4 0 38 0;
#X connect 6 0 7 0;
#X connect 7 0 8 0;
#X connect 8 0 27 0;
#X connect 9 0 34 0;
#X connect 9 0 70 0;
#X connect 10 0 6 1;
#X connect 11 0 7 1;
#X connect 23 0 24 0;
#X connect 24 0 25 0;
#X connect 25 0 68 0;
#X connect 27 0 36 0;
#X connect 28 0 29 0;
#X connect 29 0 27 1;
#X connect 34 0 31 0;
#X connect 35 0 43 0;
#X connect 36 0 63 0;
#X connect 37 0 9 0;
#X connect 38 0 39 0;
#X connect 39 0 37 1;
#X connect 40 0 42 0;
#X connect 41 0 40 0;
#X connect 42 0 43 1;
#X connect 43 0 5 0;
#X connect 44 0 41 0;
#X connect 45 0 50 0;
#X connect 46 0 52 0;
#X connect 47 0 54 0;
#X connect 49 0 28 0;
#X connect 51 0 10 1;
#X connect 53 0 11 1;
#X connect 55 0 39 1;
#X connect 57 0 44 0;
#X connect 59 0 61 0;
#X connect 60 0 63 1;
#X connect 61 0 62 0;
#X connect 61 1 60 1;
#X connect 62 0 60 0;
#X connect 63 0 37 0;
#X connect 64 0 67 0;
#X connect 65 0 66 0;
#X connect 66 0 9 1;
#X connect 67 0 65 0;
#X connect 68 0 23 0;
#X connect 68 0 48 0;
#X connect 69 0 70 1;
#X connect 70 0 71 1;
#X connect 71 0 35 0;
#X connect 73 0 74 0;
#X connect 75 0 76 0;
#X connect 76 0 69 0;
#X connect 77 0 56 0;
#X connect 78 0 68 0;
#X connect 79 0 84 0;
#X connect 80 0 45 0;
#X connect 81 0 46 0;
#X connect 82 0 47 0;
#X connect 83 0 73 0;
#X connect 84 0 58 0;
#X coords 0 -1 1 1 190 143 2 161 89;
