#N canvas 382 92 761 568 10;
#X obj 161 131 cnv 15 200 80 empty empty empty 20 12 0 14 -1625 -66577
0;
#X obj 161 212 cnv 15 200 20 empty empty empty 20 12 0 14 -1 -66577
0;
#X obj 164 217 cnv 10 5 12 empty empty C1 0 5 0 10 -1 -261234 0;
#X obj 161 89 cnv 15 200 20 empty empty empty 20 12 0 14 -1 -66577
0;
#X obj 161 110 cnv 15 200 20 empty empty MIDI4CV 5 10 0 14 -2209 -4032
0;
#X obj 381 205 s \$0-octCounter;
#X obj 270 392 poly 4 1, f 13;
#X obj 292 302 notein;
#X obj 249 272 r \$0-octCounter;
#X obj 249 294 * 12;
#X obj 270 373 +;
#X obj 249 316 t b f;
#X obj 346 419 / 127;
#X obj 346 441 * 5;
#X obj 223 567 sig~;
#X obj 223 589 outlet~;
#X obj 165 591 outlet~;
#X obj 306 419 / 12;
#X obj 165 565 sig~;
#X obj 341 566 sig~;
#X obj 341 588 outlet~;
#X obj 283 590 outlet~;
#X obj 283 564 sig~;
#X obj 455 564 sig~;
#X obj 455 586 outlet~;
#X obj 397 588 outlet~;
#X obj 397 562 sig~;
#X obj 569 564 sig~;
#X obj 569 586 outlet~;
#X obj 511 588 outlet~;
#X obj 511 562 sig~;
#X text 180 612 CV;
#X text 231 613 GATE;
#X obj 186 217 cnv 10 5 12 empty empty G1 0 5 0 10 -1 -261234 0;
#X obj 214 217 cnv 10 5 12 empty empty C2 0 5 0 10 -1 -261234 0;
#X obj 241 217 cnv 10 5 12 empty empty G2 0 5 0 10 -1 -261234 0;
#X obj 269 216 cnv 10 5 12 empty empty C3 0 5 0 10 -1 -261234 0;
#X obj 296 217 cnv 10 5 12 empty empty G3 0 5 0 10 -1 -261234 0;
#X obj 323 217 cnv 10 5 12 empty empty C4 0 5 0 10 -1 -261234 0;
#X obj 348 217 cnv 10 5 12 empty empty G4 0 5 0 10 -1 -261234 0;
#N canvas 112 114 450 300 modeSelector 0;
#N canvas 619 251 450 300 squareSelector 0;
#X obj 104 100 tgl 25 1 empty empty empty 17 7 0 10 -262144 -1 -1 1
1;
#X obj 132 100 tgl 25 0 empty empty empty 17 7 0 10 -262144 -1 -1 0
1;
#X obj 160 39 sel 1;
#X msg 160 61 0, f 1;
#X obj 40 39 sel 1;
#X msg 40 61 0, f 1;
#X msg 60 61 0, f 1;
#X obj 106 266 outlet;
#X msg 180 61 1, f 1;
#X obj 97 -8 inlet;
#X obj 97 14 sel 0 1;
#X msg 97 36 1, f 1;
#X msg 116 36 1, f 1;
#X connect 0 0 4 0;
#X connect 1 0 2 0;
#X connect 2 0 3 0;
#X connect 2 0 8 0;
#X connect 3 0 0 0;
#X connect 4 0 5 0;
#X connect 4 0 6 0;
#X connect 5 0 1 0;
#X connect 6 0 7 0;
#X connect 8 0 7 0;
#X connect 9 0 10 0;
#X connect 10 0 11 0;
#X connect 10 1 12 0;
#X connect 11 0 0 0;
#X connect 12 0 1 0;
#X coords 0 -1 1 1 60 25 2 100 100;
#X restore 100 100 pd squareSelector;
#X obj 100 100 cnv 15 60 25 empty empty empty 20 12 0 14 -1625 -66577
0;
#X obj 103 108 cnv 10 12 12 empty \$0-monoLbl MONO 0 5 0 10 -1625 -44926
0;
#X obj 135 108 cnv 10 12 12 empty \$0-polyLbl POLY 0 5 0 10 -1625 -2209
0;
#X obj 107 200 outlet;
#X msg 216 198 color -26209 47;
#X msg 243 217 color -26209 -34945;
#X obj 215 168 sel 0;
#X obj 242 187 bng 8 250 50 0 empty empty empty 17 7 0 10 -262144 -1
-1;
#X msg 375 202 color -26209 47;
#X msg 402 221 color -26209 -34945;
#X obj 401 191 bng 8 250 50 0 empty empty empty 17 7 0 10 -262144 -1
-1;
#X obj 374 172 sel 1;
#X obj 375 243 s \$0-polyLbl;
#X obj 216 239 s \$0-monoLbl;
#X obj 241 58 inlet;
#X connect 0 0 7 0;
#X connect 0 0 12 0;
#X connect 0 0 4 0;
#X connect 5 0 14 0;
#X connect 6 0 14 0;
#X connect 7 0 5 0;
#X connect 7 1 8 0;
#X connect 8 0 6 0;
#X connect 9 0 13 0;
#X connect 10 0 13 0;
#X connect 11 0 10 0;
#X connect 12 0 9 0;
#X connect 12 1 11 0;
#X connect 15 0 0 0;
#X coords 0 -1 1 1 60 25 2 100 100;
#X restore 232 175 pd modeSelector;
#N canvas 51 248 609 300 voiceHandler 0;
#X obj 49 23 inlet;
#X obj 195 2 inlet;
#X obj 234 3 inlet;
#X obj -19 231 outlet;
#X obj 31 231 outlet;
#X obj 121 231 outlet;
#X obj 171 231 outlet;
#X obj 251 231 outlet;
#X obj 301 231 outlet;
#X obj 381 231 outlet;
#X obj 431 231 outlet;
#X obj 45 108 sel 1 2 3 4;
#X obj -27 189 f;
#X obj 31 189 f;
#X obj 111 189 f;
#X obj 169 189 f;
#X obj 245 189 f;
#X obj 303 189 f;
#X obj 378 189 f;
#X obj 437 189 f;
#X connect 0 0 11 0;
#X connect 1 0 14 1;
#X connect 1 0 18 1;
#X connect 1 0 16 1;
#X connect 1 0 12 1;
#X connect 2 0 15 1;
#X connect 2 0 19 1;
#X connect 2 0 17 1;
#X connect 2 0 13 1;
#X connect 11 0 12 0;
#X connect 11 0 13 0;
#X connect 11 1 14 0;
#X connect 11 1 15 0;
#X connect 11 2 16 0;
#X connect 11 2 17 0;
#X connect 11 3 18 0;
#X connect 11 3 19 0;
#X connect 12 0 3 0;
#X connect 13 0 4 0;
#X connect 14 0 5 0;
#X connect 15 0 6 0;
#X connect 16 0 7 0;
#X connect 17 0 8 0;
#X connect 18 0 9 0;
#X connect 19 0 10 0;
#X restore 202 485 pd voiceHandler, f 25;
#X obj 201 438 spigot;
#X obj 489 426 spigot;
#X obj 519 320 == 0;
#X obj 541 474 / 127;
#X obj 541 496 * 5;
#X obj 466 479 / 12;
#X obj 435 449 spigot;
#X obj 394 382 poly 1 1;
#N canvas 745 157 450 300 octaveController 0;
#N canvas 333 253 450 300 counter 0;
#X obj 136 155 i;
#X obj 164 155 + 1;
#X msg 179 133 1;
#X msg 201 106 -1;
#X obj 165 84 t b b b;
#X obj 141 107 t b b b;
#X obj 199 35 inlet;
#X obj 133 47 inlet;
#X obj 135 200 outlet;
#X obj 22 121 loadbang;
#X msg 22 143 0;
#X obj 91 71 route set;
#X msg 91 93 \$1;
#X connect 0 0 1 0;
#X connect 0 0 8 0;
#X connect 1 0 0 1;
#X connect 2 0 1 1;
#X connect 3 0 1 1;
#X connect 4 0 0 0;
#X connect 4 1 1 0;
#X connect 4 2 3 0;
#X connect 5 0 0 0;
#X connect 5 1 1 0;
#X connect 5 2 2 0;
#X connect 6 0 4 0;
#X connect 7 0 11 0;
#X connect 9 0 10 0;
#X connect 10 0 0 0;
#X connect 11 0 12 0;
#X connect 11 1 5 0;
#X connect 12 0 0 0;
#X restore 110 183 pd counter;
#X obj 104 338 s \$0-octLbl;
#X obj 104 214 < 0;
#X obj 104 236 sel 1;
#X msg 131 315 label +\$1oct;
#X msg 104 288 label \$1oct;
#X obj 104 263 i;
#X obj 131 266 i;
#X obj 131 255 bng 8 250 50 0 empty empty empty 17 7 0 10 -262144 -1
-1;
#N canvas 623 335 450 300 mute 0;
#X obj 100 100 bng 19 250 50 0 empty empty empty 17 7 0 10 -262144
-1 -1;
#X obj 100 100 cnv 19 19 19 empty \$0-plusCnv + 5 8 0 16 -1625 -44926
0;
#X obj 61 152 outlet;
#X obj 100 124 bng 15 250 50 0 empty empty empty 17 7 0 10 -262144
-1 -1;
#X obj 185 134 sel 0;
#X obj 212 153 bng 8 250 50 0 empty empty empty 17 7 0 10 -262144 -1
-1;
#X obj 185 242 s \$0-plusCnv;
#X obj 105 168 delay 100;
#X msg 185 180 color -26209 47;
#X msg 212 205 color 47 0;
#X connect 0 0 3 0;
#X connect 0 0 2 0;
#X connect 3 0 9 0;
#X connect 3 0 7 0;
#X connect 4 0 8 0;
#X connect 4 1 5 0;
#X connect 5 0 9 0;
#X connect 7 0 8 0;
#X connect 8 0 6 0;
#X connect 9 0 6 0;
#X coords 0 -1 1 1 19 19 2 100 100;
#X restore 100 100 pd mute;
#N canvas 627 110 450 300 mute 0;
#X obj 100 100 bng 19 250 50 0 empty empty empty 17 7 0 10 -262144
-1 -1;
#X obj 100 100 cnv 19 19 19 empty \$0-minusCnv - 5 8 0 17 -1625 -44926
0;
#X obj 61 152 outlet;
#X obj 100 124 bng 15 250 50 0 empty empty empty 17 7 0 10 -262144
-1 -1;
#X obj 208 126 sel 0;
#X obj 235 145 bng 8 250 50 0 empty empty empty 17 7 0 10 -262144 -1
-1;
#X obj 128 160 delay 100;
#X obj 208 234 s \$0-minusCnv;
#X msg 208 171 color -26209 47;
#X msg 235 197 color 47 0;
#X connect 0 0 3 0;
#X connect 0 0 2 0;
#X connect 3 0 6 0;
#X connect 3 0 9 0;
#X connect 4 0 8 0;
#X connect 4 1 5 0;
#X connect 5 0 9 0;
#X connect 6 0 8 0;
#X connect 8 0 7 0;
#X connect 9 0 7 0;
#X coords 0 -1 1 1 19 19 2 100 100;
#X restore 151 100 pd mute;
#X obj 120 100 cnv 19 30 19 empty \$0-octLbl +0oct 0 8 0 10 -1625 -4032
0;
#X obj 23 80 inlet;
#X obj 18 338 outlet;
#X msg 23 102 set \$1;
#X connect 0 0 6 1;
#X connect 0 0 7 1;
#X connect 0 0 2 0;
#X connect 0 0 13 0;
#X connect 2 0 3 0;
#X connect 3 0 6 0;
#X connect 3 1 8 0;
#X connect 4 0 1 0;
#X connect 5 0 1 0;
#X connect 6 0 5 0;
#X connect 7 0 4 0;
#X connect 8 0 7 0;
#X connect 9 0 0 0;
#X connect 10 0 0 1;
#X connect 12 0 14 0;
#X connect 14 0 0 0;
#X coords 0 -1 1 1 70 19 2 100 100;
#X restore 229 133 pd octaveController;
#X obj 227 66 preset_node b4p;
#X obj 338 66 preset_node b4p;
#X connect 6 0 42 0;
#X connect 6 1 17 0;
#X connect 6 2 12 0;
#X connect 7 0 10 0;
#X connect 7 1 6 1;
#X connect 7 1 49 1;
#X connect 8 0 9 0;
#X connect 9 0 11 0;
#X connect 10 0 6 0;
#X connect 10 0 49 0;
#X connect 11 0 10 0;
#X connect 11 1 10 1;
#X connect 12 0 13 0;
#X connect 13 0 41 2;
#X connect 14 0 15 0;
#X connect 17 0 41 1;
#X connect 18 0 16 0;
#X connect 19 0 20 0;
#X connect 22 0 21 0;
#X connect 23 0 24 0;
#X connect 26 0 25 0;
#X connect 27 0 28 0;
#X connect 30 0 29 0;
#X connect 40 0 42 1;
#X connect 40 0 44 0;
#X connect 41 0 18 0;
#X connect 41 1 14 0;
#X connect 41 2 22 0;
#X connect 41 3 19 0;
#X connect 41 4 26 0;
#X connect 41 5 23 0;
#X connect 41 6 30 0;
#X connect 41 7 27 0;
#X connect 42 0 41 0;
#X connect 43 0 45 0;
#X connect 44 0 43 1;
#X connect 44 0 48 1;
#X connect 45 0 46 0;
#X connect 46 0 27 0;
#X connect 46 0 23 0;
#X connect 46 0 19 0;
#X connect 46 0 14 0;
#X connect 47 0 30 0;
#X connect 47 0 26 0;
#X connect 47 0 22 0;
#X connect 47 0 18 0;
#X connect 48 0 47 0;
#X connect 49 1 48 0;
#X connect 49 2 43 0;
#X connect 50 0 5 0;
#X connect 51 0 50 0;
#X connect 52 0 40 0;
#X coords 0 -1 1 1 200 143 2 161 89;
