#N canvas 774 36 558 624 10;
#X obj 0 677 cnv 15 552 21 empty \$0-pddp.cnv.footer empty 20 12 0
14 -228856 -66577 0;
#X obj 0 0 cnv 15 552 40 empty \$0-pddp.cnv.header b4p_cloud 3 12 0
18 -204280 -1 0;
#X obj 0 452 cnv 3 550 3 empty \$0-pddp.cnv.inlets inlets 8 12 0 13
-228856 -1 0;
#N canvas 109 257 507 361 META 0;
#X text 12 185 AUTHOR Jose Carlos Granja;
#X text 12 205 WEBSITE -;
#X text 12 225 RELEASE_DATE 2016;
#X text 12 65 INLET_0 signal;
#X text 12 85 INLET_1 signal;
#X text 12 105 INLET_2 signal;
#X text 12 125 INLET_3 signal;
#X text 12 145 OUTLET_0 signal;
#X text 12 165 LIBRARY b4p;
#X text 12 25 LICENSE BSD;
#X text 12 45 DESCRIPTION voltage controlled cloud oscillator;
#X text 12 5 KEYWORDS cloud oscillator b4p;
#X restore 500 679 pd META;
#X obj 0 562 cnv 3 550 3 empty \$0-pddp.cnv.outlets outlets 8 12 0
13 -228856 -1 0;
#X obj 0 607 cnv 3 550 3 empty \$0-pddp.cnv.argument arguments 8 12
0 13 -228856 -1 0;
#X obj 0 649 cnv 3 550 3 empty \$0-pddp.cnv.more_info more_info 8 12
0 13 -228856 -1 0;
#N canvas 208 83 428 545 Related_objects 0;
#X obj 1 1 cnv 15 425 20 empty \$0-pddp.cnv.subheading empty 3 12 0
14 -204280 -1 0;
#X obj 61 269 b4p_lfo;
#X obj 175 269 b4p_pdvco;
#X obj 61 106 b4p_vco;
#X text 8 2 [b4p_cloud] Related Objects;
#X restore 102 679 pd Related_objects;
#X obj 78 571 cnv 17 3 17 empty \$0-pddp.cnv.let.0 0 5 9 0 16 -228856
-162280 0;
#X text 98 460 signal;
#X text 168 460 - 1v/oct input 1;
#X obj 78 460 cnv 17 3 17 empty \$0-pddp.cnv.let.0 0 5 9 0 16 -228856
-162280 0;
#X obj 78 482 cnv 17 3 17 empty \$0-pddp.cnv.let.0 1 5 9 0 16 -228856
-162280 0;
#X text 98 482 signal;
#X obj 78 504 cnv 17 3 17 empty \$0-pddp.cnv.let.0 2 5 9 0 16 -228856
-162280 0;
#X text 98 504 signal;
#X obj 78 526 cnv 17 3 17 empty \$0-pddp.cnv.let.0 3 5 9 0 16 -228856
-162280 0;
#X text 98 526 signal;
#X text 168 526 - linear input;
#X text 168 482 - 1v/oct input 2;
#X text 168 504 - 1v/oct input 3;
#X text 98 626 (none);
#X obj 89 407 dac~;
#X msg 384 358 \; pd dsp 1;
#X obj 384 336 loadbang;
#X obj 89 132 sig~;
#X text 98 570 signal;
#X text 168 570 - output waveform (10Vpp);
#X obj 89 94 mtof;
#X obj 89 113 / 12;
#X obj 89 385 *~ 0;
#X obj 365 161 b4p_lfo;
#X text 365 104 Try connecting theoutput of this LFOinto the inputs
ofthe VCO.;
#X obj 132 327 vsl 20 40 0 0.2 0 0 empty empty empty 0 -9 0 10 -2209
-4032 -1 0 1;
#X text 156 340 Volume;
#X text 166 62 <- MIDI Note;
#X obj 89 60 nbx 3 20 0 127 0 0 empty empty empty 0 -8 0 20 -2209 -262144
-262144 0 256 3;
#X text 11 23 voltage controlled cloud oscillator;
#X obj 89 161 b4p_cloud;
#X text 172 106 TIP: Control the deviationand number of saws with
thefatness parameter.;
#X connect 24 0 23 0;
#X connect 25 0 38 0;
#X connect 28 0 29 0;
#X connect 29 0 25 0;
#X connect 30 0 22 0;
#X connect 30 0 22 1;
#X connect 33 0 30 1;
#X connect 36 0 28 0;
#X connect 38 0 30 0;
