#N canvas 653 38 558 622 10;
#X obj 0 667 cnv 15 552 21 empty \$0-pddp.cnv.footer empty 20 12 0
14 -228856 -66577 0;
#X obj 0 0 cnv 15 552 40 empty \$0-pddp.cnv.header b4p_gain 3 12 0
18 -204280 -1 0;
#X obj 0 502 cnv 3 550 3 empty \$0-pddp.cnv.inlets inlets 8 12 0 13
-228856 -1 0;
#N canvas 755 197 507 361 META 0;
#X text 12 125 AUTHOR Jose Carlos Granja;
#X text 12 145 WEBSITE -;
#X text 12 165 RELEASE_DATE 2016;
#X text 12 65 INLET_0 signal;
#X text 12 85 OUTLET_0 signal;
#X text 12 105 LIBRARY b4p;
#X text 12 25 LICENSE BSD;
#X text 12 5 KEYWORDS gain offset b4p;
#X text 12 45 DESCRIPTION gain stage;
#X restore 500 669 pd META;
#X obj 0 550 cnv 3 550 3 empty \$0-pddp.cnv.outlets outlets 8 12 0
13 -228856 -1 0;
#X obj 0 597 cnv 3 550 3 empty \$0-pddp.cnv.argument arguments 8 12
0 13 -228856 -1 0;
#X obj 0 639 cnv 3 550 3 empty \$0-pddp.cnv.more_info more_info 8 12
0 13 -228856 -1 0;
#N canvas 208 83 428 471 Related_objects 0;
#X obj 1 1 cnv 15 425 20 empty \$0-pddp.cnv.subheading empty 3 12 0
14 -204280 -1 0;
#X obj 111 77 b4p_envFollower;
#X text 8 2 [b4p_gain] Related Objects;
#X obj 111 240 b4p_mixer;
#X restore 102 669 pd Related_objects;
#X obj 78 559 cnv 17 3 17 empty \$0-pddp.cnv.let.0 0 5 9 0 16 -228856
-162280 0;
#X text 98 510 signal;
#X obj 78 510 cnv 17 3 17 empty \$0-pddp.cnv.let.0 0 5 9 0 16 -228856
-162280 0;
#X text 98 616 (none);
#X text 98 558 signal;
#X text 11 23 gain stage;
#X obj 31 52 b4p_input;
#X obj 31 200 b4p_gain;
#X obj 31 348 b4p_output;
#X msg 242 426 \; pd dsp 1;
#X obj 242 404 loadbang;
#X obj 131 200 b4p_gain;
#X obj 387 52 b4p_lfo;
#X obj 387 200 b4p_gain;
#X obj 387 348 b4p_scope;
#X text 145 121 This is a gain/attenuation stage.It also provides
an offset control.;
#X text 168 510 - input signal;
#X text 168 558 - output signal;
#X text 243 248 It works with audioand control signals.;
#X connect 14 0 15 0;
#X connect 14 1 19 0;
#X connect 15 0 16 0;
#X connect 18 0 17 0;
#X connect 19 0 16 1;
#X connect 20 0 21 0;
#X connect 21 0 22 0;
