#N canvas 0 29 924 608 10;
#X obj 161 131 cnv 15 250 80 empty empty empty 20 12 0 14 -1625 -66577
0;
#X obj 32 577 +~;
#X obj 32 602 +~;
#X obj 32 624 *~ 12;
#X obj 101 552 *~ 0, f 5;
#X obj 215 551 *~ 0, f 5;
#X obj 161 212 cnv 15 250 20 empty empty empty 20 12 0 14 -1 -66577
0;
#X obj 164 217 cnv 10 35 12 empty empty Output 0 5 0 10 -1 -261234
0;
#X obj 161 89 cnv 15 250 20 empty empty empty 20 12 0 14 -1 -66577
0;
#X obj 164 96 cnv 10 35 12 empty empty CV1 0 5 0 10 -1 -261234 0;
#X obj 196 96 cnv 10 35 12 empty empty CV2 0 5 0 10 -1 -261234 0;
#X obj 237 96 cnv 10 35 12 empty empty CV3 0 5 0 10 -1 -261234 0;
#X obj 277 96 cnv 10 10 12 empty empty Lin 0 5 0 10 -1 -261234 0;
#X obj 225 145 cnv 15 12 12 empty empty CV2 0 5 0 10 -1625 -4032 0
;
#X obj 225 166 cnv 15 12 12 empty empty CV3 0 5 0 10 -1625 -4032 0
;
#X obj 225 187 cnv 15 12 12 empty empty Lin 0 5 0 10 -1625 -4032 0
;
#X obj 175 140 cnv 10 12 12 empty empty Offset 0 5 0 10 -1625 -4032
0;
#X obj 90 132 * 100;
#X obj 90 154 i;
#X msg 90 176 label \$1%;
#X obj 161 110 cnv 15 250 20 empty empty OSCILLATOR 5 10 0 14 -2209
-4032 0;
#X obj 108 845 r \$0-waveform;
#X obj 32 676 +~;
#X obj 141 616 - 0.5;
#X obj 141 638 * 24;
#X obj 441 146 * 100;
#X obj 441 168 i;
#X msg 441 190 label \$1%;
#X obj 350 141 cnv 10 12 12 empty empty PW 0 5 0 10 -1625 -4032 0;
#X obj 479 550 *~ 0, f 5;
#X obj 465 744 +~;
#X obj 380 141 cnv 10 12 12 empty empty PWM 0 5 0 10 -1625 -4032 0
;
#X obj 511 146 * 100;
#X obj 511 168 i;
#X msg 511 190 label \$1%;
#X obj 318 96 cnv 10 10 12 empty empty PWM 0 5 0 10 -1 -261234 0;
#X obj 479 572 /~ 5;
#X obj 355 96 cnv 10 10 12 empty empty Sync 0 5 0 10 -1 -261234 0;
#X obj 259 216 cnv 10 35 12 empty empty Phasor\ (0-5v) 0 5 0 10 -1
-261234 0;
#X obj 259 998 *~ 5;
#X obj 32 924 lop~ 10000;
#X obj 32 698 mtof~;
#X obj 32 748 *~;
#X obj 344 558 clip~ 0 100;
#X obj 345 662 expr~ 1 + $v1 * $f2 + ( 1 - $f2 ), f 17;
#N canvas 161 139 450 300 mute 0;
#X obj 100 100 tgl 15 1 empty empty empty 17 7 0 10 -262144 -1 -1 0
1;
#X obj 100 100 cnv 15 50 15 empty empty empty 20 12 0 14 -2209 -66577
0;
#X obj 100 100 cnv 15 15 15 empty \$0-muteCnv Mute 20 7 0 12 -1625
-166441 0;
#X obj 153 243 s \$0-muteCnv;
#X obj 80 159 tgl 15 0 empty empty empty 17 7 0 10 -262144 -1 -1 0
1;
#X obj 153 135 sel 0;
#X obj 180 154 bng 8 250 50 0 empty empty empty 17 7 0 10 -262144 -1
-1;
#X obj 62 247 outlet;
#X msg 153 181 color -26209 1;
#X msg 180 206 color 47 47;
#X obj 48 177 expr 1 - $f1;
#X connect 0 0 5 0;
#X connect 0 0 4 0;
#X connect 0 0 10 0;
#X connect 5 0 8 0;
#X connect 5 1 6 0;
#X connect 6 0 9 0;
#X connect 8 0 3 0;
#X connect 9 0 3 0;
#X connect 10 0 7 0;
#X coords 0 -1 1 1 50 15 2 100 100;
#X restore 354 112 pd mute;
#X obj 164 940 line;
#X msg 164 920 \$1 10;
#X obj 164 960 sig~;
#X obj 32 997 *~;
#X obj 164 900 * 5;
#N canvas 194 269 450 300 miniSlider 0;
#X obj 100 100 hsl 30 16 0 1 0 0 empty empty 0% 8 7 0 8 -33289 -4032
-4032 0 1;
#X obj 100 100 cnv 15 35 16 empty empty empty 20 12 0 14 -33289 -66577
0;
#X obj 100 100 cnv 1 1 16 empty \$0-sliderCV1 0% 10 7 0 10 -4032 -66577
0;
#X msg 177 141 label \$1%;
#X obj 176 99 * 100;
#X obj 176 121 i;
#X obj 99 146 outlet;
#X obj 97 36 inlet;
#X floatatom 273 122 5 0 0 0 - - -, f 5;
#X obj 257 88 * 35;
#X msg 270 154 vis_size \$1 16;
#X obj 271 189 s \$0-sliderCV1;
#X connect 0 0 4 0;
#X connect 0 0 6 0;
#X connect 0 0 9 0;
#X connect 3 0 11 0;
#X connect 4 0 5 0;
#X connect 5 0 3 0;
#X connect 7 0 0 0;
#X connect 8 0 10 0;
#X connect 9 0 10 0;
#X connect 10 0 11 0;
#X coords 0 -1 1 1 35 15 2 100 100;
#X restore 245 142 pd miniSlider;
#N canvas 194 269 450 300 miniSlider 0;
#X obj 100 100 hsl 30 16 0 1 0 0 empty empty 0% 8 7 0 8 -33289 -4032
-4032 0 1;
#X obj 100 100 cnv 15 35 16 empty empty empty 20 12 0 14 -33289 -66577
0;
#X obj 100 100 cnv 1 1 16 empty \$0-sliderCV2 0% 10 7 0 10 -4032 -66577
0;
#X msg 177 141 label \$1%;
#X obj 176 99 * 100;
#X obj 176 121 i;
#X obj 99 146 outlet;
#X obj 97 36 inlet;
#X floatatom 273 122 5 0 0 0 - - -, f 5;
#X obj 257 88 * 35;
#X msg 270 154 vis_size \$1 16;
#X obj 271 189 s \$0-sliderCV2;
#X connect 0 0 4 0;
#X connect 0 0 6 0;
#X connect 0 0 9 0;
#X connect 3 0 11 0;
#X connect 4 0 5 0;
#X connect 5 0 3 0;
#X connect 7 0 0 0;
#X connect 8 0 10 0;
#X connect 9 0 10 0;
#X connect 10 0 11 0;
#X coords 0 -1 1 1 35 15 2 100 100;
#X restore 245 163 pd miniSlider;
#N canvas 194 269 450 300 miniSlider 0;
#X obj 100 100 hsl 30 16 0 1 0 0 empty empty 0% 8 7 0 8 -33289 -4032
-4032 0 1;
#X obj 100 100 cnv 15 35 16 empty empty empty 20 12 0 14 -33289 -66577
0;
#X obj 100 100 cnv 1 1 16 empty \$0-sliderLin 0% 10 7 0 10 -4032 -66577
0;
#X msg 177 141 label \$1%;
#X obj 176 99 * 100;
#X obj 176 121 i;
#X obj 99 146 outlet;
#X obj 97 36 inlet;
#X floatatom 273 122 5 0 0 0 - - -, f 5;
#X obj 257 88 * 35;
#X msg 270 154 vis_size \$1 16;
#X obj 271 189 s \$0-sliderLin;
#X connect 0 0 4 0;
#X connect 0 0 6 0;
#X connect 0 0 9 0;
#X connect 3 0 11 0;
#X connect 4 0 5 0;
#X connect 5 0 3 0;
#X connect 7 0 0 0;
#X connect 8 0 10 0;
#X connect 9 0 10 0;
#X connect 10 0 11 0;
#X coords 0 -1 1 1 35 15 2 100 100;
#X restore 245 184 pd miniSlider;
#N canvas 496 236 674 483 waveSelector 0;
#N canvas 18 89 450 300 squareSelector 0;
#X obj 106 100 tgl 20 1 empty empty empty 17 7 0 10 -262144 -1 -1 1
1;
#X obj 134 100 tgl 20 0 empty empty empty 17 7 0 10 -262144 -1 -1 0
1;
#X obj 106 120 tgl 20 0 empty empty empty 17 7 0 10 -262144 -1 -1 0
1;
#X obj 134 120 tgl 20 0 empty empty empty 17 7 0 10 -262144 -1 -1 0
1;
#X obj 40 159 sel 1;
#X msg 40 181 0, f 1;
#X obj 160 159 sel 1;
#X msg 160 181 0, f 1;
#X obj 160 39 sel 1;
#X msg 160 61 0, f 1;
#X obj 40 39 sel 1;
#X msg 40 61 0, f 1;
#X msg 60 61 0, f 1;
#X msg 180 181 3, f 1;
#X obj 106 266 outlet;
#X msg 180 61 1, f 1;
#X msg 60 181 2, f 1;
#X obj 232 8 inlet;
#X obj 232 30 sel 0 1 2 3;
#X msg 93 62 1, f 1;
#X msg 200 60 1, f 1;
#X msg 80 181 1, f 1;
#X msg 142 181 1, f 1;
#X connect 0 0 10 0;
#X connect 1 0 8 0;
#X connect 2 0 4 0;
#X connect 3 0 6 0;
#X connect 4 0 5 0;
#X connect 4 0 16 0;
#X connect 5 0 0 0;
#X connect 5 0 1 0;
#X connect 5 0 3 0;
#X connect 6 0 7 0;
#X connect 6 0 13 0;
#X connect 7 0 1 0;
#X connect 7 0 0 0;
#X connect 7 0 2 0;
#X connect 8 0 9 0;
#X connect 8 0 15 0;
#X connect 9 0 0 0;
#X connect 9 0 3 0;
#X connect 9 0 2 0;
#X connect 10 0 11 0;
#X connect 10 0 12 0;
#X connect 11 0 1 0;
#X connect 11 0 2 0;
#X connect 11 0 3 0;
#X connect 12 0 14 0;
#X connect 13 0 14 0;
#X connect 15 0 14 0;
#X connect 16 0 14 0;
#X connect 17 0 18 0;
#X connect 18 0 11 0;
#X connect 18 0 12 0;
#X connect 18 0 19 0;
#X connect 18 1 9 0;
#X connect 18 1 15 0;
#X connect 18 1 20 0;
#X connect 18 2 5 0;
#X connect 18 2 16 0;
#X connect 18 2 21 0;
#X connect 18 3 7 0;
#X connect 18 3 13 0;
#X connect 18 3 22 0;
#X connect 19 0 0 0;
#X connect 20 0 1 0;
#X connect 21 0 2 0;
#X connect 22 0 3 0;
#X coords 0 -1 1 1 60 40 2 100 100;
#X restore 100 100 pd squareSelector;
#X obj 100 100 cnv 15 60 40 empty empty empty 20 12 0 14 -1625 -66577
0;
#X obj 107 104 cnv 10 12 12 empty \$0-sinLbl SIN 0 5 0 10 -1625 -44926
0;
#X obj 136 125 cnv 10 12 12 empty \$0-sqrLbl SQR 0 5 0 10 -1625 -2209
0;
#X obj 136 104 cnv 10 12 12 empty \$0-triLbl TRI 0 5 0 10 -1625 -2209
0;
#X obj 107 125 cnv 10 12 12 empty \$0-sawLbl SAW 0 5 0 10 -1625 -2209
0;
#X obj 107 200 outlet;
#X obj 216 239 s \$0-sinLbl;
#X msg 216 198 color -26209 47;
#X msg 243 217 color -26209 -34945;
#X obj 215 168 sel 0;
#X obj 242 187 bng 8 250 50 0 empty empty empty 17 7 0 10 -262144 -1
-1;
#X msg 531 200 color -26209 47;
#X msg 558 219 color -26209 -34945;
#X obj 557 189 bng 8 250 50 0 empty empty empty 17 7 0 10 -262144 -1
-1;
#X obj 531 241 s \$0-sawLbl;
#X msg 375 202 color -26209 47;
#X msg 402 221 color -26209 -34945;
#X obj 401 191 bng 8 250 50 0 empty empty empty 17 7 0 10 -262144 -1
-1;
#X obj 375 243 s \$0-triLbl;
#X msg 682 200 color -26209 47;
#X msg 709 219 color -26209 -34945;
#X obj 708 189 bng 8 250 50 0 empty empty empty 17 7 0 10 -262144 -1
-1;
#X obj 682 241 s \$0-sqrLbl;
#X obj 681 170 sel 3;
#X obj 374 172 sel 1;
#X obj 530 170 sel 2;
#X obj 105 73 inlet;
#X connect 0 0 10 0;
#X connect 0 0 24 0;
#X connect 0 0 25 0;
#X connect 0 0 26 0;
#X connect 0 0 6 0;
#X connect 8 0 7 0;
#X connect 9 0 7 0;
#X connect 10 0 8 0;
#X connect 10 1 11 0;
#X connect 11 0 9 0;
#X connect 12 0 15 0;
#X connect 13 0 15 0;
#X connect 14 0 13 0;
#X connect 16 0 19 0;
#X connect 17 0 19 0;
#X connect 18 0 17 0;
#X connect 20 0 23 0;
#X connect 21 0 23 0;
#X connect 22 0 21 0;
#X connect 24 0 20 0;
#X connect 24 1 22 0;
#X connect 25 0 16 0;
#X connect 25 1 18 0;
#X connect 26 0 12 0;
#X connect 26 1 14 0;
#X connect 27 0 0 0;
#X coords 0 -1 1 1 60 40 2 100 100;
#X restore 282 153 pd waveSelector;
#X obj 279 258 s \$0-waveform;
#X obj 82 240 s \$0-offset;
#X obj 141 595 r \$0-offset;
#X obj 167 238 s \$0-cv2Atten;
#X obj 128 531 r \$0-cv2Atten;
#X obj 194 258 s \$0-cv3Atten;
#X obj 242 531 r \$0-cv3Atten;
#X obj 252 238 s \$0-linAtten;
#X obj 372 630 r \$0-linAtten;
#X obj 420 107 s \$0-mute;
#X obj 164 879 r \$0-mute;
#X obj 367 258 s \$0-pwm;
#X obj 337 238 s \$0-pw;
#X obj 480 594 r \$0-pw;
#X obj 506 529 r \$0-pwm;
#X obj 389 239 s \$0-octCounter;
#X obj 232 595 r \$0-octCounter;
#X obj 232 660 pow, f 5;
#X obj 232 618 t b f;
#X msg 232 640 2, f 1;
#X obj 32 720 *~;
#X obj 580 733 edge~;
#X msg 580 754 1, f 1;
#X obj 580 711 expr~ $v1 > 2.5;
#X obj 180 158 moonlib/mknob 25 500 0 1 0 1 empty empty 50% 7 32 0
8 -1625 -4032 -4032 24950 1;
#X obj 345 160 moonlib/mknob 25 200 0.5 1 0 1 empty empty 50% 7 32
0 8 -1625 -4032 -4032 0 1;
#X obj 375 160 moonlib/mknob 25 200 0 1 0 0 empty empty 0% 7 32 0 8
-1625 -4032 -4032 0 1;
#X obj 434 958 outlet;
#X obj 298 402 s \$0-toSlave;
#X obj 434 915 r \$0-toSlave;
#X msg 417 353 waveform \$1;
#X obj 674 508 inlet;
#X obj 754 612 s \$0-fromMaster;
#X obj 674 612 s \$0-toSlave;
#X obj 674 560 prepent set;
#X obj 748 550 bng 8 250 50 0 empty empty empty 17 7 0 10 -262144 -1
-1;
#X msg 674 584 offset 0.638277;
#X obj 748 560 delay 10;
#X msg 162 354 cv2Atten \$1;
#X obj 182 -56 r \$0-fromMaster;
#X msg 250 354 cv3Atten \$1;
#X msg 332 354 linAtten \$1;
#X msg 505 353 pw \$1;
#X msg 556 355 pwm \$1;
#X obj 182 -31 route offset octave waveform cv2Atten cv3Atten linAtten
pw pwm, f 64;
#X obj 161 332 r \$0-cv2Atten;
#X obj 247 331 r \$0-cv3Atten;
#X obj 418 331 r \$0-waveform;
#X obj 332 331 r \$0-linAtten;
#X obj 505 331 r \$0-pw;
#X obj 556 331 r \$0-pwm;
#X msg 85 354 offset \$1;
#X obj 85 332 r \$0-offset;
#X obj 614 332 r \$0-octCounter;
#X msg 614 353 octave \$1;
#X obj 260 852 phasor~;
#X obj 137 32 preset_node b4p;
#X obj 168 54 preset_node b4p;
#X obj 194 73 preset_node b4p;
#X obj 238 31 preset_node b4p;
#X obj 273 51 preset_node b4p;
#X obj 338 30 preset_node b4p;
#X obj 373 52 preset_node b4p;
#N canvas 745 157 450 300 octaveController 0;
#N canvas 333 253 450 300 counter 0;
#X obj 136 155 i;
#X obj 164 155 + 1;
#X msg 179 133 1;
#X msg 201 106 -1;
#X obj 165 84 t b b b;
#X obj 141 107 t b b b;
#X obj 199 35 inlet;
#X obj 133 47 inlet;
#X obj 135 200 outlet;
#X obj 22 121 loadbang;
#X msg 22 143 0;
#X obj 91 71 route set;
#X msg 91 93 \$1;
#X connect 0 0 1 0;
#X connect 0 0 8 0;
#X connect 1 0 0 1;
#X connect 2 0 1 1;
#X connect 3 0 1 1;
#X connect 4 0 0 0;
#X connect 4 1 1 0;
#X connect 4 2 3 0;
#X connect 5 0 0 0;
#X connect 5 1 1 0;
#X connect 5 2 2 0;
#X connect 6 0 4 0;
#X connect 7 0 11 0;
#X connect 9 0 10 0;
#X connect 10 0 0 0;
#X connect 11 0 12 0;
#X connect 11 1 5 0;
#X connect 12 0 0 0;
#X restore 110 183 pd counter;
#X obj 104 338 s \$0-octLbl;
#X obj 104 214 < 0;
#X obj 104 236 sel 1;
#X msg 131 315 label +\$1oct;
#X msg 104 288 label \$1oct;
#X obj 104 263 i;
#X obj 131 266 i;
#X obj 131 255 bng 8 250 50 0 empty empty empty 17 7 0 10 -262144 -1
-1;
#N canvas 623 335 450 300 mute 0;
#X obj 100 100 bng 19 250 50 0 empty empty empty 17 7 0 10 -262144
-1 -1;
#X obj 100 100 cnv 19 19 19 empty \$0-plusCnv + 5 8 0 16 -1625 -44926
0;
#X obj 61 152 outlet;
#X obj 100 124 bng 15 250 50 0 empty empty empty 17 7 0 10 -262144
-1 -1;
#X obj 185 134 sel 0;
#X obj 212 153 bng 8 250 50 0 empty empty empty 17 7 0 10 -262144 -1
-1;
#X obj 185 242 s \$0-plusCnv;
#X obj 105 168 delay 100;
#X msg 185 180 color -26209 47;
#X msg 212 205 color 47 0;
#X connect 0 0 3 0;
#X connect 0 0 2 0;
#X connect 3 0 9 0;
#X connect 3 0 7 0;
#X connect 4 0 8 0;
#X connect 4 1 5 0;
#X connect 5 0 9 0;
#X connect 7 0 8 0;
#X connect 8 0 6 0;
#X connect 9 0 6 0;
#X coords 0 -1 1 1 19 19 2 100 100;
#X restore 100 100 pd mute;
#N canvas 627 110 450 300 mute 0;
#X obj 100 100 bng 19 250 50 0 empty empty empty 17 7 0 10 -262144
-1 -1;
#X obj 100 100 cnv 19 19 19 empty \$0-minusCnv - 5 8 0 17 -1625 -44926
0;
#X obj 61 152 outlet;
#X obj 100 124 bng 15 250 50 0 empty empty empty 17 7 0 10 -262144
-1 -1;
#X obj 208 126 sel 0;
#X obj 235 145 bng 8 250 50 0 empty empty empty 17 7 0 10 -262144 -1
-1;
#X obj 128 160 delay 100;
#X obj 208 234 s \$0-minusCnv;
#X msg 208 171 color -26209 47;
#X msg 235 197 color 47 0;
#X connect 0 0 3 0;
#X connect 0 0 2 0;
#X connect 3 0 6 0;
#X connect 3 0 9 0;
#X connect 4 0 8 0;
#X connect 4 1 5 0;
#X connect 5 0 9 0;
#X connect 6 0 8 0;
#X connect 8 0 7 0;
#X connect 9 0 7 0;
#X coords 0 -1 1 1 19 19 2 100 100;
#X restore 151 100 pd mute;
#X obj 120 100 cnv 19 30 19 empty \$0-octLbl +0oct 0 8 0 10 -1625 -4032
0;
#X obj 23 80 inlet;
#X obj 18 338 outlet;
#X msg 23 102 set \$1;
#X connect 0 0 6 1;
#X connect 0 0 7 1;
#X connect 0 0 2 0;
#X connect 0 0 13 0;
#X connect 2 0 3 0;
#X connect 3 0 6 0;
#X connect 3 1 8 0;
#X connect 4 0 1 0;
#X connect 5 0 1 0;
#X connect 6 0 5 0;
#X connect 7 0 4 0;
#X connect 8 0 7 0;
#X connect 9 0 0 0;
#X connect 10 0 0 1;
#X connect 12 0 14 0;
#X connect 14 0 0 0;
#X coords 0 -1 1 1 70 19 2 100 100;
#X restore 263 116 pd octaveController;
#X obj 296 69 preset_node b4p;
#X obj 393 93 cnv 10 10 12 empty \$0-masterMessage ● 0 5 0 10 -1
-261234 0;
#X obj 393 216 cnv 10 10 12 empty \$0-slaveMessage ● 0 5 0 10 -1
-262144 0;
#N canvas 791 41 450 300 oscillator 0;
#X obj 62 47 inlet~ frequency;
#X obj 44 231 outlet~;
#X obj 302 47 inlet waveform;
#X obj 166 47 inlet~ pwm;
#X obj 234 47 inlet sync;
#N canvas 260 180 450 300 saw~ 0;
#X obj 33 78 phasor~;
#X obj 32 109 *~ 2;
#X obj 32 131 -~ 1;
#X obj 30 41 inlet~;
#X obj 31 170 outlet~;
#X obj 185 130 switch~;
#X obj 194 38 inlet;
#X msg 194 82 1;
#X msg 222 81 0;
#X obj 194 60 sel 2;
#X obj 115 29 inlet;
#X connect 0 0 1 0;
#X connect 1 0 2 0;
#X connect 2 0 4 0;
#X connect 3 0 0 0;
#X connect 6 0 9 0;
#X connect 7 0 5 0;
#X connect 8 0 5 0;
#X connect 9 0 7 0;
#X connect 9 1 8 0;
#X connect 10 0 0 1;
#X restore 181 97 pd saw~;
#N canvas 210 330 450 300 sine~ 0;
#X obj 99 55 inlet~;
#X obj 99 77 osc~;
#X obj 99 99 outlet~;
#X obj 218 117 switch~;
#X obj 227 25 inlet;
#X obj 227 47 sel 0;
#X msg 227 69 1;
#X msg 255 68 0;
#X obj 147 20 inlet;
#X connect 0 0 1 0;
#X connect 1 0 2 0;
#X connect 4 0 5 0;
#X connect 5 0 6 0;
#X connect 5 1 7 0;
#X connect 6 0 3 0;
#X connect 7 0 3 0;
#X connect 8 0 1 1;
#X restore 63 97 pd sine~;
#N canvas 215 210 450 300 tri~ 0;
#X obj 163 43 *~ 2;
#X obj 163 65 -~ 1;
#X obj 162 96 abs~;
#X obj 162 118 *~ 2;
#X obj 162 140 -~ 1;
#X obj 163 20 phasor~;
#X obj 156 -8 inlet~;
#X obj 162 162 outlet~;
#X obj 267 136 switch~;
#X obj 276 44 inlet;
#X msg 276 88 1;
#X msg 304 87 0;
#X obj 276 66 sel 1;
#X obj 231 -1 inlet;
#X connect 0 0 1 0;
#X connect 1 0 2 0;
#X connect 2 0 3 0;
#X connect 3 0 4 0;
#X connect 4 0 7 0;
#X connect 5 0 0 0;
#X connect 6 0 5 0;
#X connect 9 0 12 0;
#X connect 10 0 8 0;
#X connect 11 0 8 0;
#X connect 12 0 10 0;
#X connect 12 1 11 0;
#X connect 13 0 5 1;
#X restore 122 97 pd tri~;
#N canvas 284 289 450 300 square~ 0;
#X obj 108 108 phasor~;
#X obj 103 78 inlet~;
#X obj 104 169 outlet~;
#X obj 338 174 switch~;
#X obj 347 82 inlet;
#X msg 347 126 1;
#X msg 375 125 0;
#X obj 347 104 sel 3;
#X obj 211 84 inlet;
#X obj 105 140 expr~ ( $v1 > $v2 ) * 2 - 1, f 37;
#X obj 175 58 inlet~;
#X connect 0 0 9 0;
#X connect 1 0 0 0;
#X connect 4 0 7 0;
#X connect 5 0 3 0;
#X connect 6 0 3 0;
#X connect 7 0 5 0;
#X connect 7 1 6 0;
#X connect 8 0 0 1;
#X connect 9 0 2 0;
#X connect 10 0 9 1;
#X restore 241 97 pd square~;
#N canvas 342 224 450 300 switch 0;
#X obj 115 76 inlet~, f 7;
#X obj 36 76 inlet;
#X obj 36 171 sel 0;
#X obj 115 108 spigot~;
#X obj 175 76 inlet~, f 7;
#X obj 175 108 spigot~;
#X obj 235 76 inlet~, f 7;
#X obj 235 108 spigot~;
#X obj 295 76 inlet~, f 7;
#X obj 295 108 spigot~;
#X msg 36 190 0, f 1;
#X msg 63 190 1, f 1;
#X msg 96 190 0, f 1;
#X msg 123 190 1, f 1;
#X msg 156 190 0, f 1;
#X msg 183 190 1, f 1;
#X msg 216 190 0, f 1;
#X msg 243 190 1, f 1;
#X obj 96 171 sel 1;
#X obj 156 171 sel 2;
#X obj 216 171 sel 3;
#X obj 184 146 outlet~;
#X connect 0 0 3 0;
#X connect 1 0 2 0;
#X connect 1 0 18 0;
#X connect 1 0 20 0;
#X connect 1 0 19 0;
#X connect 2 0 10 0;
#X connect 2 1 11 0;
#X connect 3 0 21 0;
#X connect 4 0 5 0;
#X connect 5 0 21 0;
#X connect 6 0 7 0;
#X connect 7 0 21 0;
#X connect 8 0 9 0;
#X connect 9 0 21 0;
#X connect 10 0 3 1;
#X connect 11 0 3 1;
#X connect 12 0 5 1;
#X connect 13 0 5 1;
#X connect 14 0 7 1;
#X connect 15 0 7 1;
#X connect 16 0 9 1;
#X connect 17 0 9 1;
#X connect 18 0 12 0;
#X connect 18 1 13 0;
#X connect 19 0 14 0;
#X connect 19 1 15 0;
#X connect 20 0 16 0;
#X connect 20 1 17 0;
#X restore 5 154 pd switch, f 40;
#X connect 0 0 6 0;
#X connect 0 0 8 0;
#X connect 0 0 7 0;
#X connect 0 0 5 0;
#X connect 2 0 9 0;
#X connect 2 0 8 3;
#X connect 2 0 5 2;
#X connect 2 0 7 2;
#X connect 2 0 6 2;
#X connect 3 0 8 1;
#X connect 4 0 8 2;
#X connect 4 0 5 1;
#X connect 4 0 7 1;
#X connect 4 0 6 1;
#X connect 5 0 9 3;
#X connect 6 0 9 1;
#X connect 7 0 9 2;
#X connect 8 0 9 4;
#X connect 9 0 1 0;
#X restore 33 867 pd oscillator;
#X obj 31 508 inlet~ CV1;
#X obj 101 508 inlet~ CV2;
#X obj 215 508 inlet~ CV3;
#X obj 344 508 inlet~ Lin;
#X obj 479 508 inlet~ PWM;
#X obj 580 509 inlet~ Sync;
#X obj 32 1022 outlet~ Output;
#X obj 259 1019 outlet~ Phasor;
#X connect 1 0 2 0;
#X connect 2 0 3 0;
#X connect 3 0 22 0;
#X connect 4 0 1 1;
#X connect 5 0 2 1;
#X connect 17 0 18 0;
#X connect 18 0 19 0;
#X connect 19 0 79 0;
#X connect 21 0 122 3;
#X connect 22 0 41 0;
#X connect 23 0 24 0;
#X connect 24 0 22 1;
#X connect 25 0 26 0;
#X connect 26 0 27 0;
#X connect 27 0 80 0;
#X connect 29 0 36 0;
#X connect 30 0 122 1;
#X connect 32 0 33 0;
#X connect 33 0 34 0;
#X connect 34 0 81 0;
#X connect 36 0 30 0;
#X connect 39 0 130 0;
#X connect 40 0 49 0;
#X connect 41 0 75 0;
#X connect 42 0 110 0;
#X connect 42 0 122 0;
#X connect 43 0 44 0;
#X connect 44 0 42 1;
#X connect 45 0 64 0;
#X connect 46 0 48 0;
#X connect 47 0 46 0;
#X connect 48 0 49 1;
#X connect 49 0 129 0;
#X connect 50 0 47 0;
#X connect 51 0 58 0;
#X connect 52 0 60 0;
#X connect 53 0 62 0;
#X connect 54 0 55 0;
#X connect 57 0 23 0;
#X connect 59 0 4 1;
#X connect 61 0 5 1;
#X connect 63 0 44 1;
#X connect 65 0 50 0;
#X connect 68 0 30 1;
#X connect 69 0 29 1;
#X connect 71 0 73 0;
#X connect 72 0 75 1;
#X connect 73 0 74 0;
#X connect 73 1 72 1;
#X connect 74 0 72 0;
#X connect 75 0 42 0;
#X connect 76 0 77 0;
#X connect 77 0 122 2;
#X connect 78 0 76 0;
#X connect 79 0 17 0;
#X connect 79 0 56 0;
#X connect 80 0 25 0;
#X connect 80 0 67 0;
#X connect 81 0 32 0;
#X connect 81 0 66 0;
#X connect 84 0 82 0;
#X connect 85 0 83 0;
#X connect 86 0 89 0;
#X connect 86 0 90 0;
#X connect 89 0 91 0;
#X connect 90 0 92 0;
#X connect 91 0 87 0;
#X connect 91 0 88 0;
#X connect 92 0 91 0;
#X connect 93 0 83 0;
#X connect 94 0 99 0;
#X connect 95 0 83 0;
#X connect 96 0 83 0;
#X connect 97 0 83 0;
#X connect 98 0 83 0;
#X connect 99 0 79 0;
#X connect 99 1 118 0;
#X connect 99 2 54 0;
#X connect 99 3 51 0;
#X connect 99 4 52 0;
#X connect 99 5 53 0;
#X connect 99 6 80 0;
#X connect 99 7 81 0;
#X connect 100 0 93 0;
#X connect 101 0 95 0;
#X connect 102 0 85 0;
#X connect 103 0 96 0;
#X connect 104 0 97 0;
#X connect 105 0 98 0;
#X connect 106 0 83 0;
#X connect 107 0 106 0;
#X connect 108 0 109 0;
#X connect 109 0 83 0;
#X connect 110 0 39 0;
#X connect 111 0 79 0;
#X connect 112 0 51 0;
#X connect 113 0 52 0;
#X connect 114 0 53 0;
#X connect 115 0 54 0;
#X connect 116 0 80 0;
#X connect 117 0 81 0;
#X connect 118 0 70 0;
#X connect 119 0 118 0;
#X connect 122 0 40 0;
#X connect 123 0 1 0;
#X connect 124 0 4 0;
#X connect 125 0 5 0;
#X connect 126 0 43 0;
#X connect 127 0 29 0;
#X connect 128 0 78 0;
#X coords 0 -1 1 1 250 143 2 161 89;
