#N canvas 76 87 344 568 10;
#X obj 161 131 cnv 15 90 80 empty empty empty 20 12 0 14 -1625 -66577
0;
#X obj 161 212 cnv 15 90 20 empty empty empty 20 12 0 14 -1 -66577
0;
#X obj 164 217 cnv 10 35 12 empty empty Clock 0 5 0 10 -1 -261234 0
;
#X obj 161 89 cnv 15 90 20 empty empty empty 20 12 0 14 -1 -66577 0
;
#X obj 161 110 cnv 15 90 20 empty empty MIDI\ CLOCK 5 10 0 14 -2209
-4032 0;
#X obj 47 362 % 24;
#X obj 47 384 sel 0;
#X obj 47 274 sel 248 250 251;
#X obj 47 231 midirealtimein;
#X obj 48 338 i;
#X obj 76 338 + 1;
#X obj 48 312 t b b;
#X msg 13 312 0;
#X msg 154 490 color 2;
#X msg 98 489 color 1;
#X obj 88 412 delay 50;
#X obj 98 517 s \$0-metroLed;
#X obj 201 217 cnv 8 8 8 empty \$0-metroLed empty 20 12 0 14 -66577
-262144 0;
#X obj 10 495 sig~;
#X obj 10 517 outlet~;
#X msg 10 468 5, f 1;
#X msg 30 468 0, f 1;
#N canvas 263 124 1030 388 subdivisionSelector 0;
#N canvas 718 124 576 447 squareSelector 0;
#X obj 222 94 sel 1;
#X msg 222 116 0, f 1;
#X obj 35 196 sel 1;
#X msg 35 218 0, f 1;
#X obj 223 34 sel 1;
#X msg 223 56 0, f 1;
#X obj 40 39 sel 1;
#X msg 40 61 0, f 1;
#X msg 76 62 0, f 1;
#X obj 106 266 outlet;
#X msg 259 56 1, f 1;
#X obj 290 -12 inlet;
#X msg 59 61 1, f 1;
#X msg 241 56 1, f 1;
#X msg 239 116 1, f 1;
#X msg 53 217 1, f 1;
#N canvas 898 257 450 300 tgl 0;
#X obj 100 100 tgl 20 0 empty empty empty 17 7 0 10 -262144 -1 -1 0
1;
#X obj 110 100 tgl 20 1 empty empty empty 17 7 0 10 -262144 -1 -1 0
1;
#X msg 121 132 set \$1;
#X obj 89 55 inlet;
#X obj 71 156 outlet;
#X connect 0 0 1 0;
#X connect 0 0 4 0;
#X connect 1 0 2 0;
#X connect 1 0 4 0;
#X connect 2 0 0 0;
#X connect 3 0 0 0;
#X coords 0 -1 1 1 30 20 2 100 100;
#X restore 101 102 pd tgl;
#N canvas 898 257 450 300 tgl 0;
#X obj 100 100 tgl 20 0 empty empty empty 17 7 0 10 -262144 -1 -1 1
1;
#X obj 110 100 tgl 20 1 empty empty empty 17 7 0 10 -262144 -1 -1 1
1;
#X msg 121 132 set \$1;
#X obj 89 55 inlet;
#X obj 71 156 outlet;
#X connect 0 0 1 0;
#X connect 0 0 4 0;
#X connect 1 0 2 0;
#X connect 1 0 4 0;
#X connect 2 0 0 0;
#X connect 3 0 0 0;
#X coords 0 -1 1 1 30 20 2 100 100;
#X restore 133 102 pd tgl;
#N canvas 898 257 450 300 tgl 0;
#X obj 100 100 tgl 20 0 empty empty empty 17 7 0 10 -262144 -1 -1 0
1;
#X obj 110 100 tgl 20 1 empty empty empty 17 7 0 10 -262144 -1 -1 0
1;
#X msg 121 132 set \$1;
#X obj 89 55 inlet;
#X obj 71 156 outlet;
#X connect 0 0 1 0;
#X connect 0 0 4 0;
#X connect 1 0 2 0;
#X connect 1 0 4 0;
#X connect 2 0 0 0;
#X connect 3 0 0 0;
#X coords 0 -1 1 1 30 20 2 100 100;
#X restore 133 123 pd tgl;
#N canvas 898 257 450 300 tgl 0;
#X obj 100 100 tgl 20 0 empty empty empty 17 7 0 10 -262144 -1 -1 0
1;
#X obj 110 100 tgl 20 1 empty empty empty 17 7 0 10 -262144 -1 -1 0
1;
#X msg 121 132 set \$1;
#X obj 89 55 inlet;
#X obj 71 156 outlet;
#X connect 0 0 1 0;
#X connect 0 0 4 0;
#X connect 1 0 2 0;
#X connect 1 0 4 0;
#X connect 2 0 0 0;
#X connect 3 0 0 0;
#X coords 0 -1 1 1 30 20 2 100 100;
#X restore 101 144 pd tgl;
#N canvas 898 257 450 300 tgl 0;
#X obj 100 100 tgl 20 0 empty empty empty 17 7 0 10 -262144 -1 -1 0
1;
#X obj 110 100 tgl 20 1 empty empty empty 17 7 0 10 -262144 -1 -1 0
1;
#X msg 121 132 set \$1;
#X obj 89 55 inlet;
#X obj 71 156 outlet;
#X connect 0 0 1 0;
#X connect 0 0 4 0;
#X connect 1 0 2 0;
#X connect 1 0 4 0;
#X connect 2 0 0 0;
#X connect 3 0 0 0;
#X coords 0 -1 1 1 30 20 2 100 100;
#X restore 101 123 pd tgl;
#N canvas 898 257 450 300 tgl 0;
#X obj 100 100 tgl 20 0 empty empty empty 17 7 0 10 -262144 -1 -1 0
1;
#X obj 110 100 tgl 20 1 empty empty empty 17 7 0 10 -262144 -1 -1 0
1;
#X msg 121 132 set \$1;
#X obj 89 55 inlet;
#X obj 71 156 outlet;
#X connect 0 0 1 0;
#X connect 0 0 4 0;
#X connect 1 0 2 0;
#X connect 1 0 4 0;
#X connect 2 0 0 0;
#X connect 3 0 0 0;
#X coords 0 -1 1 1 30 20 2 100 100;
#X restore 133 144 pd tgl;
#X obj 290 10 sel 0 1 2 3 4 5;
#X obj 35 101 sel 1;
#X msg 35 123 0, f 1;
#X msg 53 123 1, f 1;
#X obj 221 190 sel 1;
#X msg 221 212 0, f 1;
#X msg 239 212 1, f 1;
#X msg 71 123 2, f 1;
#X msg 256 114 3, f 1;
#X msg 67 217 4, f 1;
#X msg 257 212 5, f 1;
#X connect 0 0 1 0;
#X connect 0 0 30 0;
#X connect 1 0 16 0;
#X connect 1 0 17 0;
#X connect 1 0 19 0;
#X connect 1 0 20 0;
#X connect 1 0 21 0;
#X connect 2 0 3 0;
#X connect 2 0 31 0;
#X connect 3 0 16 0;
#X connect 3 0 17 0;
#X connect 3 0 18 0;
#X connect 3 0 20 0;
#X connect 3 0 21 0;
#X connect 4 0 5 0;
#X connect 4 0 10 0;
#X connect 5 0 16 0;
#X connect 5 0 18 0;
#X connect 5 0 19 0;
#X connect 5 0 20 0;
#X connect 5 0 21 0;
#X connect 6 0 7 0;
#X connect 6 0 8 0;
#X connect 7 0 17 0;
#X connect 7 0 18 0;
#X connect 7 0 19 0;
#X connect 7 0 20 0;
#X connect 7 0 21 0;
#X connect 8 0 9 0;
#X connect 10 0 9 0;
#X connect 11 0 22 0;
#X connect 12 0 16 0;
#X connect 13 0 17 0;
#X connect 14 0 18 0;
#X connect 15 0 19 0;
#X connect 16 0 6 0;
#X connect 17 0 4 0;
#X connect 18 0 0 0;
#X connect 19 0 2 0;
#X connect 20 0 23 0;
#X connect 21 0 26 0;
#X connect 22 0 7 0;
#X connect 22 0 8 0;
#X connect 22 0 12 0;
#X connect 22 1 5 0;
#X connect 22 1 10 0;
#X connect 22 1 13 0;
#X connect 22 2 24 0;
#X connect 22 2 25 0;
#X connect 22 2 29 0;
#X connect 22 3 1 0;
#X connect 22 3 14 0;
#X connect 22 3 30 0;
#X connect 22 4 3 0;
#X connect 22 4 15 0;
#X connect 22 4 31 0;
#X connect 22 5 27 0;
#X connect 22 5 28 0;
#X connect 22 5 32 0;
#X connect 23 0 24 0;
#X connect 23 0 29 0;
#X connect 24 0 16 0;
#X connect 24 0 17 0;
#X connect 24 0 18 0;
#X connect 24 0 19 0;
#X connect 24 0 21 0;
#X connect 25 0 20 0;
#X connect 26 0 27 0;
#X connect 26 0 32 0;
#X connect 27 0 20 0;
#X connect 27 0 17 0;
#X connect 27 0 19 0;
#X connect 27 0 18 0;
#X connect 27 0 16 0;
#X connect 28 0 21 0;
#X connect 29 0 9 0;
#X connect 30 0 9 0;
#X connect 31 0 9 0;
#X connect 32 0 9 0;
#X coords 0 -1 1 1 64 66 2 100 100;
#X restore 100 100 pd squareSelector;
#X obj 100 100 cnv 15 64 66 empty empty empty 20 12 0 14 -2209 -66577
0;
#X obj 100 300 outlet;
#X msg 243 217 color -26209 -34945;
#X obj 215 168 sel 0;
#X obj 242 187 bng 8 250 50 0 empty empty empty 17 7 0 10 -262144 -1
-1;
#X msg 558 219 color -26209 -34945;
#X obj 557 189 bng 8 250 50 0 empty empty empty 17 7 0 10 -262144 -1
-1;
#X msg 402 221 color -26209 -34945;
#X obj 401 191 bng 8 250 50 0 empty empty empty 17 7 0 10 -262144 -1
-1;
#X msg 709 219 color -26209 -34945;
#X obj 708 189 bng 8 250 50 0 empty empty empty 17 7 0 10 -262144 -1
-1;
#X obj 681 170 sel 3;
#X obj 374 172 sel 1;
#X obj 530 170 sel 2;
#X obj 100 32 inlet;
#X obj 216 239 s \$0-2Lbl;
#X obj 375 243 s \$0-4Lbl;
#X obj 531 241 s \$0-6Lbl;
#X obj 682 241 s \$0-8Lbl;
#X msg 878 219 color -26209 -34945;
#X obj 877 189 bng 8 250 50 0 empty empty empty 17 7 0 10 -262144 -1
-1;
#X msg 1029 219 color -26209 -34945;
#X obj 1028 189 bng 8 250 50 0 empty empty empty 17 7 0 10 -262144
-1 -1;
#X obj 850 170 sel 4;
#X obj 1001 170 sel 5;
#X obj 851 241 s \$0-12Lbl;
#X obj 1002 241 s \$0-16Lbl;
#X obj 133 101 cnv 20 30 20 empty \$0-4Lbl 1/4 6 10 0 10 -44926 -2209
0;
#X msg 375 202 color 47 -34945;
#X obj 101 101 cnv 20 30 20 empty \$0-2Lbl 1/2 6 10 0 10 -1625 -2209
0;
#X msg 216 198 color 47 -34945;
#X msg 531 200 color 47 -34945;
#X msg 682 200 color 47 -34945;
#X msg 851 200 color 47 -34945;
#X msg 1002 200 color 47 -34945;
#X obj 133 123 cnv 20 30 20 empty \$0-8Lbl 1/8 6 10 0 10 -1625 -2209
0;
#X obj 101 123 cnv 20 30 20 empty \$0-6Lbl 1/6 6 10 0 10 -1625 -2209
0;
#X obj 133 145 cnv 20 30 20 empty \$0-16Lbl 1/16 3 10 0 10 -1625 -2209
0;
#X obj 101 145 cnv 20 30 20 empty \$0-12Lbl 1/12 3 10 0 10 -1625 -2209
0;
#X connect 0 0 4 0;
#X connect 0 0 12 0;
#X connect 0 0 13 0;
#X connect 0 0 14 0;
#X connect 0 0 2 0;
#X connect 0 0 24 0;
#X connect 0 0 25 0;
#X connect 3 0 16 0;
#X connect 4 0 31 0;
#X connect 4 1 5 0;
#X connect 5 0 3 0;
#X connect 6 0 18 0;
#X connect 7 0 6 0;
#X connect 8 0 17 0;
#X connect 9 0 8 0;
#X connect 10 0 19 0;
#X connect 11 0 10 0;
#X connect 12 0 33 0;
#X connect 12 1 11 0;
#X connect 13 0 29 0;
#X connect 13 1 9 0;
#X connect 14 0 32 0;
#X connect 14 1 7 0;
#X connect 15 0 0 0;
#X connect 20 0 26 0;
#X connect 21 0 20 0;
#X connect 22 0 27 0;
#X connect 23 0 22 0;
#X connect 24 0 34 0;
#X connect 24 1 21 0;
#X connect 25 0 35 0;
#X connect 25 1 23 0;
#X connect 29 0 17 0;
#X connect 31 0 16 0;
#X connect 32 0 18 0;
#X connect 33 0 19 0;
#X connect 34 0 26 0;
#X connect 35 0 27 0;
#X coords 0 -1 1 1 64 66 2 100 100;
#X restore 173 138 pd subdivisionSelector;
#X obj 144 52 preset_node b4p;
#X msg 173 297 48, f 2;
#X msg 193 297 24, f 2;
#X msg 214 297 16, f 2;
#X msg 234 297 12, f 2;
#X msg 255 297 8, f 2;
#X msg 275 297 6, f 2;
#X obj 173 275 sel 0 1 2 3 4 5, f 21;
#X obj 173 331 i, f 1;
#X connect 5 0 6 0;
#X connect 6 0 15 0;
#X connect 6 0 14 0;
#X connect 6 0 20 0;
#X connect 7 0 11 0;
#X connect 7 1 12 0;
#X connect 7 2 12 0;
#X connect 8 0 7 0;
#X connect 9 0 10 0;
#X connect 9 0 5 0;
#X connect 10 0 9 1;
#X connect 11 0 9 0;
#X connect 11 1 10 0;
#X connect 12 0 9 0;
#X connect 13 0 16 0;
#X connect 14 0 16 0;
#X connect 15 0 13 0;
#X connect 15 0 21 0;
#X connect 18 0 19 0;
#X connect 20 0 18 0;
#X connect 21 0 18 0;
#X connect 22 0 30 0;
#X connect 23 0 22 0;
#X connect 24 0 31 0;
#X connect 25 0 31 0;
#X connect 26 0 31 0;
#X connect 27 0 31 0;
#X connect 28 0 31 0;
#X connect 29 0 31 0;
#X connect 30 0 24 0;
#X connect 30 1 25 0;
#X connect 30 2 26 0;
#X connect 30 3 27 0;
#X connect 30 4 28 0;
#X connect 30 5 29 0;
#X connect 31 0 5 1;
#X coords 0 -1 1 1 90 143 2 161 89;
