#N canvas 314 36 558 624 10;
#X obj 0 1085 cnv 15 552 21 empty \$0-pddp.cnv.footer empty 20 12 0
14 -228856 -66577 0;
#X obj 0 0 cnv 15 552 40 empty \$0-pddp.cnv.header b4p_ladder 3 12
0 18 -204280 -1 0;
#X obj 0 572 cnv 3 550 3 empty \$0-pddp.cnv.inlets inlets 8 12 0 13
-228856 -1 0;
#N canvas 756 113 507 361 META 0;
#X text 12 245 AUTHOR Jose Carlos Granja;
#X text 12 265 WEBSITE -;
#X text 12 285 RELEASE_DATE 2016;
#X text 12 65 INLET_0 signal;
#X text 12 85 INLET_1 signal;
#X text 12 105 INLET_2 signal;
#X text 12 125 INLET_3 signal;
#X text 12 145 INLET_4 signal;
#X text 12 185 OUTLET_0 signal;
#X text 12 225 LIBRARY b4p;
#X text 12 25 LICENSE BSD;
#X text 12 5 KEYWORDS ladder filter vcf b4p;
#X text 12 45 DESCRIPTION voltage controlled filter;
#X text 12 165 INLET_5 list;
#X text 12 205 OUTLET_1 list;
#X restore 500 1087 pd META;
#X obj 0 838 cnv 3 550 3 empty \$0-pddp.cnv.outlets outlets 8 12 0
13 -228856 -1 0;
#X obj 0 1015 cnv 3 550 3 empty \$0-pddp.cnv.argument arguments 8 12
0 13 -228856 -1 0;
#X obj 0 1057 cnv 3 550 3 empty \$0-pddp.cnv.more_info more_info 8
12 0 13 -228856 -1 0;
#N canvas 208 83 428 218 Related_objects 0;
#X obj 1 1 cnv 15 425 20 empty \$0-pddp.cnv.subheading empty 3 12 0
14 -204280 -1 0;
#X text 8 2 [b4p_ladder] Related Objects;
#X restore 102 1087 pd Related_objects;
#X obj 78 847 cnv 17 3 17 empty \$0-pddp.cnv.let.0 0 5 9 0 16 -228856
-162280 0;
#X text 98 580 signal;
#X obj 78 580 cnv 17 3 17 empty \$0-pddp.cnv.let.0 0 5 9 0 16 -228856
-162280 0;
#X obj 78 602 cnv 17 3 17 empty \$0-pddp.cnv.let.0 1 5 9 0 16 -228856
-162280 0;
#X text 98 602 signal;
#X obj 78 624 cnv 17 3 17 empty \$0-pddp.cnv.let.0 2 5 9 0 16 -228856
-162280 0;
#X text 98 624 signal;
#X obj 78 646 cnv 17 3 17 empty \$0-pddp.cnv.let.0 3 5 9 0 16 -228856
-162280 0;
#X text 98 646 signal;
#X obj 78 668 cnv 17 3 17 empty \$0-pddp.cnv.let.0 4 5 9 0 16 -228856
-162280 0;
#X text 98 668 signal;
#X text 98 1034 (none);
#X text 98 846 signal;
#X obj 365 211 b4p_lfo;
#X obj 78 690 cnv 17 3 130 empty \$0-pddp.cnv.let.0 5 5 9 0 16 -228856
-162280 0;
#X obj 78 870 cnv 17 3 130 empty \$0-pddp.cnv.let.0 1 5 9 0 16 -228856
-162280 0;
#X text 168 930 - attenuetion of input 3 (0-1);
#X text 168 910 - attenuetion of input 2 (0-1);
#X text 11 23 voltage controlled filter;
#X obj 55 213 b4p_ladder;
#X obj 55 371 b4p_output;
#X obj 55 64 b4p_noise;
#X text 365 124 Try connecting theoutput of this LFOinto the inputs
ofthe filter. Adjustthe correspondingCV control.;
#X msg 269 473 \; pd dsp 1;
#X obj 269 451 loadbang;
#X text 169 58 This is a voltage controlled filter based on the ladderdesign
as found in Moog synthesizers.It has three 1V/oct inputs and a resonance
control input.;
#N canvas 812 34 403 545 daisyChain 0;
#X text 144 44 Daisy chaining modules.;
#X obj 77 144 b4p_ladder;
#X obj 148 294 print One VCF says to another;
#X obj 77 318 b4p_ladder;
#X text 50 474 You can see this filter reacting to those changes.;
#X text 69 113 Try changing any parameter of the top filter.;
#X connect 1 1 2 0;
#X connect 1 1 3 5;
#X restore 343 420 pd daisyChain;
#X text 188 384 This module can be disy chainedwith the right inlet
and right outlet.;
#X text 188 420 Check out this example ->;
#X text 98 690 freq;
#X text 168 690 - sets the frequency of the filter (0-20000Hz);
#X text 98 710 cv1;
#X text 98 730 cv2;
#X text 98 750 cv3;
#X text 168 710 - adjust the attenuation of control input 1 (0-1);
#X text 168 730 - adjust the attenuation of control input 2 (0-1);
#X text 168 750 - adjust the attenuation of control input 3 (0-1);
#X text 98 770 res;
#X text 98 790 cvRes;
#X text 168 790 - adjust the attenuation of resonance control input
(0-1);
#X text 168 770 - adjust the resonance of the filter (0-1);
#X text 168 890 - attenuetion of input 1 (0-1);
#X text 98 890 cv1;
#X text 98 910 cv2;
#X text 98 930 cv3;
#X text 168 870 - current cuttof frequency (0-20000Hz);
#X text 98 870 freq;
#X text 98 950 res;
#X text 98 970 cvRes;
#X text 168 950 - current resonance of the filter (0-1);
#X text 168 970 - current attenuation of resonance control input (0-1)
;
#X text 168 580 - audio input;
#X text 168 602 - 1v/oct input 1;
#X text 168 624 - 1v/oct input 2;
#X text 168 646 - 1v/oct input 3;
#X text 168 846 - audio output;
#X text 168 668 - voltage control for the resonance of the filter;
#X connect 27 0 28 0;
#X connect 27 0 28 1;
#X connect 29 0 27 0;
#X connect 32 0 31 0;
