#N canvas 386 0 375 649 10;
#X text 34 21 [b4p_adsr];
#X text 34 211 [b4p_ahd];
#X obj 34 233 b4p_ahd;
#X obj 34 43 b4p_adsr;
#X text 34 401 [b4p_cloud];
#X obj 34 423 b4p_cloud;
#X text 34 591 [b4p_delay];
#X obj 34 613 b4p_delay;
#X text 34 971 [b4p_envFollower];
#X obj 34 993 b4p_envFollower;
#X text 34 1161 [b4p_freeverb];
#X obj 34 1183 b4p_freeverb;
#X text 34 1351 [b4p_gain];
#X obj 34 1373 b4p_gain;
#X text 34 1541 [b4p_glide];
#X obj 34 1563 b4p_glide;
#X text 34 1921 [b4p_input];
#X obj 34 1943 b4p_input;
#X text 34 2111 [b4p_kick];
#X obj 34 2133 b4p_kick;
#X text 34 2301 [b4p_ladder];
#X obj 34 2323 b4p_ladder;
#X text 34 2491 [b4p_lfo];
#X obj 34 2513 b4p_lfo;
#X text 34 2681 [b4p_metro];
#X obj 34 2703 b4p_metro;
#X text 34 2871 [b4p_midi2cv];
#X obj 34 2893 b4p_midi2cv;
#X text 34 3061 [b4p_midi4cv];
#X obj 34 3083 b4p_midi4cv;
#X text 34 3441 [b4p_mixer];
#X obj 34 3463 b4p_mixer;
#X text 34 3631 [b4p_noise];
#X obj 34 3653 b4p_noise;
#X text 34 3821 [b4p_osc2cv];
#X obj 34 3843 b4p_osc2cv;
#X text 34 4011 [b4p_output];
#X obj 34 4033 b4p_output;
#X text 34 4201 [b4p_pdvco];
#X obj 34 4223 b4p_pdvco;
#X text 34 4391 [b4p_preset];
#X obj 34 4413 b4p_preset;
#X text 34 4581 [b4p_quantizer];
#X obj 34 4603 b4p_quantizer;
#X text 34 4771 [b4p_sah];
#X obj 34 4793 b4p_sah;
#X text 34 4961 [b4p_scope];
#X obj 34 4983 b4p_scope;
#X text 34 5151 [b4p_sequencer];
#X obj 34 5173 b4p_sequencer;
#X text 34 5341 [b4p_vca];
#X obj 34 5363 b4p_vca;
#X text 34 5721 [b4p_vco];
#X obj 34 5743 b4p_vco;
#X text 77 -21 This is a list of all B4P modules;
#X obj 34 801 b4p_dsp;
#X obj 34 1753 b4p_grain;
#X obj 34 3273 b4p_midiclock;
#X obj 34 5553 b4p_vcf;
#X text 34 781 [b4p_dsp];
#X text 34 1731 [b4p_grain];
#X text 34 3251 [b4p_midiclock];
#X text 34 5531 [b4p_vcf];
